<mxfile host="app.diagrams.net" modified="2022-04-26T10:39:53.565Z" agent="5.0 (Windows NT 10.0; Win64; x64) AppleWebKit/537.36 (KHTML, like Gecko) Chrome/100.0.4896.127 Safari/537.36 Edg/100.0.1185.50" etag="CFA8p4jIqH_jYlXO6hSs" version="17.4.6" type="github">
  <diagram id="DgwiqjALgiG9h08Tc-ei" name="第 1 页">
    <mxGraphModel dx="1117" dy="637" grid="1" gridSize="10" guides="1" tooltips="1" connect="1" arrows="1" fold="1" page="1" pageScale="1" pageWidth="827" pageHeight="1169" math="0" shadow="0">
      <root>
        <mxCell id="0" />
        <mxCell id="1" parent="0" />
        <mxCell id="MOPxv8yGljez2J6iDDAj-3" style="edgeStyle=orthogonalEdgeStyle;rounded=0;orthogonalLoop=1;jettySize=auto;html=1;fontSize=18;" edge="1" parent="1" source="MOPxv8yGljez2J6iDDAj-1" target="MOPxv8yGljez2J6iDDAj-2">
          <mxGeometry relative="1" as="geometry" />
        </mxCell>
        <mxCell id="MOPxv8yGljez2J6iDDAj-1" value="" style="shape=image;verticalLabelPosition=bottom;labelBackgroundColor=default;verticalAlign=top;aspect=fixed;imageAspect=0;image=data:image/png,iVBORw0KGgoAAAANSUhEUgAABAgAAADxCAYAAABGS4XYAAAgAElEQVR4nOzdd3wURf/A8c9eSy9H6CSAoRfpoIKgICq9KCBNUaQIiPCzoKKP5cEGNhBRmpQHpCm9Sw+99w6hplCSS0+u7u+Pu0BCAsmFhOb3/XrdC24zNzc7+93Z3dmZPSUuLk7lHjl//jwANWvWvFdfeUNcXNw9/04hhBAPhsDAwPtdBCGEEEKIB57mfhdACCGEEEIIIYQQ9590EAghhBBCCCGEEEI6CIQQQgghhBBCCCEdBEIIIYQQQgghhEA6CIQQQgghhBBCCIF0EAghhBBCCCGEEALpIBBCCCGEEEIIIQTSQSCEEEIIIYQQQggeoQ6Ck7PfQHnxaZQXmuDXqQvNv5vO+qv2Av/eKzN9MBoDM79CvdmqqgX+3Q+yK6u8aV49gCpP+TD1+INZF6qazIJFRoxjjDTccghVNTF7vvN9s20ns0lvJ+byJN6YXAzjGCPG0e2ZlnD362ZJ3MW0NT1oOjGU4LEhVJ3ajsHbVhNuyZy3u+X9N1FVmNnFuf+1mqhkm+ZRjEl3Re592Rm7cyYTmYs2KvHqQr5Y0Jy6v5V0fm6MEePCeSTksX2Lv76KX1Z25YWp1Sn7ayXqT29Pv01z2JdkyZSuoOvhfh0vhBBCCCEedLr7XYD84lvtZf4YbAW7mesRe5m+YiIvnk5l5+9vUcdQcN+r6MBodJ0sWxVMSQX3XQ8Tuxni4hVMDoVU6/0uzd1THdfZuft9Bu5YzLl8zNeRuISBs3oxP8353qDoiErYzMzdm1l49gMWv/IxdQ3ZX/AK9zxqMVnQVHMYIxb1ZlIqgA8BOqOzR1mnJy8Rab42idfnDWOjDVA1eGh0nIkL48yBMBaePcSCrl/T2PvexPr9Ol4IIYQQQjzoHr4OgrRINq47ReGWz1I9w/iHUjXa0LtG+ruu9Ap9n8d+Wsyc429Rp2bBFado12TCuzr/r4Z5E9LeQHLBfd1Do2T7FPa0T3G9e1AvcDVoXEVTFA2goLjeazWZB9eknPiEttsXY9PXpW/9hhzdNpZtd/ntqprG+i3vMj8NPAq9zczWH/JsoIGYyCkMXfoxq2J+5rujr/NX7ZJul1dk9ajFZIG7upFlKYDSnJ96zeSNQI88Z6WqFjbu+i8bbRBQ7BNmtxxEA38tCVcX8PGSAcxN/J1Rx/rTuF4Z1ycKth5yd7ywsGvdSpQ6rahv1N/1dwohhBBCPAwemqsKa9wpFswcQaOeXWn61ynUHEperFQZjCQQl+QcNqpaNIxp4RyCXH2gnhjXEFnVrGFUM+fyGoP1mFQVNdJAe2Mgxt4Gwsb4UqO8P90maUg+ZuDV+gFUecab6UcLdn0dhzx50hiI0ejLjKjMw3nN670JNQZiLOPN6uSbfzNH6Jj4gQ9NqgdQsmQA1Rr58t5EHZG3DlUP8ybYGIjxRQ9On9PzZU8/qpcNoHpjX94eqyM6Q3pVhZNLPRnU0Y96VQIoYgwktIY/rd70Yu7BzGVWE/T0unW6hdGfn49mPxzZEqVlynAfmtYMILhkAFUb+jJ4tJ6zSZm/f0k/Z149ZiscnO5N63oBlKnkT4s3PVl3Oa81DIriRaC3PwBBHv6AH4U8nbcPgzz9M6W1qyplSn/Gwp7LGVk5NJ961sI5EBUDqob2dT+ieSFfdBoDxYLf4v2qoaDYCIs8jN0Vq+6U1125iZ28bAu7ScP8r71pUT+A4OAA6jzry4CReo6ZssZEbuLBWQ6VyE0e9GnuT0hwAHVaeTN5n4KSTZuQ25h0d91UFc6t9KTXMwGEBAdQv603U/fDqsF3nuaQE3e28dqVzqku1dfvyFCuSCbPcQ7Ff3lvpHPZtV9oMtq5rNqW9c6EVz6g2i+FbkwbqB+2P2thLEnEAOgqUDHgbm+rm0m0OodX1a/Ug6cCvNAqBozFutK1rHO94sw3h18VZKxn59bjhdNVti0YRYNer/HqjE2cTn4wp6UIIYQQQuSnB34EQXL0HuYsnMWPK3ZyXAmmY4shrGvfgup3/JSFPTu3EUk16pTTAqAYHAz4JZV/mnmxbbY3n7W28msrOPyrD9/vB8pY+Pm/FoyKwo3TwEQ9v4/UEZEKl77yZEQHPavOK9hsBoZ9baPVn2aKKHd3J9JqtaLXZ707pTxuoXN1T746omPJWoVXX3UuV1WVnWv1mABjBytNvJ3L7Zf19G3mw9JrzvcGD4g8pmPKh74s3ZLMxmkWSmpuLauWyW97MXEP6Cxgi9fx5xFfTtgSWDnUjl5RiF3tzUuvGYjUqFRpbKPNU3DlsI6dCzzYvlZLwtpE+lZIv9UHnkYVoyv3FJOC+Tbr7YjU0/85HxZFu8prgKjjOmZ+qWP+Ih2LlqXQwDdzee27vXhzqoFLBrBYFHYu8KTLadiwNpUarmH4+8Pq02z/mdvWd7cXo/mt8s07oUW8SwNHKOJlRFG0FPYJAfUcxXwKZfqcV+hI1lcJxF+joCbcNns3mUmzAXgR5OWN5fJ3PLviHB/3HE8Vz8JAOBa7GRugdbO8Gd0uxtLlJXZysy3UBC1ftPbj1+M38z13UMe5gzoWr9WyZH4q9fydad2Jh7S93rzcwYMTrrJY9hoY9hq80SCblXMjJt1Zt4T13rTtbiDC9ZmLuwy82x36NMqaX0HFZEFQbasZOmEASwHUFCwKYJ1C19/mcCOCSv/IwTYd8HOj7VMUP54s+yI+51ez/dhENjz2Pk389cRemcHU8ARQq9DqsQqZPlMQsZ69rMcLp2De/voPiswdzxdzhlN16eMMfnUAw1rUpLgMKBBCCCHEI+oBHUFg5/rp9Yz67k0qvjGEwWFmmr/6DcdmzmLBwJdpVsonmwHCZmKvRnHm7D7mTfuIV/6+SNEnOtK++M0U+gppjPnchg8Ks4Z5s2K7B++N0mLDwVujU3jOeEuu21W6HY9j1bsOSDAQ0zSeiA1pPA5YDmm5eJdrabFY2Lx5MxaLJcvfFMVBm87Ou1nrlxi4mv5QMLuONUsUQKVjOyteioKqwqpvvVl6DXwaprHkUByRkSZOb0qhQym4ttSbr1ZkczK/S8+p5xI5dclExOlEvmnp/I69Yz3ZpTo7I/auMhAJVHo3iU0Lk5g6JZnlO+KZ+6WZt1+zY4m4ma/iZ2VCeDzh4fGcPZtMb2PWrwTn3dc1I71ZFA0e9c38fSCOiKg4Tq5PpVURSD3owbfzsobm6pUKg7fEcTkyjgN/WqgMOA57MHv7zTQarS9GnfG2Ly9t5nqo1mgzpiEm/qjmB0CdZ/ZgGhrDmAqZrwD0Xkb8s3Sw5K/rV/dwPGUrh2Jvnya35U13pxgD8hw7udkWhyd4OzsHyluYsjOOy1Emzu1KpncVSN3jyScztDfKkNt4UFX4Z4Kzc8DjCTOLDscRGRHH7m9g86Ks65fbmHRn3VQVlk1ydg74N01j9fE4oiLi2PMD7FyWNb+CislcCxrA2kHRRA+MZn+jps5lRUeyf6BzWfTAaLY2co2rV62kWk2YbCZMdldXimImyeZaZjNhslnJy730Uo//wtynevB48iRemlaaUr+WouLc4ewwtGToi//j/0pkXr/8jvXMcj5eAOgCK9Oj/2gO/TGa0fVtzB43kEr9PuLbsHDy4fmkQgghhBAPnAdyBIF5x0jKfbaGwlWa8s777/JG42oUzWmEq2k1r/YcyQpFAVVH5fp9WfB+S0pkSKIoCuXeSObL1f68v87AwG4qCRaoODCF4c+oZJmXXNpBOX+VkGo2QEfVCir6knZCgMNWuNvnnBkMBho3bnzbO14VW1uo97kXe9brWXfNTLei4DhgYEkEEGSlzdPpZdZwdJ+z7K36p9E4BEChcA0LA1/xZNFPGv7ZroM2tsxfoLPSb5CNIgYFCtvpP8jC9ys9MJk0XLgOjYoqePs4vyN6n57tp+3UKqvib1Bo/k4qzfO85hoO7XaWt0XfVJ5zTTsuWtvMoK6erBirsOWgDrtqQZNhmxTvZKZXNef/S7dMpXtdA5/tVThz8Waamo02EJ7NXdyHQvq0l3zMMqcYy2vs5LQtVBWO7nd2ANTqmUbHis58AytY+c+kZJ44ChRVMasqBrRuxIOWcNdD7Fu8mcozwc7/l2uXyhsNDHyy666rLBdxpuXMEef/WvdOo4HrojK0VSo9ahv4aEfm/O53TCoaPQZXf5sh/a6/osGgM+BxyygARd+GiUNNTATUs8MovnQSFv0Alg38mkbZjBhQr47jxb9+JPvxEZ2ZPPA7mt34Ti1arRe+OgMoyZhVB+CDl4cf3hrNXT8VIudYzyAXx4uMvIrXZ9AHdenRaSPj587mt+9e55h9FTOaet9lqYUQQgghHiwPZAfB+XOnSfAO5qV6DWnToErOnQMAkZc4DLTs+Sujmj9GxRIBZPcxRafy+o+pLH/Kmw0JCpSz8NPHVreGy+anO57Mhlro9KQXe3boWbZOoVs3OLRGz0Wg6MsWGt1YQQVLqvN/f/UK5K9ssopJymb9/MA/QyUplS2M/s1GMlDLy7msQY80nv6fF1vWe9L+CU/QqZSqbKfBUzY6vJ5G6yoqWrfrTsHselacn1/mjhlf13tbKtgg0zY0+jsyvFPxC3D+z2J2jqh46LnqMb8j8c4XTHmLndxsC7PrBrS/T+ZtE1jNSpdqN79fVd2JB4XkhOzSqvgH3GE13ZDzut0sr6935jL4+OVPGR4aqoUkqwlTdkGrppBek6pq5diO7rTftQtt4UHM6jaUJoEGYqJmM3zVR3yzcgsRmi2MrpCLIR53kOvpBbk8XmSipmGKjScuORWzGkT5EtI5IIQQQohHzwPZQVChzaf8nTqe/8z7nBoLZ9Kna18+ateIxzxv/5m4iPNcojh9G9Si+u1uA7kknNFx1nVRRLSGY9HQqHy+FT/fKIpKy5dtfLRDxz/L9MR2tbN2qQZQebmN7ebdwAw8fFW8sztHvkPd3fi+IDvtuqU/pMuZt6Gqmfm7bCxZYGDbXi3HwzWcPqFj4REdC6fr+XhVIsNq53kV893BrU3peODCbf/e8YUT/Fjhwfwds8JF6lDZy8jjRrgxuf0eupvY+XdR8fAGTJCUknEfVEjJ5mdOH+aYzIlS7P/YNvT/cpHyAH8d3oUFX/o8+RktXb2+PmX680XN+SzfuZvph1fzRflXCLwHnbXuHC+wXGfXpkWMmz+fmeEWqjXowKjvOtOlcoEXUwghhBDinnsgOwg0fuV4uff3tGm7j6kzxzNiyjCmLajJ4J79eO+FWpTI5lzao3Y/dvysUPqxO+etxuj5dIiBi6jUr6+ye7eOL4d48szCNCre7e/NK2q+3/0NaWXh2Q91bPzHwIY9NlYcB0paaPNE5juXHq6bWS+Pj2dc6/wtg6GEnU6DUunkem9P1DDlLT+GrdAy+W8dw2rb7vj5rG6WNzExc40lud4bvPIWnA57Eiab6bZ/T7U/SCMNPPDUAaQSm5aCocpwtvd3/mVv2nUADDrPAt5JCy52PFzP3UtIzjzCw3RQz/LDChS30fk5Owa34kHF13VHPyEh88V5Yr49PDIndspVBSJgxTRP9tRPo05huLjGixm7s6YuqJjU67wAC/HWZByqikZRgBSSXSM3PHXZNJT3aaQUjliupWX/pxtrn2oiDgi8B8XJzfHCFn+Wlav+YvTClayP9+OZpt1Y+GF7Wj8WgPb2HxNCCCGEeKg9oA8pdPIoUoe3/m8Cx8Z/xWeVYpj0yyAq/rCBlOzS+helbHAwxe5wI05VYelwb2ZFgH/zVCbPSaFXCCRv82LIBC0W9S4vHos5CAUwaTh4Np9OxEtYePk5wKZj7RQdB4BSL1upn+lOr4PqdZ1lXz3Dgz1XwOFQSYzUMvs7L4YP92LS9mzyzoGqwoqvvRk40Jv/LlGwuupH4+sg1DXvOilZweZ2vTmo2cD5mVWTvFh3AWwOuLrfg3FznPXWqJYtD1MXoHaT3ZiGmG77yvi0+IKmmncxel59Qn+tSovVy4h03FpPodQqEQSKgyV7v2edKRmbw8LVyIn8dCwcVB1NSlTPUz3kXsHEjqJA1ZrOAeYHZnmy8DRYVRXTST1fvOXD4MHezDiluubAuxMPDkJdd25X/+HFpstgt8HZpV5M23m3dZH7dWvT30IpIH6dJ89XDqREyUBqD4KKTbOmL6iYrFCoLgBJ5/9kbkwSNoeZqPDpzI8D1FJUCcr6tP9CPsXQqUD8PvYkJGO2mjFbzVgKuuNMU4WaRTSgJDF75zesi3WW90rkZL466OxVKVm0OiULthQ35Hi8cOzh/ddfo92f+wh89v8Im/Y3G4e9RjvpHBBCCCHEI+6BHEGQmUJA2aZ88uXT9D60lPGXS3LrzE/18gJaD/6RVamF+c+Pi/lvtWwzInqhN+/PU8DXxojvzZQupPDZDxbWvmJgx9c+/N4skSG3+WyuPGblpQZeHNql45P6gXxrVF0/DWZl9MFk2vm5f6GnKPDiS1Z0a/T8848OcNC5tRV9hotGRYEXPkyh7Woflq724vnKXnh43JwD7lPDzNxh2TyEMUcqFYtrWPGDjvi5ehbUtVErGFIuaQnb47xY69nOis5VlvBJvjT/9ubpc4oJQMP3rQIZq81cD80/TOGlf3xYsNuDTrU8MBgg/eHjHjXNfNTZkYfyFpzdm+rT8VCU650N5wyVLXw0PYRPATx681ffL3kq48V85CJ+jDxDkgI7j88k7OnWdPW5+WdF8aRZox/oeOENFsaModP0sRg0Giyqc0SGT+EPGF4tp/HPd6fgYgdq9E+h/wJfJpwy0LuBAYMHWNLzbZDGN686t7GikOt4UBR4oV8aVeZ5cnyXBx0ed6UNsjCgC5yal7kMuY3Jtr7urV9AsxSW/Ongi5EerD8LxWpYeevLVHzHGFjgdk3lTYmqQ+i3fyMTkxcycOZihmaInUIlh/FqyWymIAW3pKPHLP5Km02vabNvLO/8wmUmVvHJkj6/KEppujV+j9mLvufA9TF0mjEGg6K7UV48O/J1g0bZTpvKb7k6XiTYCO08gsOtn6F6gHQJCCGEEOLf44EeQZCZnhI1XuLLVpWy/MVmuspFm5ZCwU/yxG2upxwReoYNM3ANleYjkunhelK68fkUvu/pALOWb4Z4csic9ztpit7BgD+S+LyrjcolVFJMCibXy3YXN+gKv2ihpQfExipQxkqbulnTaIOtTNqQxKi+Vh4vpaLRqTxWw0aP4cmsXJRCo8C8dE4olOudxLLJabzytAPO61m6UM/eK1CztYVRixMZ0fTmijmsN9fXlOH35lMTstaDpoSV39cn8tMAKzVDVLSKStFKNrp+msyWpTd/8/5BYbenkuxIdr3MOBRAcWBOX2a14bj1QyU78l7J8gRoS9CgSk+aeGXNV+PfgfHdljOqyvM87uWHFg9K+DehZ/15bO7yAbXvdtpLLhRE7AAogTZGLE/ktyFW6oWq6HUqZWrY6Do8mTVzUqmbocPMnXjwqJPK3wvTeLm2A18flVJ1LIz6XwpNsrkb7E5MurVuCoS2SuN/m+K5fDmevStS6FMPEmJcZbwHXa+KVxNGdFnMN5Wep4aXH1qlEOULNaNn/Xms7/AqZbL5WU7Fpw0jO/xCvxKPU0p7b/uH/UKGs6zHPL4o/yxVvAJQ8KCozxN0rDmejT0n0CHg3hyOcnO8IPBJ3uneTDoHhBBCCPGvo8TFxd2zSdnnz58HoGbNmvfqK2+Ii4u7598phPh3UO1waa033bobOOZQGbAkjm8aP1idXP92gYH34ukGQgghhBAPt4dgioEQQjx41B1e1O5uIAGwWxQSkp3Lg55PpW/D+1o0IYQQQggh8kQ6CIQQIi/skGBSMAEYVEpWtdOyVxpDX7MSrJXRA0IIIYQQ4uEjHQRCCJEHSqNUwk2p2f3lnpdFCCGEEEKI/PAQPaRQCCGEEEIIIYQQBUU6CIQQQgghhBBCCCEdBEIIIYQQQgghhJAOAiGEEEIIIYQQQiAdBEIIIYQQQgghhEA6CIQQQgghhBBCCEEef+Zw3f4LrN9/ga97N8nv8jBxb75n6RJYUBkXiC7l4u53EYQQ4pERFydtqhBCCCFETmQEgRBCCCGEEEIIIaSDQAghhBBCCCGEENJBIIQQQgghhBBCCKSDQAghhBBCCCGEEEgHgRBCCCGEEEIIIZAOAiGEEEIIIYQQQiAdBEIIIYQQQgghhEA6CIQQQgghhBBCCIF0EAjxr6GqF5k4y4hxjJFnth7Nt7RCiH8XaR/cJ3UmhBDiYaG73wUQQtwjMUuYfRWgPt0rV82/tEKIfxdpH9wndSaEEOIh8VCPIFBVBwe++IL+9b5k+O8X7ndxHjlXZvpgNAZmfoV6s1VV73fRbktVk1mwyHmXpuGWQ6iqidnzne+bbTuZIZ2ZJUtupsutyL0vYxxjxDhnMpE51IM7aQuaqjo4dHwWBxTQFH+FtoXyJ61wz5VTH9N8QkWqTOnB1KvW+1KGxKsL+WJBc+r+VtIZn2OMGBfOI+EB3q8fdPvD6jvrcdkyrI94Pd7r9iGvbfWD5HZ1pqpWli1zrlutjXvubyELQG6Px0IIIR4sBTaC4OrVqwB4e3vfWObr6wvAlStXMqVNSkrCYDAQEhJSUMUReaDowGh0nexaFUxJ97c84i449rHw+HFQdbSo0oaSipI/aYVb7LZE4qwmTCSQar/3F5KqOYwRi3ozKRXAhwCd0dlLrNMjW1nkirQP7pM6E0II8RApsA6ClJSUTP9mlJSU/ZVmTh0EqprMteP/cK1wR6oVvfsyijsr2jWZ8K7O/6th3oS0N5B8f4uUCxo0rnMvRdEACunnYlrNQz1g5q5YLy1gbgqgbUPnCnfeedxJK9xTsuqv7Kn66/0rwNWNLEsBlOb81GsmbwR63L+yiIeStA/u+/fWmRyPhRDiYVTgLXTx4sVzfOVEVZO5emwWs37rwuczJnM6a58DWo2DK+uWMvaVkbzT+Du+fGcpu8+bs6SzXTnL+pFT+arNNwxu9DUfdZ3MrDlniMtmtG/a+aP88+00vnt5FEObjeKL16cwfcpBIuJv3vlTVSv7/uOc5vDbslguLvybH1/6lqEv/MyoT9ZyLNp2y7qYidqwjmmDxvKfF79mQL3/8m7b0Xz/yUp2nsjb5bdq0TCmhXMKQPWBemJcQ1xVs4ZRzZzLawzWY1JV1EgD7Y2BGHsbCBvjS43y/nSbpCH5mIFX6wdQ5Rlvpufh+UmqCkv6Ob+rx2yFg9O9aV0vgDKV/GnxpifrLmdNf3KpJ4M6+lGvSgBFjIGE1vCn1ZtezD2Yp2oAQFG8CPT2ByDIwx/wo5Cnwfne0z/bz2iVNA4d+D/aTS5P2d+foMXi71kXb7lZ1mu/0GS0c1hktS3rnQuvfEC1XwrdGKJdP2y/+2kzDC9ttfsUZ459SucpVQgZW5GG8z5l/rXsO9JU20mmL2pIuXE1aL9xE6YchjSraiobj80lWoGAxzrxvFfe0m5dVwXj6Gf59brz+8J3tcQ4OpgPzzpjPOV4P4xjjLxxJK7A0rpLVZM4efwnBs15hnrjQygyujihE5+i1eIRzI0yZUjn3rZQzw0neLQR48zfOB27gi/nP0v1cWWpPrUdb2/fTLQtQxuRtoBerpi48RrdkJ+vZN5uGYdS9zh4gYP7htB6cnnKZBOT6dvq3Knv6DWtOiFjy1N/9mCmRsaxann6epzLWiGWJGIAdBWoGGDIvs7cWDeAxOurGLuqK83/qEqZcVV5ckYnBm9dzNEU+808E6bRfrQR46KZhG3rRI3fatJtz1GSr0zl1cnlqTKtL9OvZG7YzfFbmbi6M00mlKXk2DJUm/oS7+3eQmSG789L7FgStjNlTXeaTgwleGwIVae2Y/C2lZw137I93KyHLPWoprF3U2Pn9p40nK3mvI0YKYjy5il2yLktye3+ls6eepT5m/rQYnJFgseWp8709gzYvIhjGWIno5za6nS5iZ28xGRuYt3dOkunU2y5OgbkZt3cKa/77U7ut3FejsdCCCHuvwJ/SGGxYsVyTBMdHZ3tclVN5tqJxaxZ9ydbIpIJeqw13Xp358kyWdN6RO1m2h/HuKjRYLOpRG7bx+QTiejmdad2oDONI3ovk19byv5YZxe2zgCmMxFs+uFP9u9tzSej6hHo6t22h2/l975rOBF/M23UkUtEHbnEnq3X+WDcc5T2zFwGx+ENTJp/hFidgs1m4ezqrYw972D4tBcI0TvTJG9ZwpgPjmLSeFCyXmlq13EQfyqC8NU7ObP1IqnT+vFsWfeGHyoGBwN+SeWfZl5sm+3NZ62t/NoKDv/qw/f7gTIWfv6vBaOicOMUIlHP7yN1RKTCpa88GdFBz6rzCjabgWFf22j1p5kieRwGad/txZtTDVwygMWisHOBJ11Ow4a1qdQwOPOMXe3NS68ZiNSoVGlso81TcOWwjp0LPNi+VkvC2kT6VnCm3R9Wn2b7z9z2+7q9GM1vlW/eCS3iXRo4QhEvI4qipbBPCKjnKOaT/WTZwNip9N09h/MaHRY1hp3nv6HLQhvre35ETd09GgoaO5lB2yZxQDFgUS0cjxpHn7+jMbw2ibY+t5QhZgUTzh8nVoGwA7PY1qgJrfV3yNu8jr/DY0ENokuVZvjcabveIW1wQHlgPxGJKmqQg3OxR9ApZk6YIoHSRCVeBLUoZfwDCE4rmLRuV+vpj3lp9UwilUJUKfYsbbzsXLm2g53nfmL7pR0kdF1K38K39JO6sy04x+RVnzPxugadw4ItYTN/7tzKCUcYKxtWRa8ooOjw1BsxAmAlxZpE1q7LzOyRY3jz5P+4lCkm7Wzo+SE1XDGZcPYz2q6YTIQCqDouXpvFu0s86VMic16qbTVDJwxgKYCagkUBrFPo+tscboRN6R852KYDfpliI+d1s1ydxKt/D2OTFVA1GDQaTsau42TsOhae/4Tlnd+jpiFDnpZl/L53ExF2G5d2jGfElZWsSo7Bxt8M29yMVi93pYiiYG9DRPIAACAASURBVI+fR99Z/VlquZlvZMIGpmzbwNJLv7OxwyuU1ChuxSSAI2EB/We9ySLzzXyjEjYzc/dm5p9+l0VdP6WBRx62cTas1yby0YEjoJbi9aYf0ChLvjkrqPLmNnayyKEtcWd/U9O28cWctvya4ADAoBg4FxfGuX1hLD7/Pks6D6eeZ+b8c9NW5zZ2bshlTLod67mss3Q+iTMYdGDWHdsdd9YtL+XNTbvjbpvq7vFYCCHE/fdAjvFS1WSuHp/FrHFd+Px/kznt/SK9+s7ji74f0KRCKbI7Bl/anEzdae/zy/ZP+GFmc2oWUiH2NGtXXnflaeHwhFXsj1XwqPsk/7fsY8Zu/ZQf/nyBusVVEjb8w6JNKa60Di5tO40ttASP92zHZ6tdaWc0o0aAiuXgFv7ZnJqlDIc3pvDCnGGM3fYxX/9YgxKoOE7uZtsB9Ua+58JOYEKhRO/u/Gfcq/T7thfv/zWIt4fU4/kOpbBevf1Ef6v19g8101dIY8znNnxQmDXMmxXbPXhvlBYbDt4ancJzxlsqbbtKt+NxrHrXAQkGYprGE7EhjccByyEtF3PYRneyeqXC4C1xXI6M48CfFioDjsMezN6Oqx5U9q4yEAlUejeJTQuTmDolmeU74pn7pZm3X7NjibhZXo3WF6POeNuXlzbzulVrtBnTEBN/VPMDoM4zezANjWFMheyvordEJDOwWziX377AgRZ9qayCI+435lxynrgSNIC1g6KJHhjN/kZNncuKjmT/QOey6IHRbG1U0/20GWw/e54OnU9z6e1LnO4ykpYGwDKf345mcycv6EX6lKmMUVuKp2u+wpM5dPPFnvmbJTbA+xU6lPHMc9oS/mXRkczFhFgggjMxKs+XasyRuPM4VJXohHCgEmUCCi6tO1TVyt4zC4lUoFKteWx65X9MbT+L5b23MrfB27xdpQ6WhGtZPufWtrg+m1NllnNqYCQRfTfyTakgUBzsPTCTXa7eOMWjHRMGhRM+KJyzA+fQ+06dOS6rL1xncJaY/J3ZrphU1ess2++8wPMv9imr37xM1KCL7GmqZ+etz2tVraRaTZhsJkx2V9eEYibJ5lpmM2GyWcly/zGHdVNVG0fC12MJfIoXq09ma5+LRLwdweku39FCD8nXRvLL6fjMeV7xpVufy6yqVQls84l5bDcRXT/lcRUsMae4iLP9X7X5A5ZawKfI+yx5/RKRb0dwusvPdPCCaxc/4qtTzhEB7sSOqqawZvP7LDKDR9A7/N3LWd6TnUfSygCpptF8e+TyrbWQq218K9VxnunrR7EHKPLYVwwvF5jzRr81jwIqr1uxc4s7tQ/u7m+H97zv7Bzw6cmU7ue4PDiCcz2m09tPR2rsD3xy4GyW78+prXYndm7IVUzmIdZzUWcZHbp47Y7tjjvrltfy5tzuuN+muns8FkIIcf/dkw6CgwcPZvu6nfidH/P5zBlcCmjHmwP+4j9vvMOToUW5081crxcb0qyKL1pFi1/lRjRv5RzHd/H8dRwqwHUuH3VeYNfq0pTKxQ1oFC1+lZ6ieSsfwMrhfZGAc65c2Z6v88Gk/rw9tDalgpxpfSvXobbr2i42m6F/AS0b0ri8NxqNgaAmT9OwOoCNq5GJN/I1eDkPinFHznDqQgKpVhVFE0C1V9vQaWgbnm/gl+36WSwWNm/ejMWSdTilM2+Fcm8k8+VzKkQaGNjNkz0WqDgwheHPZHMWW9pBOX+VStVsgIOqFVT0peyEAFjhbp6vXryTmV7VQK+F0i1T6V4XQOHMReVGWb19nGWK3qdn+2mFBIuKooXm76QyYkQqg569mV/NRhsId11gZff6sUL2Q6VzXd4K/elVzIhe403piv3pEQQoSZyJc57oKBo9Br0HHnoPDOl3fxQNBp0Bj/TlWo3baTMKKD+AfiWCMGgMFC7Rj0EVnVNvDseew37LFAJFV5XeHbcT/vYRljZtRtAdRgSo6hWWH1uOWYFylV7iCe3t6yGntPqAspQDziVFgRrOaVNhgv38ib1+lqskEpF4DTSPUdq34NK6Q1H0eBucD0mNjt7A9utXSLA5UDQlaN5wBCOeG8Gg0KwjnNzZFiht6degPkV0Wgw+NelfvytGFbCe4UI2U6FyK3NM9qN7EKAk3IhJuMCZWEDV0LrWIBr4eaDR+hBa8S1n/GYsor4NE4eaMA0xEdumLwYV0A1g2TuxmIY4l5s6dsH/1jjKYd0URUedJ2ezovsK5jz3MlV9fdBpDAQV70zbIoBiIyLpeuY8fStRztNApSJVgbJUDQpE7x/ibHccNle7c56jVxMAaFV7KI0DvdFqDBQu8ToDK5YGJZ5/LjvnQbkXO+c4dNU5BLpFraE8Z3SWt2hJ1zZWHGyJPpYv2zjqyGd8HZ0M2hb899l2eRyNVVDlzX3sZJRT++DO/qaqJo5GHwegVtVBdCwSiF7REVi4Hf9p/ScTmk3gzaJgvmXdcmqr3YmdG3IRk3mK9VzUWUY5tzu5X7e8ljendievbaoQQoiHS4FPMcgLh82KQ++Hv68RH28vtLk4t/L28yTjqEEvP08gDUuKBQegxY7NdfNs54ffsjObPJJSMsw7tydybnkYaxef5dy5OGIT0k9UnF+iZjPv28cv490BDzxdFzQ2y835fuXaN6LS4nWc3LGFnzttAZ0WY2gxytUKpe7LT1Er1DvTeqQzGAw0btwYvf72ve6KTuX1H1NZ/pQ3GxIUKGfhp4+ttwwbLnhGf0eGdyp+rju/FrMCrvuUDXqk8fT/vNiy3pP2T3iCTqVUZTsNnrLR4fU0WldR0d6jchs9MnbK+OLr6m+w2LPvjCkIgQa/TOvr52EEokm2JGMD7nBeeWdxS5gdaQOq0L1y7TvXaU5p/UMoB6yLj8KRcJFjtgr0DClNUPhZzhFNZDzgX5ZgTQGmdVODx9/l6RMfsyX6a9rP+hrwoZR/XRqUfJYOtV6nddHALOvp1rbQGfHP0IoqhTsxumk1kilErbu4QZY5Jv3wyxKTaZhtADp89RkfNOiNT37dmMvFuqn2q+w5/BvjjqxhX/wZLtluma+cpy+2YHE9uuWvf4L565+sKWLMrue1uBU7Fsyunk8/Q+beJl/XNrbZzXe3jc++StFf0t948MyTX9HZP6/tWEGVN4+xk4u2JPf7mwWz67Dob/DOlEdgsRfokuEaM+OhNue22o3YcVOeYt2N9jendsfg5rrlpbw5tzt5a1OFEEI8XO5JB0HNmlmHVN+JscHnvKuZycqN4xi9ZwaV6vSg5TPtqFLYO+cP54LOR49HdldcBtfcSNXChakz+HH8VWwoaDx0+LhO8qwpFiy2vB/8dOUa887fIexffZxTR6OIvGQiOjyCPaci2bPgOO2m9KN11ezviN+pcyBdwhkdZ9NnP0RrOBYNjcrnubgFxlDVzPxdNpYsMLBtr5bj4RpOn9Cx8IiOhdP1fLwqkWG1nWkPbm1KxwO3H/va8YUTdz2K4FF16vhcdihAoe60L3rnuM0xrWcwZT3AnBjJldgzHPaqSvlSoVQ3L+NcchQRiUBICKUKMq2bDMXeYv5rdVhybDXbrhzieFw4p+PDWHgijIUnF/NxpxUMK5k/7QqA4lOLdjVr5Vt+t+eJhw6w2kiymoH0zskUUmx3+NhduHXdVDWV/dt60HbvHswKaDT+GHU+AFhspnz5xRMPrRHv7MJW7zp0FWDs3M4dt7Hig1FrwGI3kaxaSUhLws5ddPDlg6zbLW+xk5u25F7vb3eSY+y4Ia+x7k77646c1q0g980HaRsLIYQoGA/kCALFUJxKDd+nYr2enNozk5Ubf2f0/plUqtWDFs+0p2qRrAeflMQ0HCo37r6nJDivkj18PVzzKHToXOdB9b8cxuvP3mHVbeFsnn4VGx7U+08fXmtXBA/FOQdw+3vfMz3s7tZPV6Qs9XuWpb7rvSPlCmH/+YPZm2LYuOoiravm7YpejdHz6RADF1GpX19l924dXw7x5JmFaVTM7sEN7lDUfP+ddEMJO50GpdLJ9d6eqGHKW34MW6Fl8t86htV2nq067EmYbFmfgJ3unv6evDt3RtxIG2dJxKGqaFyfSUyLAcDXwyfPO6nqOMzCE3sBeKZqO8rdaSpCrtIGO58DkBjJAdNpkgq9THm/0lTWHyc8KopLdijlH4yvoqCqBZM2Lwz+Dej0ZIObcWY+xZRlLRh2+SCTj+1jWMmnM6UviG2R/8pQzgikOVhxaDx7ggdSx9vKxTPjmZH1sQoFw76N6Qf2YKYQHZusZmzNcvhoFFQ1ltl/l2NQZF4zNuChB1Lh5edPMK7SnTr/3Imzm/kmWpLA9dhIgCSzs30xaD3ubhuHjudk69bEHutDwzUL2L/vI6ZWWUL/oLwM6yio8rofO+60Jbnb3ww3OukTLJnnaZiilrL8Sjz4NqBzuQq41/XrTuy4IQ+x7k6dQW7aHTfWrcD2TSd321QhhBAPl/v+kEKHw3Hbv6V3FAx5fx7vtmqK9vR4xox5nZXZPJcpdfV2NhxPwq7aSTqxlXUr0gAoU7awq9MgiJDqzgPq4cVbCI+x4lDtpF29wPZJS5j74xI2Hki/9a7isDv/tdsdOFRQbSlc27GT/afzfpmsqgkcHD+PaV/MY9G6WNezEUDxMlKksPMUIC3VcmO5e3nD0uHezIoA/+apTJ6TQq8QSN7mxZAJWiw5/BRejoo5CAUwaTh49u66ClQVVnztzcCB3vx3iYLVVTaNr4NQ169eJiUr2FzLazfZfXOudDavjL9gUNAK+RRDpwLx+9iTkIzZasZsNWPJppPCnbTxZyYwMSoGi8NCTNRExp26CkCNoHJZhmvm9mcObRGLmJMA0JxXKoXccb1yl7Y4wQEGSDVxJOkcpQqXw6iUpVyhCC5EnScaqBgQUsBpM9SDeRej59Un9NeqtFi9jMhbdhxVjWbFpoEMXDaQ/x6/cDPODKUI9XE+oyTJknIjztK5sy3uF0UpTJs6b1JKhfioL3l+cilK/Fqa2muvUDGnJ9HnG4errVKxOxzYVVBtJs6encFS091cZj9G9aLOeUmrD01gT2IaDoeFxIS9zA4bzvC1w5l0Mf0Ba+7ETig1izmfnL7qwGjWmZKxOSxcjZzIuFPRoGpoVLxqvmzjolU+5z8lfUDdwVfrZnMpm0Y9p/gtqPLmJXZy0z64s78pipGqxSoDcOD4OBZej8OqWjFdW8AXK19n8KbBzIjR4OH2tnAndtzhfqy70/5Cbtodd9atYPbNvLapQgghHi4FfkPs+vXrFC5cONu/mc1mzp7N+qTiWymGYlRq+J5rRMEi4rMZr1n++QD2vP4DC1w/cwgKFKrIcy86n7qkKAaq921B7c1L2L95EyNf3ITOAOnT8gyV6zG4n+sHinWlqdHci20r0tj/zXj2j9JgcNixlKhP20Z6Dv2d10f4+VG8cAIHJl8mdcVpdlUrSdniOixR0Rw/kgL40LD5Y9k+gyAn0Qu9eX+eAr42RnxvpnQhhc9+sLD2FQM7vvbh92aJDKmWx2IDPGblpQZeHNql45P6gXxrVF0/kWZl9MFk2vq6U2iVisU1rPhBR/xcPQvq2qgVDCmXtITtUQAHPdtZ0T0gF2MZeQS3pKPHLP5Km02vabNvLO/8wmUmVvHJc9raZYqw8K8KfO76iSsADJ0ZUDWb3/TMxc8cqqqF7SfncEEBrzKv0MInazbuplUUA8EB5cB+jt1XLlCzUjnASGghf+ZF7yUKD+oGFCvQtJlELuLHyDMkKbDz+EzCnm5N10xlL0pF3yhW7N9I/NmlLNj7JLV8vUlJ3E9YTCQQQs9KT6BTlEzznN3aFrkQvqcjzXemP5TVSooV4CTf/1WOsQrA84zuM562bt7sDCg3giUtC/PF9hmsT0yjWFAL3mr8Hr67FrAgTyV1k7YOzz9WnJnh0SzZ8gRLtnrhpaaS6j2Ej0r7serk7Uf93ImiePPC09/T9mI/lkZ+xvN/fIGHRoNZdY4o8gl4h7mN/F1p3YkzL5o//RMvXXqdBTG/0Gn6rxg0GiyufD2MQ/moevDd1wugaErTo+nHzJ79Kbsiv+SL4y/yR7VbYjiH+C3I8roTO7lvS3K/vwHUqDeK/qfaMSFpJr3/nIkhw/7mEzSMb2qVc3u93Ikdt7gZ6+60v+meCi19x3bHrXUroH3T3W0shBDi4VRgIwjS58tHREQQExOT5e9ms5kzZ85gtVrRarX4+ub8iHJnR0F/GmR3l6NsQ17/pi6Vyxjw8PKgRMM69JnwErUy/LqUpngd+szoSdcupQkprkejNVCkcikaDmjHsHGtqOh6Po+i+FDr/Z681q0MISUNePh5EdzsCQaMfYHyd/EAMEVRKPpyD97/phFP1vWDiMvsX3Oe8Bg9pZ+tTbff+9C5gZfb+Toi9AwbZuAaKs1HJNPDdR1jfD6F73s6wKzlmyGeHDLnvVdf0TsY8EcSn3e1UbmESopJweR62dzMVlEUyvVOYtnkNF552gHn9SxdqGfvFajZ2sKoxYmMaPpg3oFQfNowssMv9CvxOKW0d+5fcydtgm8Pxj0/iCZ+gfhqilC5xCAmd/qJNtlNNM3NzxxaNzP/VCSoPnSo/ALGO52wuZE2JKA8KOtYG1mcyoWCUBQtoYWqsSdqLVepQGl/bYGnvaFkR94rWZ4AbQkaVOlJk1t2HUXRUK7OVJY9/xGvFCsLidtZen4Ne1N9qBnyFqPaL2NEaNaLBbe2RS447CkZfk4wCbMCKA5S7a5l1jS39yHn+nkRWukj/vf6US4PPsve7uPoE6wjwTl4Cg9Nwf6MmKIE0bb5HH6p9iI1vArhqytK9TLvMeOlj3jqLruetQGdmdR9KaMqP8/jXn5olAAeC2hKj7qTWdnlcxp53dwW7sSOxr89v3dfxU/VWlLTOwAtHhT1fYqu9WawpesnNPDIvwsbXeE+fFOzOiixLNj6FWtSb9nIOcRvQZbXrdjJZfvg7v6meDVmRNcN/PZ4B+p5B6FXfCkT8Axd605jzUvDqJvHdXMndnLL7Vh3p/1NF9Qnx3Ynt+tWUPtmXttUIYQQDxclLi7O7VPTdfsvsH7/Bb7u3eSO6RISEoiNjQUgODiYoCDn3fz0zgGbzYafnx9ly5ZFo3H2VUzc625pHk1dysXlnEg81FTVyvLlRXn1LJSpuYYDz9bLt7zjj79FtdVzSTa8zt99fuK5OzyDwp20j6qC3Bb3iupI4dLZEXRbMZ5jahEGdDjCN2Xl4Z0iZ3eKHWkf3Cd1JoQQ4mFWoFMM/P2dPcmxsbFcvux8cICvry9nz57NtnNACHH3VNXEquOLSFagZIWXaHyHG8nupBUPHvXiV9ReOoUEwO5IJMHhHG4cVPIT+paWjSluLzexI+2D+6TOhBBCPOwK/BkEt3YSaLVa7Ha7dA4IUUAUxcgrL0XzSj6nFQ8g1UyC1YRJARR/SvrXo2X1dxhaqwnBeXmYifj3yEXsSPvgPqkzIYQQD7sCnWKQUfp0A0VR8PX1vW3ngEwxcJIpBkIIIYQQQggh7qV7dvs+fSSBqqoyckAIIYQQQgghhHjA3JerdOkcEEIIIYQQQgghHixypS6EEEIIIYQQQgjpIBBCCCGEEEIIIYR0EAghhBBCCCGEEALpIBBCCCGEEEIIIQSgu98FuJX8vJ8QQgghhBBCCHHvyQgCIYQQQgghhBBCSAeBEEIIIYQQQgghpINACCGEEEIIIYQQSAeBEEIIIYQQQgghkA4CIYQQQgghhBBCIB0EQgghhBBCCCGEQDoIhBBCCCGEEEIIgXQQCCGEEEIIIYQQAukgEEIIIYQQQgghBNJBIIR4QKnqRSbOMmIcY+SZrUfzLa14OD3K2/hRXjchhBBCPFx097sAQgiRrZglzL4KUJ/ulavmX1rxcHqUt/GjvG5CCCGEeKjICAJxW1dm+mA0BmZ+hXqzVVXvd9Huq7h/VvJjvTF88ewcNp+w31VeqprMgkXOO4cNtxxCVU3Mnu9832zbyQzpzCxZcjNdbkXufRnjGCPGOZOJzGG7uZO2oKmqg0PHZ3FAAU3xV2hbKH/SPkrO7W7l3F7ZvUY35Ocrj85+mtM2TjFtYvzqLjwzMZSSY0OoOrUDQ3es46Ilax1YEncxbU0Pmk4MJXhsCFWntmPwttWE32VaVbUTc3kSb0wu5toG7ZmWkPM2uN26qanrGDLBiHF0EVrvPovDtU+qagob19TAOMZI8dmTuOBQUe2rGDjate1nTeRielrLSgaMdS2f+Rvn0pdHfU/90UaMo/uxzJpzGc0J2/hj7au0nFqTcr9WpN70DgzYsoQTqXlr//Lanj2Mrpz6mOYTKlJlSg+mXrXe8+9/kNr1/JLb46YQQoi8kQ4CcVuKDoxG1fnyvd+leXCoZiupiRbMiRYstkfjhOuB49jHwuPHQdXRokobSipK/qR9hGg0Phh1xkyvQoYgHsld9Q7b2HJtIt3/7MDHJ9ZwKCUeu5pGVMImpu/sRNPFM7nouLmPOhKXMHDWi/zfsRUcSDVhVdOIStjMzN1daTL3W/Za8pZWdVxn5643eX7+MBYlW/Jl3RSv53ivXjM8sLFt369scGWrxs3ix+OXQA3lrUY9KaPJGO86dFeXsz7R+c56aSP/OHTo7qKZciQu5Z3ZrXn/6DJ2xF8m2WHibNwm5uztRbN5IzPVg8jKbkskzmrCZE0g1S51JYQQ4sEnHQTitop2TSY8PJ7w8HjO/mnB534X6AFhbNuOT09+wLd7X+O56nc7S0dD+vm9omgAhfRrH63m37t7Wi8tYG4KoG1D5wpF8y3to6RM3b8IHxR+43W27z/8WKES3oCxcGue8LvfJcw/t9vGqhrJrPX/YZMdCpX4jJW9LxP59gUOtB5ETSA24mNGnk5ypU1j/ZZ3mZ8GHoXe5q9XLxHxdgQnXv6WFgZIjvmZ745GuZ0WIOXEJ7Tdvphzurr0fWowDd24DrxT/IbUGM4APyD1f/xw8CwONZkNO0ezRYWAsh8zKMQzc2ZFW9PaO4wV4VdRVQf7LqwkuWxH2uaxKVFVOzt2fcy8NDAEDuLv1y+66uFrntdDqulnRp+IyVvm/xIlq/7KnrevEd1/KQNLGO53cR4RctwUQoiCJC3pI0C1aBjTwjkFoPpAPTHpw0jNGkY1cy6vMViPSVVRIw20NwZi7G0gbIwvNcr7022ShuRjBl6tH0CVZ7yZnodnZKkqLOnn/K4esxUOTvemdb0AylTyp8Wbnqy7nDX9yaWeDOroR70qARQxBhJaw59Wb3ox9+Dt13N6bz/KlfWn/Vc6TLcMl1QtV/in/Y98WOZ7vhx6jKQb9RDF8pbfO5e/d5LkG0N1zUStCGNm10l8VecnPgz5gU/rT2TMW+vYeTglc94Jh5kcMooPy3x/4zUsZCKrj93dHSFF8SLQ2x+AIA9/wI9Cns6TyCBP/2w/o1XSOHTg/2g3uTxlf3+CFou/Z138zbuW6rVfaOIablxty3rnwisfUO2XQjeGoNcP2+9+WtXKsmXOZa12n+LMsU/pPKUKIWMr0nDep8y/lpRteVXbSaYvaki5cTVov3FTlu2WJb2aysZjc4lWIOCxTjzvlbe0W9dVwTj6WX697vy+8F0tMY4O5sOzNgBSjvfDOMbIG0fiCiytO+4mX3vyNkbOb8EbR/YSVP53VnUZTkPvvI+ksCRsZ8qa7rcMrV/JWfMt+9y54QSPdg5fPx27gi/nP0v1cWWpPrUdb2/fTHSGETaqmsq5U9/Ra1p1QsaWp/7swUyNjGPV8vSYOpdtWe4YD+pl4pSnaVa8Be83eocn/b3QarwpXe49+pcClGT2X0vPN5wDUTGgamhf9yOaF/JFpzFQLPgt3q8aCoqNsMjD2FXVzbRgV1XKlP6MhT2XM7JyaK4f7pNTrCv6ugx6qhNGHOzYN5YNV2fz48kIoDbvNmxPkVtHyySW5LFSvmw4ux4Tx9h0/hJPGx8j3pHLAmWRzOWECAAqV+jOc4E+aDUGipbqw9cv/MzPjb+nrTHzNAN76lHmb+pDi8kVCR5bnjrT2zNg8yKOpWQ/HSGn9iydOX4rE1d3psmEspQcW4ZqU1/ivd1biMwYYwnTaD/aiHHRTMK2daLGbzXptucoyVem8urk8lSZ1pfpVzK37YnXVzF2VVea/1GVMuOq8uSMTgzeupijtylvbqhpC+g1OudpPxmnWvQ4eIGD+4bQenJ5ytymHlQ1iZPHf2LQnGeoNz6EIqOLEzrxKVotHsHcKNPNdG606+7Ug7vlBffiITfbGPJ23BRCCJF7D0UHgdWau3l7uU2Xl/QPchkUg4MBv6TS0AciZnvz2QoFVYXDv/rw/X6gjIWf/2vBmPFkMlHP7yN1RMRoWPWVJyMmeLHqvEL0IQPDvjZw7S7mKtp3e/HmUAN7LikkXNWwc4EnXbp7cijDUNTY1d689Jons8I0GCrZaNPRSmUPhZ0LPHirnS+TTmfz/acNTFioJTZeQ9iPBrbdci6iGIrR7IeGlPRQSZ6/jkWrklFVG5fGryTsiIpaojKd/lMRH1c9JK9ZzYT+Ozi0PRld+VJUbBVMEc9kIpfvZX6Xv9h4JsNZtaJB769H76tD76tF47h9/ewPq3/7ueFjjAw8Yc6Uvoh3aee/XkYURUthnxBQNRTzyX4yfWDsVPpunMbOlHjiLafYef4buiz8kYP3crpD7GQGrRlHWFIsSY5rHI8aR5+/h7I0OZsyxKxgwvnjxNouEXZgFttsOeRtXsff4bGgBtGlSrMb28vdtMEB5YEzRCSqqKqdc7FH0ClmTpgiAYhKvAhqUcr4BxRYWnfkNV81YSVD573EyOtBvNRoGctbvkJFQ947BxwJC+g/qxXvHVvJgZT4DEPru9N4zlfsMmcXZ+eYvKoXoyOOc8UaT0TCZv7c2YGeO49hdbUlCWc/o+2KkSyJjyDJHs/Fa7N4d8nXrLuLeFA0DRjaZT7zMMH1awAAIABJREFUX5nNgFLaDB+yYHZdfwR5pteXmTQbgBdBXt5YLn9Hw4n9Wfr/7N13eBTV+sDx72x2N70soYcAEjpIEARFBAFBUDrSBAsiiIDYRUS96g/LVa9eFFEpggjSBII0QaQ3adIJNdQUAqS3Ldn5/bGbHpKdhUi57+d59nnY4d2T0/bszJkzMxkqgV7lHZ/KNmPTHAvetT5jfa9XaBfo6Volu1C2HMH13+LVCnrIms9by79lBxBS7x2GVihmGsJspVmtrhii17I1bhvrUu7jkapBJGvLVS5FCaB6YAgAR0/MZl2y2bndSJ3aQxjSfAj9QyvlxqtZ2/lgfluG7V/MzvTLWNVUziRtZv7fz9Jx8b/Zk1W077gynmUnL2T43G68dexPDmWmkq1mEJOygRnbu9Nu2QJiCo/HlhV8v3cT0ZbzrP7rBybs+ZjV6VeJS17E2C2/5f6+WeKn8dTCJ/jX8TXsTb1EVvZljiesY86eIXSO+C8H3L18QtHjZci59McPTxeSyY75muc2/8yejGRScuvhKw7mq4eEk2/TZ80E5l66iDGoHd3u6kB93SV2nvmKFxY/ybQr7s0EuVMPruRXS3/Q2sZafzeFEEK47pafILBYLGzZsgWLpeTrOl2Ncyf+dsiDoU4WX79vwxeFuWN9WLXDk9c/98CGnRcmZvCwqdCO5w6VJyKTWP2aHVKMXG2fTPSGLO4GLAc9OO9SCYq35neFMVuTuBiTxP5fLNQH7Ic8mbfD8f+qqrJ3tZEYoN5raWyKSGPmjHRW/pXMgg/NvPh0NpboYg5w6lgY1tOOKcDOg69YuL+Y1ZoetVsycFxV9GRy8L31HNj5F79+fQUVP1p8/jCNghRnHrI5s/YUmTqFoFGP88aC/jw3ZSAvbRzK02+Hc9+Aythi0nPTVfwb8cyRV/noyKtMONyH5iWcpNB5+BW5Njz/y9ujYNkatd5C4suJ/NjIsSa82UN7SHzlKl/XMRSb/tbodEY9EcXFF8+xv8tw6qtgT/qO+RecO4fBI/lzdBxxo+LY17q9Y1vFz9g3yrEtblQc21qHa4/NZ8fps/Tqd5ILL17gZP/PeNQIWBbz3ZFizgIHd2ZYjfqYPEJ4MHwA95dyejXh1CKW2QCfAfSq4eV2bJWAmuhJ53xKAhDNqasqnULacDjpLHZVJS4lCqhHjcCyi9XC7XQvb2Bhshmyz7Fu35u8tHEBRzLdO1BQ1QzWbnmDpWbwDH6JRc84lpQf7/cZjxkhM3Einx6+WPSDV+ZxosZKToyKIXr4Rj4JCQbFzt79c9ilgqpeYcW+6UQrEFDpXdY8d5HY0efZ097AznMl50lLf8hhuxrBgjhAbUj70GrFxlyJ30NkxjYOJpSeXmmxBm8TATrtkzKulE3R1WboA8MIxcLp9HOge5hxrTrgV9zEmZqNb81H6cJmth0+yD7To3QItKLxrggFtGj6Ou10YEv+gb6zmtJh8et89vdaIjOKpnpozxt8m2IH3yeZMegMF8dEc2bwLIb668lM+A/v7D9d5DOljWeqms7qLW+y3AK+Fd5g2ZALxLwYzcn+/6WXN1w+P46PThRaVXPJjyeGXWR103pgW8zVu3YTPfBd7lbBcvUE5wFVtXE4aj2WoFZ0bjydbcMcff1k/3/TxQDplz/jm5PuTa0onj2YknPpz6j5DC1+KC9gzbkrjClSD98zL7cerOw9FUGMAvWaLmTTgJ+Z2XMuK4duY0HLF3mxQTMsKZcdiWkY192th9LyC673B3faWOvvphBCCNfd8hMERqORNm3aYDSWfO2eq3HuxN8OeVAUhbBn0/nwYRVijIx6wos9Fqg7KoPxDxVz+qK6nbAAlXqNbICdhnVUDCHZhAJY4XrutVy5r5lnGoHBA6o/msmg5gAKp84ruXn18XXkKe5vAztOKqRYVBQP6PhSJhMmZDK6XTFlNNoZ+lMKUedSWP6+jeBidpAVxYOKTz9K5zZ6uHScX5/dRXy2QtDQLnRr410gzujjOOOYsT+KU6dSybDYUTwCaTSqM49/0JmObd27iDu89YYC14YXfn1Z5/quQ61cZwTPVDJh0PlQve4IBgcDShqnkhw7h4rOgNHgiafBE2NOHSk6jHojnjnbPXSaY/MLrD2S56sEY9QZKV/leUbXrQzAoYQzucuucyj6hgztvYOoFw+zvH2HYtsth6peYuXRlZgVCKvXh/s8rhlaaqwhsCZhwJm0WFCjOJlYnmr+ASRcOU08qUSnXgbdXVT3K7tYLdxOV+dJkMFEgIeV5Mz9rDg0kg7z3mFzhjtnP89wMN6xVLlL01d42OSLXmekYlVnGyt2tsYdLdLGKN15vmULKug9MPqGM6LFQEwqYD3FuQyAc5xKAFQdXZuOpqW/JzoPX2rVfcHRf69BS3/IYc/Yzse//x9/ASG1x/FUxWv8zOVcalR6ktpiXaSlbD4h7WiTM7FWvjPtS1pF7fUQj4amseDESuqEtSfsOvPpUe5ZZvX/lucqhOBpj2PfxRn8e0t/HvjxIV48EJnvkq1EjsRFAtC04Wh6VwjCoOgJKt+D97r+wpQOU3iuIpgL9Z3SxjM4y5H4FAAeu+cV2gT54KEzUr7KEEbVrQ5KMn9cLHRdnF89wryM1KvQEKhJw+AgDAGhjt83uw0roCh6mt0/j1WDVjH/4cdp6Ofo68GV+9G9AqDYiE67kpukGj+ZRybXolaxr7dYf51PCChYD88zKBhQUvLGdcWAj9EHgLi4Dey4cokUmx1FV4WOD0xgwsMTGF3LsZpD02+AxnpwNb/a+oMbbSyEEKLMXO8d1v4RBoNrM8KuxrkTfzvkQdGrDPkyk5WtfNiQokCYha/etuL/D9/V3RSQ/+ylir/zjKfFrJCzi91ycBYP/uzN1vVe9LzPC/QqIfWzadnKRq8hWXRtoOLhZr4VfTBt/t2Wwx3Wcz4jG7Xa3fR78y68C6VXa2BLQuZvIXr7LmZ23IWq6PCtXZHQ+2rS9MnmNK3vje4WvCO+yTP/xIUffs75Bkv29Zwn1CbI6F+gffw9TUAc6ZZ0bIALx3HFS1rGvBgb0IBB9e8puQ+UFhsQShiwLjkWe8p5jtrq8GRodYKjTnOGOGKSgYCaVNOVYawWbqar3DWB46MnoGanc+HCZF5a8SmbUn/gk8PDaNtS6+GhBbNzdtDfWHAmws/Zxjbn0voCbaw3EZDv10Qp35eJ7RuRTjmaGgCyMNsA9PgZ8i/D98G3pGFNS38AzAnLeWfZSH5MzsS33OtMf7hb0ev0czPpnLAsMUU3Yl3lYtlUNZuTf/+XhTZnBi5N5vvzg/ioxrVuGxtIx/un8kFMErVqNQLbxuvOakClwXzxRD/GXd7B+jMbWHNsLkuSjvHLhsGYgrYwoYYv+S/rCHAeyOYIqvQI/fOuRCD/sXTp45kFi/Najl//qMavfxTN31VzetGNLlCz49lz6DsmH17L38mnuGArdM1/gTcW0qyJJBbXTGoGbt/mwalgPfjjX8y43vLu13jw2NtsjfuYnnM/BnwJCWhOy6rt6NV0CF0rBrn1u6mpHlzOr5b+UHZtLIQQQrvbYoJAuC7llJ7Tmc43cTqOxkHr2jc1S8UyNjSzeJeNZUuMbN/rQWSUjpPH9EQc1hMxy8Dbq1MZe4/76WeeiuWqGccamcvxRMfZqVO74GGroUErRm4KYf9vJzn1dzyXziaRcCqW4yfjODbvOLERT9M1XPvZ/gPb2tN7/7XXTfd+5Nh1ryK4U52IXMBfClBuED0rlryjW2qsVzVqeoI5NYZLCac45N2Q2iG1aGxewZn0WKJTgdBQQsoyVovrTFfx8CW0xhuMaziHTYcusDPuMJlqrSITY/8ExbcpPcKb5r5XVS889YDVRprVDOQsp88go4R7ELjaH1TVRvy5r3j+90/ZbIEKld5jbs9Xudf72p8pX6EZ9b1N3G0Coksuj5ZYV7nc1zNW8O+9O7FRgx7VK7Hs/C6mbPmJIaGjqH2NyxpMVXowpIrj3+rlYkM0UxQj5Ss+RP+KD9Gv+RAeWPIgb8SeYdrhLbxXvTP/xMJuTw8Txd5706B9V0ZVM9m3fTDd9+7BrIBOF4BJ75h0sdgSKXw4qlR6le2vvKo90zeQsdILLH66GcuOrmH7pYNEJkVxMnkzEcc2E3H8N97uu4qxVX1KTygfrfVQ1m5kGwshhHCPjLh3EPWqgXdfNnIelRYtVHbv1vPhy148FJF1XTctA0BRb+zZM8BYJZu+ozPp63yfnapjxgv+jF3lwfRFesbeU9rdy4qnJhwnYmwkaRio3MSXSwcv8cfYndSb34oqherBULk6LUZUp4XzvT01ns1jfuH3DYnsXHKRruG1NP99e3YaibbEa/7/P/osbC0Hhxpikyyp2FU1d4VFapbjUWd+nr5uDyqq/RARx/YC8FDDHoSVdCmCS7HVHNfrp8awP/EkaeUep7Z/deobIomKjeVCNoQEVMNPUVDVsonVRksezrP57z84qeqpE/YUD5nyT345zmXqFJ0bKzmMeBqATEi1pAGm3P9JMzv6tNHD0402rkGYCciys+rgD+ypNopmPlbOn/qB2dc4gHW1P6hqMgf2vsKQbUs5p/rSpP4kZj7ci1qGwvGeeOkBMknIysDYYDw7Rjj+Z2+WYwm1Ue/lLJuWWO1cL5uZnTs/IcIGnpVfZELnShhmPs3iK1/y2bEBTGtY3s0cuJhP9RQrtv3KYbtC/Xqv0buSY2JT0dfkoRqNIHYX5rQ4EoGKGPF0drgUS8EnBSTGLmflpWTwa0m/sDpomx7N65OPdzrG5Ho3aHI1ezuz9u/BTDl6t13DpPAwfHUKqprAvEVhjI65MX/mRjMGtKTv/S3zfjfNJ5ixogtjLx5g+tG/GVv1wYIfKG0cKrN60NIfyqiNhRBCuOWWvweBcI2qwvLxPsyNhoCOmUyfn8EzoZC+3ZuXp3hguc7rI6lkpxZAoo4Dp69vqkBVYdXHPowa5cP/LVNy73Ku87NTy3EpO2npCrYijzEs+TGHjrTT2PevtRy6rGBo24anf25PeEUV2+7tLPgxPvdvqWoKBz5byuxXlvLbisTcv6X4BVKhsuNcmDXDWvRaaxfc03Y3iS8nXvP1XX2Ndzq/DuV8K6FXgeS/2ZOSjtlqxmw1YylmkkJLbPKpKUyNvYrFbuFq7FQmn4gHoElwWJElrq4+5tAWvZT5KQAdGVAvtMRyuRZbmWqBRshM5HDaGULKh2FSahJWLppzsWeJA+oGhpZxbL56MO9i4sIW1Pq2IV3WrCh653VN6Ro5d/pt3tz2Ks//+R27UrKw27OIvTCJLyKjQdXTrmrTvOuPXc5DLcIrOe4Cvnr/RNYlpmOzW4iPmcrkE3Gg6mhduaHmZcyKUp5uzZ4jRIXk2A/pND2EKt9W554/L1G3SvGfcaWNVTWOP9Z0p9vWpVwwtmRYu5Us61zc5ICjbE2rOG6euGzvFwXK9tXRKFD1tK3S2Fk2LbHaudrX1aTZfHL4BKh38cIDgwn1fpTX7mkOSiKLtn/Lbuv1TjbayDAnkZiZWPCVezNcH+Iv/ofP933GG5u+Y0dKBtmqjdSE1cw4th+AqsG1KQcoiomGleoDsD9yMhFXkrCqVhIvL+GD34cwZtMYZl/V4am5zu6icUXHdWprDk5hT2oWdruF1JS9zNs8nvF/jmfaeXduJmjH0f1Vsu12slVQbYmcPj2b5Ym33rkTVY1j1aZRjFoxiv+LPJf3u2kMoZav4/46aZaMIr+bpY/rZVMP2vpDWbWxEEIId9x6v4LCLXERPryxUAE/GxO+MFO9nMK//mPhzwFG/vrYl+87pPJyo+v4A3dZ6dPSm4O79LzTIohPTapzSamViQfS6e6nZadPpW5lHav+oyd5gYElzW00rQYZFzzYvEcB7DzZw4q+8I5kzmMOwfGYwzetdC10rJ20bDVLf8tA9anGY580o7xJR49PG3Di2Uhi/rOKDW2f5JFGBsCPypXS+PXbGCwRURyYUpmQqnqsF+M5dzADFR+adq2eewAQP2MO33yZc6pTJTsFIJmNj09kiw6gJr3/6kVz/1vrngWe1R6lt+dcfs2axzM/zcvd3u+Ri0xt4Ot27D01KhDxax3eV4xYVOfBhLEfIxvWKJqJnMccKjgec9i6LV0LrUdWVQs7js/nnALeNQbQ5VqXV2uIVRQj1QLDIPsMuy+dI7xeGGCiVrkAFsbtJRZPmgdWKtPYAmKW8mXMKdIU2Bk5h80PdmVgvrxry0Nl+rf7mIhf32JjzL/oPOMDjDodFtWx6sa3/Ju8e3cxd+8vNQ/edHzwK/pcGMKSq9/Qd9a3BdL1NL3CuMbFPxWgNIFhE1j2aHk+2DGb9alZVAruwgttXsdv1xKWFIp1vT+cZtPpQ6QroLcdZ8n23izeViik+pcc6NYLf8WLDq3/Q+9zzxJx9Wv6zppUpM7GN6rirAfXYwF2b2pB74Oxznc2HFd5bWXcrFDeBfAcyq/DP6SVorhcNlVN4vdtX7BFBb/qYxkZ6oWiKDS45y2ePNifOWnf89GBp4lofpf7q7uUCEb8GFF0e9hs4rt2xaBUZVD7D1my8D22x37IYzMm4KnTY875znv3YsK9D2BwjpNN7v2cESd6MCVtDkN/mYMx3/jgGzyWT5pqv2WiovjwyINf0P388yyP+RedfvwAT50Oc05bBL7EgtYl3bXxGjya0emuysyJimPZ1vtYts0bbzWTTJ+XGVfdn9XHr70KrDRRe3rTcecB5zsrGVaA43zxaxiTFIBOTBz2A901nSivSF2/WFbt20jy6eUs2Xs/Tf18yEjdx+arMUAoT9a7r8jvZqnjehnWg6v9oczaWAghhFtkBcEdwB5tYOxYI5dR6TghncHOYzRTpwy+eNIOZg8+edmLg8U+v9w1isHOyB/TeH+gjfpVVDISFRKdL5vGZBVFIWxoGiumZzHgQTucNbA8wsDeSxDe1cLnv6UyoX0xiZbymEN7zAEWvRdFFh7c9W5nWlV37Cj5Pvwwvfv7oNiusP7N7Zw3qyiKjorP9GHEpBY0bukH5+M4seoC0fFGKna8m8fmDabPQ3mPHbPbrFjTbM5XNnadgqIDe4ZjmyXFyvUu0igLim83Puv1Dc9XuZsQj5LnA7XEpvgNZnKn0bT1D8JPV4H6VUYzve9XdCvu4lFXHnNo3cLiEzGg+tKr/iOYSjrLqCE2NLA2KOv4M6Yy9csFoyge1CrXiD2xfxJPHaoHeJR5bK6qvXm9am0CParQssGTtPUuGqIlXa+KzzN74AI+rNOR5v6VMCpeVAloy5MtFrKt/5vcU9xlRS7kQRfQk+8HrearRo8S7hOIB55U9GvFwHtns3XgO7T0dPPmoYo3teqN4+chR7g45jR7B01mWDU9KVmO//fU5Zs10tIfnGz2ZBKsiSTaCr+suTdZ0wX04ocnVvJ5g07c7e2PB565dbalUJ1pic3OziTdnu58mbErgGLHnLPNasu7iZ2LZbPGTeHjU/GgNuTlVn2olBPn9TCv3NsGPRY27/6CNVmu1b+7vCqOYv6gBfxf3c60DKyCl2Kgou999An/ng2Dp9AnKG83QvFuw4SBG/ju7l7c6xOMQfGjRuBDDGz+E2v7jKW5m33HI7Af0wYt5/P6jrbQKYHcFdiewc2n83v/92ldwr0mrkVRgunecT7fNOpME+9y+Okr0rjG68zuM45W13nqxJ6dka//pWF29ofMbOc2a5Ybv5s6wprNZEWncQyoVBNSd7D87Fr2ZvoSHvoCn/dcwYRaRQ+iSxvXy7IetPSHsmhjIYQQ7lGSkpI0H9as23eO9fvO8fHQtpo+d/bsWQDCw4s+Vz1HUlLSNf9PCHHzqKqVlSsr8tRpqBG+lv3t7r1haSdHvkCjNQtINw5h0bCveLiEe2ZoiRW3LtWewYXTE3hi1Q8cVSswstdhPqnpmPW7k9v4Ti6bEEIIIW5/comBEOKmUtVEVkcuJV2BqnX60KaE26FriRW3HvX8R9yzfAYpQLY9lRS7YwlxcNV3GF7d0Zh3chvfyWUTQgghxJ1BJgiEEDeVopgY0CeOATc4VtyCVDMpOc+SVwKoGnAvjzZ+iVeatqWa85F9d3Ib38llE0IIIcSdQSYIhBAuURQD3bol4v4tq8T/OqXGBKJemXCzsyGEEEIIIa5BblIohBBCCCGEEEIImSAQQgghhBBCCCGETBAIIYQQQgghhBACmSAQQgghhBBCCCEEMkEghBBCCCGEEEIIZIJACCGEEEIIIYQQyASBEEIIIYQQQgghkAkCIYQQQgghhBBCIBMEQgghhBBCCCGEQCYIhBBCCCGEEEIIgUwQCCGEEEIIIYQQApkgEEIIIYQQQgghBDJBIIQQQgghhBBCCGSCQAghhBBCCCGEEMgEgRBCCCGEEEIIIZAJAiGEEKVQ1fNMnWvC9LWJh7YduWGxQoj/LTI+aCd1JoT4p+lvdgaEEELc4q4uY148QAsG1W9442KFEP9bZHzQTupMCPEPkxUEwmVJf/zOl/d+zQft5rPlWPbNzk4RqgrLng/CZArigS9uj66tHvSihSkIk8mHFWb1ZmfHZTE/+WEyBWHqaSRGLT3fl1b70LFxIA1a+TIz8tYsp6qms2Sp4yzNA1sPoqqJzFvseN9h+/F8cWaWLcuLc1XM3scxfW3CNH96qXWmJbasqaqdg5Fz2a+ArvIAupe7MbFCm0sn3qbjlLo0mDGYmfHWm5KH1PgIPljSkebfVXX0z69NmCIWknKT++jtbN/mFo56XLEC6x1ej//0+ODuWH0ruVadqaqVFSscZWu6cc/NzaQQ4o4jKwiEy1SzlcxUC2bVgsV2Z+/IiBsr2wxJyQqJdoXMm3NsI9xl/5uIyEhQ9XRp0I2qinJjYoUm2bZUkqyJJJJCZvY/P/6q5s1MWDqUaZkAvgTqTY4zDHoD0srCJTI+aCd1JoS4CWSCQLjM1L0H73a/2bkQt6OqPTPY0zPD+e5W3cHRoXNmTVF0gELOvpiH7vZYkVIWrBeWsCAD8OhGvzoVb1is0KZqw2/Z0/Dbm5eB+I2syACUjnz1zByeDfK8eXkRtyUZH7STOhNC3Az/u3u9dxDVcok/en7JWzW+4MNXjpLmXKaommNZ+egXju2vHyc9Z7tqJnbVZuYMnMZHzb7irdD/8G6LqXz9wjp2HsoomHbKIaaHfs5bNb7IfY0Nncqao9c+g6VadMwa6k9YzQB6fqQnsZhlk6oKx5d7Mbq3P/c2CKSCKYhaTQJ47DlvFhwommZ2oo7FH/vQpUUg1aoF0qydHyM/M3A0sfh8eHgoHJzjQ48WgdSsF0CXYV6su1g0zhytZ+qbvrRtHEjVqoE0au3H61P1xFjy0lVjjPQ0BWEaamTz1340qR3AE9N0pB818lSLQBo85MOsQvcNSj1pYNLrvnS8L5AaNQO5v5MfY740cOQa+XWVJdaDGeN9aR8eSLWqgTR8wI8xEw2cTiuarpY6cyW/6nFP2pocl3A0etU5t7jZh0blTI7LDUxBtPjUIy8+xcAzzu15rwD+e6T4OnClbPkvIxk8T+HALB+63htIjXoBdHmu+DZ2laJ4E+QTAECwZwDgTzkvo+O9V0Cxn/FQsji4/1V6TK9Nze/vo8tvX7Au2ZKX38vf0HaiYxloo63rHRsvvUmjb8rlLtFusXmf9th8y0sf232CU0ffpd+MBoROqssDC99l8eW0YvOr2o4za+kDhE1uQs+Nm4r9bhaIVzPZeHQBcQoE3tWXTt7uxW5b1wDTxHZ8e8Xx96J2PYppYjXeOm0DICPyeUxfm3j2cFKZxWqlqmkcj/yK0fMf4t4fQqkwsTK1prbisd8msCA2MV+ctrZQz4yn2kQTpjnfcTJhFR8ubkfjyTVpPLMHL+7YQly+1Vlq1hKecfaJ3NfEB/jvpYLtln8p9eAD5zjw98t0nV6bGsX0yZy2OnPi3zzzU2NCJ9WmxbwxzIxJYvXKnHKcKVohljSuAujrUDfQWHydaSgbQOqV1UxaPZCOPzakxuSG3D+7L2O2/caRjLxL2NSUn+g50YRp6Rw2b+9Lk+/CeWLPEdIvzeSp6bVp8NNwZl0q+LtlTt7G1DX9aDulJlUn1aDRzD68vnsrMfn+vjt9x5KygxlrB9F+ai2qTQql4cwejNn+O6cLXR6mtR6K1KOaxd5NbRztPW0829y8/Kws8utW36H0scTV71uO7MwjLN40jC7T61JtUm2azerJyC1LOZpR/OWPpY3VOVzpO+70SVf6utY6y6FXbC79BrhSNi351T7uaGtjIcTNIysI7gCKsRId/vMAkV23EL14HUs7V2dwFy8u/PA7mw+rqCEN6PteXXydp0PT165hyohjZOiMlLsvhLotVNKOxhKzci+LN10kc/lTtKvtnDtSdBgCDBgAUMlOsVHq3QdOGpkS4UECsPlLI9vftNK10MmmhDU+9HnaSIxOpUEbG91awaVDenYu8WTHnx6k/JnK8DqO/KopHnzQ1Z9vIx2fNXrCmQN6zhzQ89ufHixbnMm9AQXPSged9GT4BCNnjWCxKOxc7EX/E7D+z0zCjY7Y7IsGhnfwZfnlvHRjjuqZ8ZYfy7ems/EnC1V1+dJNNfD9Z3qiM+HCR15M6GVg9VkFm83I2I9tPPaLmQqKgiXSk6e6ebMpIS/d43v0HN+jJ2KtBysXZxLuq/0suj3GwIiHfVka50zXCLGReuZ8qGfxUj1LV2TQ0k97nZVVflHAy6Ricr7NSFQw34Cy5cje7c1zM41cyGnjJV70Pwkb/sykibON921uQYd9p66ZxSc6x/Fd/bzOWcGnOnCYCt4mFMWD8r6hoJ6hkm/xF8sGJcxk+O75nNXpsahX2Xn2E/pH2Fj/5DjC9f/QSomE6YzePo39ihGLaiEydjLDFsVhfHoa3Qu329VVTDkbSYICm/fPZXvrtnQ1lJC2eR2LohJADabC7kgUAAAgAElEQVR/gw65Y4jW2GqBtYF9RKeqqMF2ziQcRq+YOZYYA1QnNvU8qBWpERBItayyidVcrSffps+aOcQo5WhQqR3dvLO5dPkvdp75ih0X/iJl4HKGly80x66lLTjD9NXvM/WKDr3dgi1lC7/s3MYx+2Z+f6AhBkUBRY+XweT8DlnJsKZd8zuUIzvma547/jMXCvTJbDY8+RZNnH0y5fS/6L5qOtEKoOo5f3kury3zYliVgmmptjW8MmUkywHUDCwKYJ3BwO/mk9ttqn/JgW698C/QN0ovmyV+Gk8tGssmK6DqMOp0HE9Yx/GEdUScfYeV/V7PHasBsKzg+72biM62ceGvH5hw6XdWp1/FxiLGbunAY48PpIKikJ28kOFzR7DckpduTMoGZmzfwPIL37Ox1wCq6hRNfRLAnrKEEXOfY6k5L93YlC3M2b2FxSdfY+nAd2np6UYbF8N6eSrj9h8GNYQh7d+kdZF0S1dW+XW17xRRylii5fumZm3ng/nd+TbFDoBRMXImaTNn/t7Mb2ffYFm/8dzrVWifwIWx2tW+k8vFPqm5r7tYZzl8U2czev/cEscdLWVzJ7+ujDtujalCiJvitvgmWq2uXbTsapw78bd6Hjxqt2TguKroyeTge+s5sPMvfv36Cip+tPj8YRoFOQ8c1WzOrD1Fpk4haNTjvLGgP89NGchLG4fy9Nvh3DegMraY9Nx0Ff9GPHPkVT468ioTDvehefEnUguqY2FYTzumADsPvmLh/kInm1RVZe9qIzFAvdfS2BSRxswZ6az8K5kFH5p58elsLNF5Pz6Hpvg4DnRrW5ixM4mLsYmc2ZXO0AaQuceLd2Z7UNjWjQqjtiZxMSaJ/b9YqA/YD3kyf0dOHmD1pz4svwy+D2Sx7GASMTGJnNyUQa8QuLzch49WFfox3qHyRGQSq1+zQ4qRq+2Tid6Qxd2A5aAH551lO7xOj6Wejc5j0tl2LInomERObsikSzlI3+nFN39o39lTVVj7mQ9L48CzhZlF+5OIjk3i+PpMHqsAmQc8+XRh3tfZ1TrTlN86WfwZl0RcXBL7vnCcZaNNJvuc2+Liktj2hi03D4q/lSlRyURFJXP6dDpDTRRLa9lyrPldYUwxbTxvR16MzsMPk950zZe3R8G2aNR6C4kvJ/JjI38Amj20h8RXrvJ1neKPordGpzPqiSguvniO/V2GU18Fe9J3zL/g2HEleCR/jo4jblQc+1q3d2yr+Bn7Rjm2xY2KY1vrcO2x+ew4fZZe/U5y4cULnOz/GY8aActivjtSzJm84M4Mq1Efk0cID4YP4P5SpogTTi1imQ3wGUCvGl5ux1YJqImedM6nJADRnLqq0imkDYeTzmJXVeJSooB61Agsu1gtVNXK3lMRxChQr+lCNg34mZk957Jy6DYWtHyRFxs0w5JyucjnNLXFlXmcqLGSE6NiiB6+kU9CgkGxs3f/HHY5T+gpnj2YMjqKqNFRnB41n6ElTeY4rTl3hTFF+uT3zHP2SVW9wop9jgO8gErvsua5i8SOPs+e9gZ2nitcEVYyrYkk2hJJzHZOTShm0mzObbZEEm1Wipx/LKVsqmrjcNR6LEGt6Nx4OtuGnSf6xWhO9v83XQyQfvkzvjmZXDDNS348Mewiq5vWA9tirt61m+iB73K3CparJ5zjbzqrt7zJcgv4VniDZUMuEPNiNCf7/5de3nD5/Dg+OuFYEaCl76hqBmu3vMFSM3gGv8SiZxz5Pd7vMx4zQmbiRD49XMzyJRfauDDVfpZZ6z9nD1Dhro8YHxZUeqMXTqOM8qup7xRS0vig9ft2aM8bjskB3yeZMegMF8dEc2bwLIb668lM+A/v7D9d5O+XNlZr6Tu5XOqTbvR1F+osv4PnL5c47mgpm7v5LX3ccW9MFULcHLf8BIHFYmHLli1YLEWXgrkT50787ZAHRfGg4tOP0rmNHi4d59dndxGfrRA0tAvd2ngXiDP6OA4OM/ZHcepUKhkWO4pHII1GdebxDzrTsa2/S/m/FsVoZ+hPKUSdS2H5+zaCC816K4qCj69j7yjubwM7TiqkWFQUD+j4UiYTJmQyup0jVlXhyD5Hfps+mUXvumBQFILqWHlvWjpTpqTzXCMVc6Gl0pX7mnmmERg8oPqjmQy+F0Dh1PmcvOg48rfj34+NyKJNKHjoFMo3sTBqgB1Q+GNHoaOn6nbCAlTqNbIBdhrWUTGEZBMKYAWrs2zNXkxn1ao05v+flYaVQK9TCA43072lI5noOHfOLOs4uNvxuS7DM3m4Buh1UPEeM6MHOsq+9YCebFXVVGda8qvoFIye4OkJxpyqUVSMRhXPnO2Gsi1bfoXbeFBzKNjGEN56A1HOA6ziXl/WKX6ptKsq1xnBM5VMGHQ+VK87gsHBgJLGqSTHjo6iM2A0eOJp8MSY8z1QdBj1RjxztnvoNMfmF1h7JM9XCcaoM1K+yvOMrlsZgEMJZ4rUmaJvyNDeO4h68TDL23co8t3MT1UvsfLoSswKhNXrw31F5+FcjjUE1iQMOJMWC2oUJxPLU80/gIQrp4knlejUy6C7i+p+ZRerhaIY8DH6ABAXt4EdVy6RYrOj6KrQ8YEJTHh4AqNrVSryOS1tgdKd51u2oILeA6NvOCNaDMSkAtZTnMsokrTLCvbJ5xkUDCgpuX0SznEqAVB1dG06mpb+nug8fKlV9wVH/82fRUM3pr6SSOLLiSR0G45RBfQjWfFSAokvO7Yn9u5PQOF+VErZFEVPs/vnsWrQKuY//DgN/XzR64wEV+5H9wqAYiM67UrBNP3qEeZlpF6FhkBNGgYHYQgIdYy/dhuO6fOzHIlPAeCxe16hTZAPHjoj5asMYVTd6qAk88dFx/Vg2vrOGQ7GO5ZAd2n6Cg+bHPmtWNXZxoqdrXFHb0gbxx7+Fx/HpYNHF/6vXQ8quHVTurLKr+t9J7/Sxgct3zdVTeRInGNpXNOGo+ldIQiDoieofA/e6/oLUzpM4bmKFN0nKGWs1tJ3crnQJ93q6y7UWX6ljzuul83d/JY27rg7pgohbo5b/hIDo9FImzZtMBhKPnXiapw78bdLHhR9MG3+3ZbDHdZzPiMbtdrd9HvzLrwL7WDUGtiSkPlbiN6+i5kdd6EqOnxrVyT0vpo0fbI5Tet7oyvjO+W2HJzFgz97s3W9Fz3v8wK9Skj9bFq2stFrSBZdG6h4OPNgdp64CvAt+IMf1MhK/0a5pSf//oApwJ4vUsXPufLBYlYAFVCwZDq2/fpMEL8Wk8erae7VgWqFPQu9mTxbz9/HPLhQaLLdvSdZKZidO5T+/o785/Bzvrdlgg0w4nqdlV1+tdBWthyF29jfeZY4r43Lnskz/2SaH37ODFqyXZskvBGCjP653xUAf08TEEe6JR0bUMJ+ZcmSljEvxgY0YFD9ewr8Dc2xAaGEAeuSY7GnnOeorQ5PhlYnOOo0Z4gjJhkIqEk1XRnGatTy7td48NjbbI37mJ5zPwZ8CQloTsuq7ejVdAhdKwYVKaemttCbCMj3C6yU78vE9o1IpxxNXfsJKVbBPumPf5E+mYXZBqDHz5D/2i8ffK/j7xbgQtnU7Hj2HPqOyYfX8nfyKS7YCl2v7NYftmBxLmL69Y9q/PpH0YirZucKOU19x4LZuYDP31hwtsnP2ca2bPP1tfHpp6j4Tc4bTx66/yP6Bbj7O1xW+XWz77gwlrj+fbNgdl7nGOA84MwRVOkR+uc7xiywT1DqWK2h72jkVl/XMP6WNu4YNZbNnfyWPu64N6YKIW6OW36CAHD5gNvVOHfib5c8ZJ6K5aoZx9qQy/FEx9mpU7vgIYKhQStGbgph/28nOfV3PJfOJpFwKpbjJ+M4Nu84sRFP0zX8+s6slsbY0MziXTaWLTGyfa8HkVE6Th7TE3FYT8QsA2+vTmXsPWWahVyefio+xVVtySuqi6WqsO+//nT/1AMzoPNWMTmX1ltSFdJtJX78H3e75VerA9va03v/tde+9n7k2HWvIrhTnYhcwF8KUG4QPSuWvNNWaqxXNWp6gjk1hksJpzjk3ZDaIbVobF7BmfRYolOB0FBCyjJWI2OlF1j8dDOWHV3D9ksHiUyK4mTyZiKObSbi+G+83XcVY6v6lJ6QixTfpvQIb3rD0rs2Lzz1gNVGmtVM3kCXQUYZfd8Ll01VM9m3fTDd9+7BrIBOF4BJ7wuAxZaIe4dhBXl6mPAprtsanLs9Zdh3rqXENlZ8MXkYsWQnkq5aSclKI5vrmOC7AYq2m3t9x5Wx5J/+vpWk1L6jgbt9Xcv4q0VpZSvL7+at1MZCiJLdFhMEwjVqwnEixkaShoHKTXy5dPASf4zdSb35rahS6IYyhsrVaTGiOi2c7+2p8Wwe8wu/b0hk55KLdA2vVeb5NVbJpu/oTPo632en6pjxgj9jV3kwfZGesfc49jg8nScqUtILnhlOPGBg5SEFKtvo93A2Rk2Pz1PxdP4OPf5DMpO7XndxHKwGZn3jgRmV3t+kMGmwHV+dY3XDvEFBjF7tbsJ5+U1NLVjONOd7o3feF9rlOrMa3cvvDZ3k11Y2LezZaSTarn135H/0efJazoxoiE2ypGJX1dxVP6lZVwHw8/R1e4BX7YeIOLYXgIca9iCspEsRXIqt5rgPQGoM+xNPklbucWr7V6e+IZKo2FguZENIQDX8FAVVLZtYdxgDWtL3/pZ5Y5T5BDNWdGHsxQNMP/o3Y6s+WCC+LNrixqtBmAnIsrPq4A/sqTaKZj5Wzp/6gdn/1CXA2duZtX8PZsrRu+0aJoWHOcedBOYtCmN0jLsJG/E0AJnweKdjTK5X0uSfln6Wl26qJQ3Iu6FKmtkxvhg9PK+vjWv9wPGuXUk4OowH1i5h39/jmNlgGSOC3VnWUVb51d53tIwlrn3fjHg6Z01SLAWv00iMXc7KS8ng15J+YXXQNvWrpe9o4EZf11Jn4Mq4o6FsZfbddNA6pgohbo5b/h4EwjWqmsa+f63l0GUFQ9s2PP1ze8Irqth2b2fBj/FYcx9xmMKBz5Yy+5Wl/LYiEZtzu+IXSIXKjh0Ra4a16LWJWvJSymMOVRVWfezDqFE+/N8yJTdvOj87tRyXzpGWrmBTVRQFGoY7lpLvn+tFxEmwqiqJxw188IIvY8b4MPuEiqfmAwA7jZs7/u6a2Z7suQR2u0pqjAfz/u3N+PHeTNtRShLXStl5JiU7WyHbDqoFTq/3YvmRkj6lkJGkkJhIwVfudL2d8JaO/K6e5s26c2CzQ/w+TybPd5S9dVMbHoqiuc7cyW+58nbHjscpPXtiFMxmx2UNllIe33WNGnO5bFrd03Z33rXSxbzyP8GgrJXzrYReBZL/Zk9KOmarGbPVjKWYSQotscmnpjA19ioWu4WrsVOZfCIegCbBYUXqzNXHHNqilzI/BaAjA+qFllgu12IrUy3QCJmJHE47Q0j5MExKTcLKRXMu9ixxQN3A0DKOzVcP5l1MXNiCWt82pMuaFcTYC49RcazaNIpRK0bxf5Hn8sYoYwi1fB33dEmzZOSOnzm0tMXNoijl6dbsOUJUSI79kE7TQ6jybXXu+fMSdUu7E/0NY8dR5SrZdjvZKqi2RE6fns3yxOs5zL6LxhUd1xqtOTiFPalZ2O0WUlP2Mm/zeMb/OZ5p53OuodLSd2oRXsnxJJPV+yeyLjEdm91CfMxUJp+IA1VH68oNb0gbV2zwPu9V9QX1Lz5aN48L9qLf0dL6b1nl152+48r4oOX7pigmGlaqD8D+yMlEXEnCqlpJvLyED34fwphNY5h9VefGPoGWvqOF9r6uZfwFV8YdLWUrm++mu2OqEOLmuHVOaojrkrRsNUt/y0D1qcZjnzSjvElHj08bcOLZSGL+s4oNbZ/kkUYGwI/KldL49dsYLBFRHJhSmZCqeqwX4zl3MAMVH5p2rZ674xA/Yw7ffJlzakAlOwUgmY2PT2SLDqAmvf/qRXP/fD/GpT7mUKVuZR2r/qMneYGBJc1tNK0GGRc82LxHAew82cOK3pmHJiMyGLHEjyknjAxtacToCRbnNfa+LbP45CnHTQW1UBR45K0Muq/xZfkabzrV98bTM+/afd8mZhaMLXg9vEsMVjr1VJmzUGHZqwEsewu8bZBZw8y4R1RW/3it9AyMqF/M3aqfSCd+sgWDotDxrQz6/OHLkt2e9G3qidEIOfes9Aw3M65fXj24XGdu5tfzfiu9Kxr5NcbIM43zzkb0m5XE1B6Of0dN86Pjp3kLZDMSAXR88VgQkzwArEw8kE4Pf21lu115VnuU3p5z+TVrHs/8NC93e79HLjK1ga/bsffUqEDEr3V43/mIKwCM/RjZsEbRTLjwmENVtbDj+HzOKeBdYwBdfIsmozVWUYxUCwyD7DPsvnSO8HphgIla5QJYGLeXWDxpHlipTGMLiFnKlzGnSFNgZ+QcNj/YlYEF8l6Run6xrNq3keTTy1my936a+vmQkbqPzVdjgFCerHcfeqXgvU80tYULovb0puPOA853VjKsAMf54tcwJikAnZg47Ae6azzZGRg2gWWPlueDHbNZn5pFpeAuvNDmdfx2LWGJWznVyKMZne6qzJyoOJZtvY9l27zxVjPJ9HmZcdX9WX3cvWeiK4oPjzz4Bd3PP8/ymH/R6ccP8NTpMKuOWVDfwJdY0DrAGauln3nT8cGv6HNhCEuufkPfWd9i1OmwONP1NL3CuMbVrr9eAEVXncHt32bevHfZFfMhH0R25sdGhfpwKf23LPOrpe+4Ppa4/n0DaHLv54w40YMpaXMY+sscjPm+b77BY/mkaZjmcmnpO5po7Otaxt8crWpVL3Hc0VS2Mvpuam1jIcTNJSsI7gD2mAMsei+KLDy4693OtKruGGB9H36Y3v19UGxXWP/mds6bVRRFR8Vn+jBiUgsat/SD83GcWHWB6HgjFTvezWPzBtPnobyL7+02K9Y0m/OVjV2noOjAnuHYZkmxFr2JXSmPOVQUhbChaayYnsWAB+1w1sDyCAN7L0F4Vwuf/5bKhPZ5iSpBNiasTOW7l63cW0vFoFep0cTGwPHprJ2fWXByQgOPalambUjj8+FW7g5R0elV7mpiY/D4dH5fmkHrIO3pKgp0/3cq34y00qS6ip+/ncY9zMxemEmr61yxqKti5fv1qXw10kp4qIqHolKxno2B76azdXkGLf3y8utqnbmbXyXYymcLM3i+YzYh19hnslsVEhPzXjnPb89MyduWs+BAS9luV4pvNz7r9Q3PV7mbEI+S52a1xKb4DWZyp9G09Q/CT1eB+lVGM73vV3Qr7kJTVx5zaN3C4hMxoPrSq/4jmEraYdMQGxpYG5R1/BlTmfrlglEUD2qVa8Se2D+Jpw7VAzzKPDZX1d68XrU2gR5VaNngSdp6F/xvRdER1mwmKzqNY0ClmpC6g+Vn17I305fw0Bf4vOcKJtQq2vE1tYUL7NkZ+R4nmIZZARQ7mdnObdYs3Fm0oyje1Ko3jp+HHOHimNPsHTSZYdX0pGQ5/t9Td6PuVnitvx9M947z+aZRZ5p4l8NPX5HGNV5ndp9xtLrO0xYegf2YNmg5n9fvxN3e/uiUQO4KbM/g5tP5vf/7tPbOawstfUcX0JPvB63mq0aPEu4TiAeeVPRrxcB7Z7N14Du09LxxY5S+/DA+CW8MSgJLtn3E2sxCjVxK/y3L/GrqOy6OD1q/b4p3GyYM3MB3d/fiXp9gDIofNQIfYmDzn1jbZyzN3Syblr7jKs19Xcv4myN4WKnjjqtlK6vvprtjqhDi5lCSkpI0716s23eO9fvO8fHQtpo+d/bsWQDCw4s+yztHUlLSNf9PCCGE45nSK1dW5KnTUCN8Lfvb3XvD0k6OfIFGaxaQbhzComFf8bDx2juoWmLvVGXZFv8U1Z7BhdMTeGLVDxxVKzCy12E+qSk37xSlK6nvyPigndSZEOJWIJcYCCGEABzPGF8duZR0BarW6UObEk4ka4kVtx71/Efcs3wGKUC2PZUU581Igqu+w/Dq0pji2lzpOzI+aCd1JoS4VcgEgRBCCAAUxcSAPnEMuMGx4hakmkmxJpKoAEoAVQPu5dHGL/FK07ZU08lZS1ECF/qOjA/aSZ0JIW4VcomBEEIIIYQQQggh5CaFQgghhBBCCCGEkAkCIYQQQgghhBBCIBMEQgghhBBCCCGEQCYIhBBCCCGEEEIIgUwQCCGEEEIIIYQQApkgEEIIIYQQQgghBKC/2RkQQgghhBBCCC2CgoJudhaEuCPJCgIhhBBCCCGEEELIBIEQQgghhBBCCCFkgkAIIYQQQgghhBDIBIEQQgghhBBCCCGQCQIhhBBCCCGEEEIgEwRCCCGEEEIIIYRAJgiEEEIIIYQQQgiBTBAIIYQQQgghhBACmSAQQgghhBBCCCEEMkEgRAGqep6pc02Yvjbx0LYjNyxWCPG/RcYH7aTOHKQehBBC3Ez6m50BIW4pV5cxLx6gBYPqN7xxsUKI/y0yPmgndeYg9SCEEOImkhUE/2NU1cyyZY4zEw9sPejy52L2Po7paxOm+dOJUdUbFnsrUVU7ByPnsl8BXeUBdC93Y2KFNpdOvE3HKXVpMGMwM+OtNyUPqfERfLCkI82/q+roy1+bMEUsJOU26s+3mn2bWzjqccUKrHd4Pf7T44O74/qt5Fp1pqpWVqxwlK3pxj03N5P/gNvpt+VWGKtL8r/Wd24VqnqFOQsd9f7Y7jP5tqezZGneOKWqicxb7HjfYfvxm5hjIURhsoJAiBz2v4mIjARVT5cG3aiqKDcmVmiSbUslyZpIIilkZv/zB5KqeTMTlg5lWiaAL4F6k2MmVW9AWlm4RMYH7aTOHG6jerjZY7UQQoiyIRMEQjhZLyxhQQbg0Y1+dSresFihTdWG37Kn4bc3LwPxG1mRASgd+eqZOTwb5Hnz8iJuSzI+aCd15nA71cNNH6vFbUaHzjnfpSg6QCFn/stDV3BB85XD69jq1ZyuYYEYbuFJMiHuVHKJwf8wDyWLg/tfpcf02tT8/j66/PYF65Ituf+vXv6GthMdy78abV3v2HjpTRp9Uy532XWLzfu0x+Zb9vfY7hOcOvou/WY0IHRSXR5Y+C6LL6cVyKeqpnE88itGz3+Ie38IpcLEytSa2orHfpvAgtjEYsum2o4za+kDhE1uQs+Nm0gsZUmzqmay8egC4hQIvKsvnbzdi922rgGmie349orj70XtehTTxGq8ddoGQEbk85i+NvHs4aQyi9XK1frV3G5nxlNtognTnO84mbCKDxe3o/HkmjSe2YMXd2whzpbXJmrWEp5x9p/c18QH+O+lgu2Wfyn14APnOPD3y3SdXpsaxfTfnLY6c+LfPPNTY0In1abFvDHMjEli9cqiyx9zWdK4CqCvQ91AY/F1pqFsAKlXVjNp9UA6/tiQGpMbcv/svozZ9htHMrLz0kz5iZ4TTZiWzmHz9r40+S6cJ/YcIf3STJ6aXpsGPw1n1qWMAumak7cxdU0/2k6pSdVJNWg0sw+v795KTL6/707fsaTsYMbaQbSfWotqk0JpOLMHY7b/zmlzofbQWA9F6lHNYu+mNo72njaebWb3zkKWRX7d6juUPpZoHc+yM4+weNMwukyvS7VJtWk2qycjtyzlaL6+k19p43oOV/qOO33Slb6utc5y6BVbqeOOq2XTkl/t44723yxX6kHGavfd6X2nJKotkq/nOC6Xa7xiBVed+0Oq9RCf/1wB09cmmqxck7ufpCUPqmoh5szXDJvdhNBJYTSbO4rp0ckUd0yvKN4E+QQAEOwZAPhTzsvxGxvsFVAg1nxhLc+OH0qHz39m6amkO/6yNCFuNbfFCgKr1YrBYLhhce7E34l5CEqYyfDd8zmr02NRr7Lz7Cf0j7Cx/slxhOv/oRnbhOmM3j6N/YoRi2ohMnYywxbFYXx6Gt19HXlIOPk2fdbMIUYpR4NK7ejmnc2ly3+x88xX7LjwFykDlzO8fKG5rqurmHI2kgQFNu+fy/bWbelaUpWY17EoKgHUYPo36IBvSTPWJcRWC6wN7CM6VUUNtnMm4TB6xcyxxBigOrGp50GtSI2AQKpllU2s5iZwp35daLc8Z5i++n2mXtGht1uwpWzhl53bOGbfzO8PNHScHVD0eBlMmACwkmFNw1xKvrNjvua54z9zoUD/zWbDk2/RxNl/U07/i+6rphOtAKqe85fn8toyL4ZVKZiWalvDK1NGshxAzcCiANYZDPxuPrndpvqXHOjWC/8CfaP0slnip/HUorFssgKqDqNOx/GEdRxPWEfE2XdY2e91wo350rSs4Pu9m4jOtnHhrx+YcOl3VqdfxcYixm7pwGOPD6SCopCdvJDhc0ew3JKXbkzKBmZs38DyC9+zsdcAquoUTX0SwJ6yhBFzn2OpOS/d2JQtzNm9hcUnX2PpwHdp6elGGxfDenkq4/YfBjWEIe3fpHWRdEtXVvl1te8UUcpYouX7pmZt54P53fk2xQ6AUTFyJmkzZ/7ezG9n32BZv/Hc61UwfVfGdVf7Ti4X+6Tmvu5ineXwTZ3N6P1zSxx3tJTNnfy6Mu64Nabe4L6T96E7a6x21x3fd0qg6BswsvP7/DF/HNtPjeVfJ+7j27qBHNr1Gl8k2MBnCP/t8AgmRXsesqI/5/HfvuSY4qgHy5UFjF3pxbOVis9LBZ/qwGEqeJtQFA/K+4aCeoZKvgVvtlG103i2+C9j4uKlPDv+Nxo278kbj/egW1iQrCgQ4h9wy68gsFgsbNmyBYul6BkQd+Lcib9T87A1Op1RT0Rx8cVz7O8ynPoq2JO+Y/4Fx84owSP5c3QccaPi2Ne6vWNbxc/YN8qxLW5UHNtah2uPzWfH6bP06neSCy9e4GT/z3jUCFgW890Rx9kCVbWy91QEMQrUa7qQTQN+ZmbPuawcuo0FLV/kxQbNsKRcLlq44M4Mq1Efk0cID4YP4P5SpsISTi1imQ3wGUCvGixXyjoAACAASURBVF5ux1YJqImedM6nJADRnLqq0imkDYeTzmJXVeJSooB61Agsu1gt3K3f0tqtgCvzOFFjJSdGxRA9fCOfhASDYmfv/jnscp4UUDx7MGV0FFGjozg9aj5DXZgzW3PuCmOK9N/vmefsv6p6hRX7HDucAZXeZc1zF4kdfZ497Q3sPFe4IqxkWhNJtCWSmO3c3VXMpNmc22yJJNqsFDmHUUrZVNXG4aj1WIJa0bnx/7N33+FRFP8Dx997d7lL7wmEUEMvQui9KCi9C1JUEAuI2BV77+WnYkVRhK8oKL13UAhFivTeA0kgkF4uV/f3xx1JjtQLRIqf1/PwkNud3Z2dnZ3dnZ2d+ZFND8USNyGOY0M/pIcHZF38iC+Ppbmu84Ivwx86x4roumCdS1KN7cQNe5XbVDAnHSUWR2dPKzY+z2Iz+IQ9x6LRZ4mfEMexoZ8zwAsuxr7Iu0cdLQLcyTuqms3qjc+xwASGkCeYM8oR3yNDPqKXHowpX/DB/nNlOsZXUu2nmb7uY3YAYTXe5eWagSUf9CvXUU7xdSvvXKG48sHd823fjucclQM+9zJ1xCnOPR7HqZHTGeOnw5j8Ka/sPlFg+yWV6+7knVylypNlyOulSLP89sZeLOF6Ufp9K2t8Sy53ynjNKiEdpKy+Ord63imJR+gYJrXtgg8J/Pbn2yw7O5lnd+7ASg3GdXuDrl6K23FQ1SxW/fMVhxUwhD7FggfOEf/YGbZ3tLPxdOHxaNh+IylPpvBTQz8AmnXeQcpTSUyq7ZqRFJ0/jTrcy5RPpxLzxGAanF/MmJcfpMvH05l/PEVaFAhRzm74CgK9Xk/Hjh3R6wtv6utuuLKEv1XjULH2WEZVCMJD403VOmMZGQIomRxPdRT+isYDvYcBg4cB/eUaW0WDXqfHcHm6VuN22PwCaj3KIxEh6DV6QiMe4bE6FQHYl3wKm6qiKB54670BOH9+PVsuXSDdakfRRNCt3Tu80/UdHosqWFWt6BowZuAWTk7Yz+Lb7yCkmBpnVb3A0oNLMSlQs+4gWmuLTrOSwnoEVKcmcCozAdSTHEsJpbKfP8mXTpBIBnEZF0FTg6q+5RfWHWVN35KOm+tG+vJIq5aE6bTofZowtuUwglTAcpwz2QVWXWqu+fcRRoQASnpu/oUzHE8GVA29ox+jlZ8BjdaHqDrjHHk9fxQ9+vDDUymkPJlCcp+H0auA7lGWPJFMypOO6SkDh+J/ZT4qYd8URUezNjNZNmIZs7oOpoGvDzqNnpCKQ+gbBihW4jIvua7Tty41PfXUDWsAVKdBSCAe/lWoAmC34ugr/DQHEtMB6NX0KToGeqPV6AmNGM34OlVBSWPVOcf46e7lnVPsTXQ0Ie0R/RRdgxzxDa/kPMaKnZjzB6/JMU7Y/zrvnc8CbQ/e7tKPsDK9FSqv+JY+7+RXUvngzvmmqikcOH8IgOgGjzEwLBAPRUdgaD9e6/0r39/xPQ+Gg+mKfSupXHcn7+QqRZ4sU14vRZrlV3K5U/p9K2t8Syp3ylqmXsu8416a5d/IjV9WA6iJ33DXN1FEFfrvBdYV8vB4K+ed0lAUD2o2/Yy3KvmC8TfGL/qEHSrUaTSJl2sEuIQrfRzOcTLZ8TKqR5Mn6BzghVbrS836T/JAaJmiWTDeWn8adhjJD59OJeaJu4lOXcNjLz/BJ8euzfqFEIW7KT4xKG0TfHea9rsb/laMQ5DBL98vX3yddQpmW+laQFwLgXo/tPkeDPwMQcB5ssxZWAEt0Oq2Z+hw+CVizr9H/9/eA3yI9G9Oq0pdGBA9mt7hgS7rcFvqImbGW4H6jKjXtPh1lRTWvwo1gbVpCdjTYzlorc29VaoScvIEpzhPfBrgX53KmnIM66aypG9pjlsuXRD++UoaJfRuvri9IVkEE+3e6eLCNf/64Vcg/+ZgsgLo8PXI39GgNz5XsV0Xpdg31ZbIjn3f8s3+1fyTdpyz1iu+OS3Ths2YHV0IMHtVZWavKhgiyZTl+MOtvGPG5BytzE/vWtvk6zzGVpvp6o7xifsI//LyDwOd27zLEP+ynr/lFd8y5p1SlCWlP9/MmJyfMvs7b9gvC6xwF0PzPSfkfx4quVx3I++4qUx53Y3yt6RyR+/mvpUlviWXO2W8Zl3TvFP6NLspy2rVTKYlhZTCsoqajb2Qybd03iklRVuD0Xe+w9IZT7Pelgk+j/JZxw5XfDbnThyyyXJG3bX89cO/dO/JSk/jQ6XIKtSJrEDw6XgsN96omkLcUm6KCgLx36avMI659zdj0cGVbL6wl0OpJzmWtoH5hzcw/8hCXrp7GRMreZe8oiIcPfQ7WxUgeAT9w4u/8JYY1rMy1Q1gyojnQvJx9nk1oFZkFI1MSziVlUBcBlClCpHlGdZN5Z2+V1J8ounXJPqara9onhh0gMVKpsUEXG6ym022tXy2eOW+qaqRXZtH0nfnDkwKaDT+BOl8ADBbUyjbY5grgzYI78KyrYezeC/HvFOUYo+x4kOQVo/ZlkKWaiE9JxMbVzyo/MsKHrey5Z3SlCX/9vlWnBLzjhvKmtfdKX/dUdK+lee5WZZjfCPmnRu1rFYqPM3mp54ut9jcbHnHHelJezlhAxTAuJ+DGVbaG1xrYW6kMkpVzVw8vpGp835n8s4E9NXaM+GJxxlV71/ZvBD/WVJBIErHnRprN8KmmjOwqyoa5zIZOUkA+Bp8XDKn3r8Vd7dpxd3O3zbTUaYu6cHEc3v48eA/TKzUofTxy0e172P+4Z0AdG7Qj5rFfYpQqrCVHf0AZMSzO+UYmcGDqeVXlXoehziZkMBZG0T6V8ZXUVDV8glbFu6mb2mP2/VVjZpBQI6dZXsns6PyeJp5W4g9PplfyvYZp/tsm5m+ewcmghnYaSVfNamJj0ZBVZOZOacmj8WXdcV6DB6AEQbfeZhv6hb3usadfJa33gxzJji7IgPINDma8uu1hqs7xlGTOdK7N8kHH6Ld6nns+udFfq6/iLEhZXlFWV7xdT/vuFOWlO5802Nw1pqkm13bd6ckLGbphTTwbcWQmrVx72WdO3nHDWXI6+6kGZSm3HFj38rt3HRwp0y99nknj5TVDrdq3nGHmrWSV9f+TCxBtAypwPakjby1agqdhz5KnSs6pi5dHHwcLZSMkG7KX/5mknGVb/hV1UzCwXVMmT+bKXsT8a7WgWeefplRraoRoJVOCoUobzd8HwTixhDsUwGdCqT9w470LEwWEyaLCbOtYEM6d8KmHf+eHxKSMNvNJCX8wDdHEwFoHFITraKgqudZ9td4xi8Zz9uHzuR2TKPRRxLl4xgDKtOcjfWKbw5LO8yhNW4Bs9IBunFP3SrFpkHpwlakcoAejCnszzxFZGhNgpTq1AyO40zCac4DdQKqlHPYfOlg2sYXf7Qk6usG9Fi5hHj7lUNRlS19SzpuNwJFCaVPsweJVCEt4S3u/DGSiK+r0nTNBepco56xS2bHkeQqNrsdmwqqNYUTJ35hccrV3J7XoFG447vRlXu/Z0dGDna7mYz0nczc8DIvr3mZKbGXO8lyJ+9E0aSCozfpFbu/YG1KFla7mcT4H/jm6HlQNbSv2OCaHOPw+m/wWiUfULfy7tqZnLUXPEdLyr/lFd+y5J3SlA/unG+KEkSDCo7XZLsPfcP8S6lYVAspF+fx5vLRPP7X4/ySpMHg9rFwJ++4w/287k75C6Upd9zZt/I5N8tSpl7rvONeml1//0ZZfavmHShNOQmqmsjidc/wWw74V3qdHwe9yygvyEp8mye3H8KcO8ShO3GoTFSI45OQlXsm8VeaEZstkxOHJzHtKit2Lqx9m2ZvfcOvaXV44Zmv2f7hRJ5oW10qB4T4l9w4Fcjihmao3JOBht+YnTOTUdNm5k4fctc5fqjvU+awTauFMX92bd5wDj0EgH4Ijzao5gwRTh3fBJbt+pO0E4uZt7MN0b7eZGfsYkNSPFCFe+u2RnfljU4phjlUVTNbjszijAJe1e6hh2vUyhRWUfRUDqgJtlNsv3CGJnVrAkFEBfvzx/mdJGCgeUCFcg3rIn4B/xd/nEwF/j40gw0dejPMJe6lT9/89yQlHzf3nNwxkG5/73H+spBtATjCJ7Nr8pUCcCdfPDSZvm6+7Ayo+Q6Leoby5pZfWJeRQ4WQHozr+Cy+2+Yxr0wxdZO2GXfWqMiMk+dZFNOaRZu88FKNGL2f5MWqfqw4UrZxrRXFm7s6fELf2EdYHP86d/70JgaNBpPqaI/rE/AEv7f3d4Z1J5950a3DZww6O5p5SV9y9/Sv0Ws0mJ3rNQQ9xYuNKl99ugCKpiojb3+JmTNfZVv8W7x5qDs/NbwiD5eQf8szvu7kndKXJe6VZ41bfMzYo/34PnMGY36dgT7f+eYTMpH3o2u6vV/u5B23uJnX3Sl/L2sbVbXYcsetfSunc9PdY1weeUfK6oJuxbyTq8TrPJw/+BLPnYgHXVfeufM+qnpref32UaxZOp2t25/iu6jFPFnB4GYcvLmr2ePUP/Eph5ImMeDnr9BrwGwYy6M14ejJMiYDoAQ05pVnHub+llWlUkCI60BaEIhSUXz68NGAL3kk4jYitcXXK7kTNt13JN/c+Rid/ALx1YRRL+Ixfrz7M/o4PwBUFA01m/3Mkjtf5J4K1SFjC4tPr2an0YcmVcbxcf8lvBNVyM1saYY5tGxk7tF4UH0YUC9vDOBCuRG2SkAtUNayJr4i9YJDUBQtUcEN2ZGwhkRqU9VfW+5hc1UayLOVahGgjaBV/Xvp5OU6u6zpW9Jxc5fdlp1vOMFMTAqg2DHanNMsOVjL0JufongRVfdF/jf6AOceP8HOEd/wUGUd6TmO+QbNteqtsKjth9C32yy+bNidxl7B+OrCaVTtWX4Z9CJtr7J6VhswhCkjFvNxvTu5zcsPjRJAjYDbGdn8R5YPfYP2XnnHwp28o/Hvz3cjVvBZw5408Q5Ai4Fw37YMa/ELMcNeoZXh2t2s6UIf4v0mjUBJZt6md1ltvOIgl5B/yzO+buWdUpYP7p5vildH3hm2nm9vG0AL7xA8FF+qBXRmWPNprB40keZl3Dd38k5puZ3X3Sl/Lwt5qMRyp7T7Vl7npttlajnlncukrHa6FfPOZSWUk/a0P5j41zwu4kO3tp8wMtBx6x9U6w0+qR0J6nbeX/Uley2q23EwVHqeOf3eZHBQFXy1AUSG3MPHvZ+n01U+XVRoOZTH28jnBEJcL0pqaqrbRfnaXWdYt+sM743p5NZyp087BkZt0qRJkWFSU1OLnCduDapqYenScO47AdWarGZ3lxbXJR5ph8bRcOXvZOlHM+ehz+iqL/pC5E7YW9WNctyuhmrP5uyJdxi+bDIH1TAeHbCf96tf6+6Wxa2ouLwj5YP7JM0cyiMdpKwW/xWBgYHXOwpC3JLkEwPxn6SqKaw4tIAsBSrVHkTHYl5OuBNW3HjU2Hdpungq6YDNnkG63dFkNKTSKzxcVQ6mKFpp8o6UD+6TNHOQdHAlZbUQQtwYpIJA/CcpShD3DDrPPdc4rLgBqSbSL4+ZrfhTyb8FPRs9wVPRnais+W++tRSlVIq8I+WD+yTNHCQdriBltRBC3BDkEwMhhBBCCCHETUU+MRCifEgnhUIIIYQQQgghhJAKAiGEEEIIIYQQQkgFgRBCCCGEEEIIIZAKAiGEEEIIIYQQQiAVBEIIIYQQQgghhEAqCIQQQgghhBBCCAHorncErnSzDVlivLT2ekdBCCGEEDcZr9Cu1zsKQgghRAHSgkAIIYQQQgghhBBSQSCEEEIIIYQQQgipIBBCCCGEEEIIIQRSQSCEEEIIIYQQQgikgkAIIYQQQgghhBBIBYEQQgghhBBCCCGQCgIhhBBCCCGEEEIgFQRCCCGEEEIIIYRAKgiEEEIIcYOIX/8BNcc/xQdHrdc7KkIIIcR/klQQCCGEEOK6U9XzLNl8FDW0I/1qaa93dIQQQoj/JKkg+Bepqp3Fj2/EOyyGhu+nXu/olKvzKxvQKbozUR2a8dOR0i2jqh5MH94V77Cu3PWjV5m2q6o5zFncDe9vutFi8zFUNZ1fFzh+d/z7TJnWeaO43vt2/rfmeId1df1XpwExqlru2/43XO/0vZWpqpXFyx1p2XDDoesdnWtKVbOYtcixb222nsw33cT8pXn56UZyo+Z19exW/oiDBm3a0lCjOOP637luCiGEEDcC3fWOQHmxGxOwJm7EnnkaAI1vdXThHdF4RVznmP032E1aUtO0pNh0ZJuvd2zEtaDxsBMcZHP8sGhIzlSub4SEELcMVbWxe1sMJ4nijVZynRZCCCGul1uugsCWspfsXS9jiVta6HyPyN54N30fbVDjco+Lajdyev9WToV34Y6K/62HqUr99rG33/XZtuJMaq2iATQ4X0ShUW7+Y3A99y18yC7ODXH8rW5sQIVBEWSW+1b/Xbdy3hEiv9Lm9aQjm9lsaETPan7oyngelOpaaDvC/G1JaOv0oXdImTZzw7gWaSaEEEJcL7dUBYHpxM9kbR0H9qJfWVvilpKWsBqfNpMx1HygXOLhuBn6k++XLWdOLDz4dBfuqOgaRquFY4uOMfHTS2yJhcptQnnh7eoMqePhEs4Un8LUL2OZviKLY8kqQTW86X1fNV64P4hKetcbj4xjiUydksDcjUaOXYSIWl607l6BCaMr0DDocnNNKwvGb2HkHIU+XzfnZfNpXvgmhb0ZOhq0D+WlN6rRLbJs336qGZUYGVWfBS5Tjby9YRPP1XeNq6pC/MYoXnk3khVHNYQ2TuHxN4/jdZX3UoriSZCXD5BFsMEb8CbIUwdYCTX4uoRdtaoHA45ZiWz0Bcc6N3LG6yJT5gznqUTo1n4mi6LDnNOzOXJ0AV/s28DmlAROmyz4e0fQILwdY1oMYVhFf5d1m9L3MHXb70w/c5BjZpUg33r0bjCcF6KbUEmbt5Pq6W+psGQemSGPsrtHBDP+msHMC/HgXYtudUbyRotoKjrDu7Nv7rKn+jF3chTfLQhk/3kIr5VN2+7neOqRBBoGlH29GcfCmTqlCnM3+jjzZDatu8cxYXQCDYPywqmqhiPLa/DF1HA2H/LkdKKCfxUTDVpcYsyEkwxrbClTWHe4m772nBPM3TGL747tZn+OnXD/GrSt3oenmneioafr11umjH38sv0Pfj59gKMmG/4+tbmr7mCei25DTYPz3MxYQu/pX/BntWdZFr6BcXvO0qj5W0yvepAHl0xjm0dzXuv+DA+Eebq1X6pqYsGy3ow8DX06/cLL9pm8sGsTey3+NIjoykudhtLNX58vvI2LcYt4I2Y+i1LS8QtowdgOjxF9/EF6H0qnQdPv2NGutrvJm0ursXHs8GQmblvHliyVyuFdeaHz/QwJ9XZNs1KeQwAZSVuY+s8S5sYd55gJIvyiaF2jBxOiO9LQS1OmdCgvN1tZYorfwJOzp/P1bd2Z0LObWw+9pbkWXpazfzMLM3V0b9uc0CLWf7NcN68mzYQQQojr7ZapILCcW0zWlodAtZcc2G4ma8tDaAyheFTue83ioNqNnN73J98vX86cWCMRtTrx5oTuDK5VMKzPuXge+SyJXToFsxkOrr3AqL0m9Bsb0j/EcSNhj4tn9J0nWHjR8VtvUIk/mMWUlw6yYFMUm3+KINL52sd85CzD+p1mfXJe2MM7rRzemcGcNUZWz65OtLfrDYptxxnun3aJWD2YzXa2zI9nwHGVTSujaOJRlpsZO15BNoIBUMhK0WAqImTOP3XpN7gyl79GztkZxtOj7TzUqmDYfzY9QIfdZ4vc6r13LuWHOobc3+E+FYCThHsFoCgax281gYo+/kWuoyTJx7+jz+rlxCv+NAhvSj9PG4mXDrD59Exizh0gbcinjA1xPIjY09cw+vcPWWgGVA16DcSn72TK1p0sOPcCm/t2yz1ueeL4ftX3fJekQWe3Yk3fzfTtezmgfse61lG5N5flsW9qRjCv9G3KpMOO33qDysk9/pzc04B5a/1YMfsILf3czw/mI9UZ1q8m65Pz1nt4ZwCHdwYwZ40Pq2cfy82Tyasa0mdUOPEaKw06pNGvrULifj82z69MzNoA0lb8zdja7octr7yjmvbxyh/PMinDUd7oFR0nU3dzcvdu5p0ZyYrBo2npfPC3Z6znwVnvMS9ffkjI2M30Hbv54/hwlt09htaGfOlrieHrf3ZyzmYndvsC3ri4mWXZaVhZx9Mxzekz4C7CyviwYUv4nfuPLiNWo8GsprHlzDQGLLKzacR9NHHmSWvSPIYu+p5tqiO+WakbeGW5jkeqlmmTBfhkLOeRPSvZpegwq1YOnp/DqPlJ6Ee8TH8fZ5q5cQ6ZLy1k2LyvWG/JC3s4ZTuHU7Yz58wDrB40gugrHgpLkw7l5WYrSyI6TWCxzxq+W7GKJz9eyVe3dWdCz670quZf5EOvO9dCcPTjsGbrNjL1LRgYXXRl581y3SxLmgkhhBA3ipuik0KzuYSP2O0Wsv5+tHSVA5epdjK3jgN76d42FhcH1W7k1J7lvPjxC9z5/Xz+9m7HB09+xJqn7+XeBuF4FXJDsGeVhUGrWpJ4th2xa6rRO0yFi6l8Nc/oWKdqZdmHp1h4UcG3bQTLd7UhObY9seuqM6iSysUlp3lrpcUZ1s7+tclY6vrQc0JNth9sQ1Jse2LXVKVXsErWtnN8vqrgkFHLl1l4ekNrLp1ty6H/hVEfFfu+88zYUnQ6WKxFd0in+J3np6N/cu7on5w9soeHgwoPp6oalk+J5BBgaBXH0t3rSI5dz553FTYsLBheo/UiWOdf5D+vK26QG7X5gezH1jC9vuONZLMO08mesIpvapWtPkxVrWw/uY54Beo1fp+td7/BjL7vsHLUD8xreTdP1quDOSPVGTaHZZu+YqEZfENHsvy+RSSPW0rs4KcY5AkXz37DW8cLaZiftJoj1T7nzLhlXHrgOz6qFACKnR17VrAlX5KXZd+KO2YAe3+o56gcqJnI/zb9xaWz60jYfJCH66sYd1Zh4gz3WyeoKuxfG4KlbgY9Jxxi+8H1JMWuI3bNSXoFQ9a2qny+yiM37PZVocQD9Z7aw9Y5O5nx405Wbt7CvDfiePK+dMzxBrfDQvnlnb07v3RUDnj35H/3LODSo0tJGPY6D/tpMKb8ysQ955zxzWHlpq+YZwZD8FAW3beQpHFLOD3oMfrowZjyO+8cTHRNvPPe3DtmMesaVwXrWpKq/8zFIWNorII5+SxX04Xc8jNpPH3PfC6NW8ShO/tTXwV76lxmxKrO+NrZuPtXtqmg8evLHyMXkDRuEYe6BbLtZPpVbDnPnrOpDBo0h8Rxi4kdNIHeesC8nq8OJTjjUPpzSFVt7D+5HUvgbfRs+DLbH1hI0rilxA5+jF4ekHVpOp+fyHI7HcrLzViWKFpfGrYawFevfsySB3pS9+Ianvp4Ir2+m8ei02lY83VSWpZrIQAZ/zBnv4XgFu3oUEwjjpvluulOmgkhhBA3mhu+BYHJZGLp0qX07t0bg8FQaBhLwirs2XFur1s1xpMduxTv6gOuKg4XNn5Nt9lnaHDbHXw27A56VgvAo4S3BEGDInmssQGNohDapApPDj3H0m9s7DmWjV31QiGbfbvsgEKfh6vRubLjUIXeVpknhp5j3hdWlm/JhJ7BKIqGZuObsGq86zZCGlekf8szLFupcPaCGXBthllxSCQP1HfcjVXtUZn7myby0i6V42dNQMFmzGaLytot6XRt64++TC0MLvPm5FHH8r3GHOf2SBVQqdX3OA+2DOeF7a6ho9t8y7k2V7G5q6QoOrz13oCJCxd2EpMURvPgIPw0odzVehx3uYSOY1+i44GkT/RwOgc40jG0Yh+eqD2LefvOszzuBNSJvmIjHRjfogFhGgV8avNY8zv5KG4OyZZznM6GjmX8gqCkY6aqHuzb7Rgxoum9p7i7juOGOKB2Am9/b6PtAQ8IA5OqYnDjzZeiQLPxOwvJk+fo3zLKmSf1gBVFAW8fO6Dhwq5QYo4ZaV4jBz8PE3dNOOySvu6EhfLJO6qazr4LpwBo2mAwd4c6Dk5ASCfe7vkObRMzwEfBpKroiWdPouPBuleT4XQLcKR1eMRAnqw9kyUHktlw4RR2NZzc1PWtRm29nqphUYBCwxA/9H7hVAX22q2U7QMKh4q1B/BAmB8AVWsP5P4dC3kpJYvjaSlACJDMyVTHQ2f7RkPoE+R4eKwaNYyxFefw6Pmr2LhTUNQgHqsY4Cj7IgbwZO3fWHogmT0pcdjVCBQ3ziFF0dKs1busuqLlUUiFO+gf+g3LEuyczUwFXE+gktOhfNzMZYmi8aVBywF82bwrj+5cz49r1zHx4xiOPv8Zz9VwhCnLtRAgfkcMMfZAHm5Tv9hy5ma7bpYmzYQQQogbzQ1fQWAwGOjTpw96fdGvFWypB8u8fk1WycNPlRQHm9WCqvMl1N+XYB/PUt0QBfrpXDqD8vPTATayMmxYAD0qphzHvFljtjKrkHUkZdhy/1atOWz/4yyTfktj5+EcYtMuz7n8DWXB5YP98vc1oMUv0PGXyVT42w29h0K3dv546K62iaSWTOfLyADf/G9orPhfxffu5al1o+F0OvItGy78TK/ffwa8iPSvS5uKzRkU3Yf+ob7O42nD5Dwss9b0YdaagutKunxg89P54Z/vcCihd/BV5xpkE0BTj4LBS6vkY6bB7PwOJMDb9W1ZQP1EhtXPjZHb21aterb/EcWk34LZediT2LQr+6HI+916RCydfoliw/pq9GpfDXR2Iutl0qZ1MoNGn6F/XUvu+eJO2PJhxew8xgEerg8EAWGtGRaWfx+t5Fgvh3UdutNX7wckY7WZned8+QvW5//O3xs/50ZNtsvVDmaMzj8DPPKH9cLfva4PihSo93Yt+5zpkGU2OtPBvXNItaewfd9sJh3awc60WGKtrvm4sNKs5HQoPzdrWZK3Qm8iKlaiVsUw4ykH1AAAIABJREFUAs+dx5IvycpyLVTVBBZvPooa1o9+UcX3f3MzXjcdqys6zYS4JlQ1r+dRIYS4Sjd8BQFQbOUAcHWFYimXLS4OlTqOZYZmOV+vms39m5bRolVPHu/ZmY5udiZWFIOvBp/Cbuw88zpQ2vXFAbp/lI0JBY2XQrCzcyVTho0s67W7aFx95YD7dm8dT589Rb+6HNx1FpNqle/jlSFsEAtH1mXhoa3EXDjOwfQ4jqTtZm76buYe28hrAz/jpQjX423Q+uNTWHLpSu4EUvGuw8Db6lyTuF+PY6aqCru+aEb3j3wwARovG8HOT05MGVqyrmi5a6h3ioVbUlg4vwIxO305eNqLI4f9mbvfn7m/hPPasq281ER1O+yNkHdE2ZV0DqlqDru2vEb3XYcxKaDR+BCsczz8m6zpFPy44Pq7WcsSVbWQdHo701csZtq+C+gqteKRB0Zzb75+BcpyLVRjtzI7Hhr1bU2Da9j/w41w3SxNmt3s7IkXSe8/BH2vHni/9mK5bCNn8o+YV63Bf9b/4Ip7MdPvczB+8TW+X/4fupbNsccnoAkPA91NcXt71WzHjpP9zofomtyG17NPlnk9pl9mYjt1Cs/R96GpWqXwQFYbad37omsWjc8n75d5W0KIG98tUYIq+uDrsmzeOkJod/u9tG3fky2blvP1qjmM+nspzdv04vHuXegUXvDmKDXDil1Vc9+GpKc7Xin4B2idDRo1eDpfON7zbWsm9yzmRtCayk9fZmNCy+AvmjB5uDc+GgVVNTPjvr8Zu/Kqd/Eas+HnbCmQmuHoOdtBR3ohnznbbUaSrUV//2y0l+17Tg+tJ5BJhiUn37HIIcv5Rt1T63p3afBryNBWDRl6OV6mWKYsf4qn444y+fBhXoqIBnR4Os+qe7rOYnLtG/3h047e+dVMWrZrcZCytyKL9ntAhRSG3ZHh2vRXUYvvwMQayk9f+mDCyuAvtjN5eJYzT3ow475OheZJQ8VUhj6ampe+Gb5MeawFTy/3ZvLcYF5qkuR22PLJOzr0ztMxzeL6BjflfAyLEjPAtyHDalRBny8/pFmMgF9u2ExzBgB6rZ5r8WL32jDg7YxMqjkbcL4exUhGUT2OuinVnO1a9pkcx8ff4O1MBzfOIXUfP+05jAl/Bnf4ksm3RTrzWRoz5g9mbMK1iXPxdBic+SHFZMw33Ui6M3t4a10/TbuZyhJVNXP+6BamrVzGjMMX0VdqxfgHJ3Bv00r4XfFA7+61UFVt/LMthlNKLd5qFVFiXG6W66Y7aXbTs1iwn4tDTUkpt03YzpzBun0nqqoWbMtmtTq2n5mJmpxCet/BaGtG4fv91yhBgXnrOHgY02+/l3qbhmFDME76BntqaqHzNWFh+H77Re5vy+atZD7wiDu7VShd29b4TZtS6vCKlxeWTVuwbNqC4e6BaKqVoTdZVSXnh5+wnT6D56h7cyfbTpxCEx6K4pd33bIdPeaogBFC3NJuiQoCbdBtV7Fs42sWj7ybox5s2bySb1bNZfTWP3n6+Q94vLrrZS1lXhzfDvNl7G160vfF8eXvNkChSW1H81tV9aJxMy0ctrP0l3Nsb16Z5qEKWefTWTgjkb3pULNvdca21gMqdmf/jDabil0F1WLmREw8C8v+9UU5yqJmXRX2KiyfWov1bY/QuaLCyWU1mbqtYOhm7X8mu/21j0WdkHrADtJPL+e35AYMD9JyIXYpv6cBajgNQhy9eatqEstiprIwEypG3cvrdSqiUxQUfRhRzldUmWYTNlVFQyUah/lCRiZL9y1ke0Q/mntryco6zsI969hrhpq172dslasblvBaURQLjRrnwApPdv1agzndDzGglpXMY5V4dXx9fj4Crd/ZyqiuV9yWhZuoAexJ8WXXCQ0dahV80HbkSQWbTePMkzpOxFRl4UGV/J8sqKqBZR/WZWE8VLzrGK/3yXakr282URVtgJbMLK0zfT1LHVarKOWSdxTFn0bh1SD+DLsOzWVOrbEMCPYkM3kjr678gJ8z7bRuNY1RUQqqWonoCv6Qkc6yPTNZE3kft/tpSbqwjEnHkkHV0LFiDcc5X8b4qKYDfLb0Uz5PzKZOzSf4pWu7Qnq2L60gooL84UI6MQdmsyTqEXoGKMSd+YPvi+l/wJ04pJycx7cNazK2gg/pF5by5THHg0WT4ErOss+dc8jO5a5pbarjb9WWwYnYFSxM1QBudFxbxn1TFAP1QuvA6aOcPb6QmY2qMzRIR0LsbH46D6g+NA2r4FjXTViWJG78ii6zDuBdqRWPP/QkI6MjSnzILfW10HqYBduS0dbtR69S1NXfLNfNsqTZTevydxjFtcZUVbCVcC5qNaAoqEnJ5Pw03WWWdfdeAIyffYmizbtt1ffugeLtaDGkms0owUF4PjyG7Pc+Iq3PIPx+/h5tHceQrPZLlzCvXZ8XpeRkVIsVTYVw7IkXUTQalNC8/kc87uiMajKBqWDNqO34SewBV/R7ZbOjZhvxfvs1dI0a5E7OfvsDsNnxfuuVvP3Zf5Ds19/B5+P30NaKyp2e9drbYCqhU+4raCpH4vXIGIxfTybrjXfcqlzIjc/uvdhOn0HXsrlLBUPWsy9g3b2XwM3r0VQquQJPCHHruCUqCHTBTdF4VsCec8Gt5TReFdEFR5cc0E2KPpR2XUbStl13tmzewPlCUrnDAE/m3rWdV53DNYECYUFMGOh4/aEoOnpMrEH/1cdZuPosnRuexWBQMZkcF2GfxhWYP9H5qk/nT/d+OqbPtrHg2d0seAm8rCrGahV59U4ty6Ze/U1yaZz8qSWdPvJx/lLISgHw4oM+t/OFFiCZr3fuYYAf9Hj4HA1mV+Hg9kh6R0ei14M5OIEJQ+DI7H8lulSqfw+P7v6H77L+4pGZG5mgAbNzJIzgiJE8UPHyDU8QdXwvsXTPTlJOxjD3n4ZE+xowZhxhfXISEM6oug3RKgrgSY/2j9P/3AcsTPieztOmYNCAyblen4ChzG/vU2h8rpcmYw8zfl403x4P5/524egNKubL+azlWT4ZmUmBPgiiEhnasjp7tvvxQtvbeS/I7ixMHMe4v28q3ftZmD7bgwXPtmbBS3a8rBqM1eJ49U47y6bmf7OXQ52KBpZ+5k/KHyHMbZZOdGU7xrO+rN+pB8yM6peEVlFQ1dKHLdc0azGB8cee59us5dw/azl655B9AD7B9/NJ40jAMd78Xe2eZMjZd5id/Af9fpmDPl8+MwTdw6v1w68uMgl/8Un8WdIV2HpkGX+1b8cI75IXK4yiaOgYPYLWRybzd8Zihv661BFfpQNDKunZFVfEzasbcehQoyJz593Nq/nSDH1XJtSPcMbBjXNIqUv36sFMP5XMgk1jWLBZj5dqxug9lFer+LLs6DUYeaEU+1av0X3cf+A1/mdcx4Oz1vGoosk9xkEVRvNY9ctv/2++skQJqM/TDw0v00NuSddC4/5NLMzyoGeb5oSU4py9Wa6bV5NmN61ijp89Lp7Utl2KXdx/4Wx0zaJRMzMxLVriMk9NcrQIMy9eBpq8tmvaJo3A29lkxDnSlOe4h1CCAsma+Arp/Yfgv3wh2urV8OjUgcAtf+Yum/XMC9iOn8B/0Rwyho9C8ffD9/uvXbbrcUfhcc4Y/TC2I4X3X6WtVxddyxa5v5WAALDZXKapVkc/GNqG9dE1znvBlf9NPYCamYX9fMn3tR7d78Q0fxG6Fs2xHT9BcX0GKZ4GNJUjXaaZ5y4AwDA4r8NuNTkF6z+70VavJpUDQvwH3RIVBCg6DPWfwLjrlZLD5uNZ/2lQyi8JHDdHgwqfWTuSH37QMPHTi2w5qxDZJpQX365O3+C8gl0TGcG0NQZ+/vIs01ZkcSwVoup60bFXRR4dU4HG/o6wimKg//sN+S74FJOXZ3EqS0u9DiE8+3IN/KZeLLf9u5LNoiU5pWCTTmO6FkfDW23uxwSG6KMsnGPjlXcrseKIltAmyUx48yhVf4ng6wJrKB+KoSkfDv6Y6ltn81vsAY6aPagTWJN2NQfyQrNWVNNcTl8NtaJfY4XnfCbt38iW1D0sTFIJ9I4guvJAhkUPZnS1vBt1jX9Xpt0Tws9/z2Za7AGOmbVE+deiY1R3Hm3ahcaGG+uGUfFP4sMlO2j6bRQ/LPHnYAJENs6mXa9zPP1QAg38CsZX0WUyfspe7B9E8dtfPhw5r3W+q3UcY0Wx0P/9PXwXXIvJy305lWWnXodEnn35KH5TK7quS1GoNXoXKwJrMOmXULYc9mfhDgisYia6VwLDHjrJ6A5WQHErbLmmmaEpHw75lqY7fueHk7s5aFSJDKhJu6g+PN2sIw3yHWONX2emDAul07ZZ/HT6AEdyLIT71OLOunczsVlbal9tfojowvOVtvNZYjZ1avaiy1V2faINHsjv/bS8HjOPxcnpePs348EOD1Pn4AaKrLtzJw7B/fmhqwcTt61lSxZEhnflxS7309crX5qV8hxSlED63/Ee322exuTThzhl9aFexO08234kfrtXXF1CuLFvik9bJt39EQ3/nsevsQc4YrIR7lObrrX68lzLLtS5icuS8Ca9GHeV6yjsWqiqWazeuoMsQwsGNCllRcdNct28Fml2I7MdPkL6oOGOH84KK9PcBZiXuX6X4dG5A77ffZn7WxtVA12rFi5hrHv3YTt4OPe3plpVAmPWuoTJeuk1TDNmEbB+BcoVI0lZNm5yRCPfm3fDPXejBPhj238QbVma3F8F4zsfkBOQ19uydf8BUCFj+KjcaWqaozfM7JffRPHLawFkO3gYXeNGub8tmzaT+dAVw2wUt+2P/g/jR/9XbBhd0yb4L5qTN8FicVTI6PXo+/bKm7whBlQVj263l3r7Qohbh5Kamup2y9a1u86wbtcZ3hvTya3lTp8+DUCTJk3c3WTJ7GbSlrXElrK3VMF1Ic3x77EFNFf39a/x0tqSAwkhxE1MVU0sWNabkaehQdPv2NGu9vWOkrjJqWl/MeqVaRxu+xwxIxqg/w/2wO4V2vV6R6FMbKfPkP3S6wCoOTlYd/yDpmIFtLVqOgPYsGz5G/1d3fD96Tvs5+JIbdsFw7AhBTq3M378OcavvnW0IIhujD0p6crNYXzvY0xzFzhaABhc++Kw7d5HxpixeL/6AvpB/QuNr+KhRwkMwHb8BPaLlwDI+eZ77HHxeL//FsZ3PgBv79xO/hRPT3RNi75PvdyCIH+LhMt9EBiGDEZTJbLAMmq2EeuevWijaqCpUHirMdMf89BUicz9TMB28hSW5aty59szMsj55nu0Deph6NenyPgB2OLiMP0yE239ehj654VVKoRjuHtg7m/z6rVkjhmHxx1d8Jue93lC5uPPYF6wGG3tWnnxtduxbN6KEhCA7raGrhtUFPx+m1ZsnIQQN49bowUBgEaPb4ffSFvaFOzFjyGkaD3x6fDrVVcOCCGEEMJ9cdtjiLEHMbZ13f9k5cDNTFu9Gn4zHf0E2E6eIq3zXej79MT7DUcrTjUzk5T6TcHDvVtMNTOT1Gbtipxf3GcK2e9+RPa7HxU6z6NzR/xmTMX45beY5y9ymZcx9N4CfxfWiqH4eGehq1eXwC1/FRnGdvwExs++xKNtawxDBhca5vJ0NTkFJcAfbVQNtI+NzbchFfPvcyDHhGf+6YUw/TITE2AY1B/PcQ8VEXEV04+Oh3rFJ68Vj5qSimXVGhQvL/DQYU9Ods5wBrCY86Y5KdqSR1QRQtw8bp0KAkAb2BBdaGusiTHFhvOo3Betf91/KVZCCCGEyK9yt1c42e16x0Jctcud+OUfVtDsfEnj4d5LGMXLC5/PXB/y7SdPYYs9h0e71gWGOARQ0zPIfvNdPO7ogr5Pz0LXq6lYIfdvbfVq+P78A8YPPsF29hy+304i69kXUHx88H77dYyffIb1wCG34p318usFKh6KUlxFRn6BW/4s0FcAioKuXVvMi5ZgTziPJqJi4QsDlr8dPT7r2rYqOszaP7Fs3lpges70GajZRrwmPoPX44/mzbDaSK5RD12zprkVREKIW9MtVUEA4HXbK1gv/V1sGF14h38pNkIIcfNTFAMDe68h+3pHRAhxQ1FzHBUEikfew7vq7DBQcbOCAA8PDENc+6rIfPBRzGvW4fX4OLT1CnmxY7WS/fb7aMLDCixbKL0eba0oVIvF8Za+VhSKtzeKn6/jb3//3KCWjZuxbt9RYBX2k6ddfnu/9iJezzxR7GbtJ0+RMephvJ59Ev2AviVGM3+lhkv077wD86IlmJcsx/PhBwoNo5pMWP7aiBIUiK5hw0LDYLWS/d6HBZfNNpIzdTqKjzee948oMZ5CiFvTLVdB4FGpBx6VelzvaAghhBBC3NIud7inBOY9WF8eUcDdFgQA1h3/ODr2A9SMTMyr1qCtFYVl6zYsW13HQVY8PDCMHIYmLBT7hcR8kVLJfGg8umbRRTbFt508ha5+vWLjYonZRM63PxQ6L//bfU1YGIQ5/jb9MRc1u2BVquqMn+3oMSx/bih0ndo6tfFo16bYOOl7dUd5M5ic6TPwfHCUy6gOl5kXL0NNTXN8WqArvOm/aeYf2I6fRNeiGdYd/+QtO2ceakoqng+PcYzAIIT4T7rlKghWrFjB8uXLiw3Ts2dPevSQSgQhhBBCiLJS0xxDiSpBQXnTLn9ioHP/FtPy5wZypkwFFVSjETQa7PEJGD/4pEBYxc/PUUEQURF7Yl4FgSVmC+ZVa1CKeAuvZmZiPxeH9vKwfgrYLyWBWnif3UF7toFP3timWRNfwX7qdKFhjZ98jmo2o60ZVWCermVz7OcvYF60tMA8685dGEYMLbGCAL0ezxHDMH71Leblq9D3vuJe1m4n5ydHvwKe9w4vdBVqZibZ/zcJxdsL77dfJ71X3vCG+r69Ma9eh+dDo4uPhxDilnbLVRDUqlWLnj0L/w4tfxghhBBCCFF2l1sQaAID8yZe/sRA734LAq/nnsLruafImT6D7FffwueT9zEMHUzOT9PR1orCo3PHAstoIio6hju020FRMH7+FYqnJ15PPlboNoxffQc2W+66tFFR5EyfQWqL9qjZ2SghIa4LGAwuwyv6Tvq02H3w6NwR3y+LH27wSikNmpU6rOcjY8iZ8RvZb7yDR6f2KH5+ufNMv/2Bbf9B9P37oCliiEc124ialob3yy+gjazkMk8JCsTvfz+CdBwqxH/aLVlBIBUAQgghhBDly3b2HABKcL4WBBbnJwZlaEEAYD8Ti/G9j/Ho2C63XwHjx/+Hvl+fQisItLVqYV6+CtuJk9gOHca6fQee4x9BEx5WIKyalkbOj9PQNWmcO5Sh1wvPoKlWFTUjA/PqtagZmWWK92WWlatJ7eDeEJZqZum3qQQG4P3ic2S98CrZr7/j6NhRUbDHJ5D9wScovj54v/5ykctrwsPwnvgsng/cj5qe7jLP9L9fseT75MCF3Q6A7fBRMp94tsBsXf16eD76cKn3Qwhx47rlKggAZs2axZYtWwqd17ZtW4YNG/Yvx0gIIYQQ4tZi3bUHNBq0+b/nL2snhU7Zb3+AajSirVePnOkzAMdnC7ajx8iZ9ktuOE14OPpe3dG1aQlfgeWvGHK+/QFNhXC8iuh7QAkIwPuxseiaN819S674+eV2+GdPOI9lS/EdXZdE2/g2vMYWMbRgETLHP+lWeMOwIZgXLcU0Zz6aqlXwfHAUGfc9iJqejs/7bxdaOZJfUQ/y1iPHsG7cXMRSjk8w7KmphYex2d3ZBSHEDeyWrCAYOHAgERERGI1Gl+leXl60aVPC911CCCGEEKJ4Vhu2vfvR1q+L4u2VO1k1lb2TQgA1IwPF2wvTrzPzbcuKdc8+bIeP5E7SNW/qqCBo1hS0WowffopqMuH3vx9dRiNwWXdqKoqnJ7YDh7AVMpyh7cTJUsXRuncf2shIlJDggjNtdtTLwz+WVhH9HxRJo8H3uy9J6zMI42dfYp63ENvpM3iOvg/DvWV/Cebz3pvw3puFz3QOc+jRppUMcyjELU4X4J3h9kKeHo7CvyzLAmA5V+SsH/ZWLts6XRjAtzP4FpxzZP81WL0L95qRXW+PNC467YUQQgjxLynmXuhmYN2xD9VoRBdd23VfjAmO/5Usx3TrBcdve1bBfbY7m7hbE3Pn+f1acPi9lEY90fe5A58Pn3edYTmHYgBd/ZpY9x/FMLQXHh1q5q7LdvQU2trVHa0F7NnYEy+SNfGVYvdLU7WSY3m78x7XEgcWL5cwpuk/Yl64hoCNs9CE5n1egWrDduQwxklfFLuNK6lmc+HpUwzFF7zGDyPrxU+wnT6DJjQIz/EDwRpX+g1bHH1IYM8uedtWmzOypps+7wohindLtiAQQgghhBDlJ+fXRQB4dGntMl21OEYxKEsnhcWy21FT0rEnp6Imp6GazXi0b45l4w6sRxxv/nVNG+TFw2QmrddDGEb0xeftpwDQ1q5OwMqfi9xE1oufYNm6u+SonL+IarejCSrYUsHj9jb4fl58JcSVUpr0cSu8PTae7I+nYF72JwCKrzf2Symkdb0Pz7HD8XxgMIqXp1vrFEKIy6SCQAghhBBClJr9UgrmpevRRFZEf2UFQXoWgMtnBwCWv7aRMXqiyzTbybMuv01zVmDddRA1LQM1PQM1LRN7WgZqdg6mOSswzVmRG1bbsDY+rz9O5thXUXy8ULNzMP7fT+h7dUHx88F+8izY7WgqhF7dzhbS/N+ecBFtlQjQagvMs/z5N+n9Cu8DochNZBlLDgTYE5PJmTKLnOnzwGpDW6MK3m89ia5JPYxf/EzO9PkYP/0R0//m4TluJPreXdCEFfIZhBBCFEMqCIQQQgghRKkZ/+8nsNrwHNG3wEOyZeN2ADSRFVymqxmZ2E64Vgioaa696NtOxmKasxxNWAiasCA04SFoG9XBFH8BXXQDPEcNRAkKQBMSiHX/UTIefBE8dPj971MsqzZi/HoGxs+n4v3641gPHQdA17B2vu1lYJq7ssj9sp3Ki58mwNE6wHbkJLrmjXKn2xMSsZ06i0fn1gWWB0crBc/7BxS5jcJkTfy4yHlqdg6W1TGY5q/CErMT7HYUL0+8nh6D54NDwNlSw/u1CRju7knW619g3bmf7Le/Ivudr9G1vA19j87oe3REU7H4zguFEAKkgkAIIYQQQpSSedVGTL8vRRMahGF4XyzrtmKcNA0lyB81y4h1534UPx+Xh2qg0D4EjP/3E8ZvZuT+9n7mQbyffzh3hIHcbS5cjTaqCvret4PdjvG73zB+NhXFzwe/nz9C16gO2qiqmJdvIGfaPGxnz2M/fgZ0WrSN6uSux56YRNbzBfs4yE9TtRIAupa3AZDxyCt4tG+BYtCjms1Yt+4Gqw19t3ao2TlY9x7OXVa1WFA89Sihbr611yjYLyTlft6gCQsGVSVn8kzMKzfktjDQhAdjGN4Xw/C+aMJDCqxGW78m/r9PwrJhO6ZfF2FevxXrtr1Yt+0l++2vMIzsh887T7sXNyHEf45UEAghhBBCiFIxz18NgM8Hz6ME+qGpFIZ1X97oAoqvNz4fv4Di5+P+ynUFm+xfyX7+IqZfF6GNqoLvj++jrRbp2K63J36/fk7G8KewrHUMw2cY3telE0Ftzar4L5lS5LqzX/0cy/a9jqg0a4j3K+MxzViIZV3esH5KYACej47AMKQntuNnyBjh+sBtidnpeNPvJsvazXnxHtwD75fGYdn8D2qWEV3rJnje2x99904lp5FGg0eX1nh0aY09IRHT70sxzVqCarXhNW6E2/ESQvz3KKr5rJtjq8CybedZti2Bryc0dWu5PQeTAGjSoGCt52XXZhQDUZixLfJq5FXz2WJCCiGEEEIUpKZnYpq5BM+xzuH07HbULGPu8Iaa4ADQaPIWsNmwJ6eheBoKVBqomdmoxhw0gf7gUfQ7q6xXPkMXXR/DkJ6OTSYmoXh7ofh6F4xfRhbmhWtQTWYM9/TODWNZuxn7pRQM9/QucjuWmJ3Yz1/EcHePUqUFdjuqxVq6sG5QtFrQabEdPgEaDdo6Na5uhVYb9otJaCLCXSarmdlkv/WVI21H9it+HTYbWW9MQhtVFc8xd19dfIQQNzSpIPgPkQoCIYQQQgghhBBF0ZQcRAghhBBCCCGEELc6qSAQQgghhBBCCCHEv1dBYDLb0Gg0KIrCpeScct9eyubHePSlfsw/de2/DRNCCCGEEEIIIW41/0oFgcmscvx0Bna7HVVViTufRVKKqdy2p6rn2LFzN/bgXrSoLgM1CCGEEEIIIYQQJSn3CgKTRcPx0+lYrTb8/PyoVMkxvuy5hMxyqyRQ41eyOR5qNO9OFWe/fKpqZ/ebbzK2xVu8/N2ZctmuEEIIIYQQQghxsyrX1+smi4ETpy9itVrx8/OjevXquZ8ZxMXFcS4hE1AJCfK8ZttUVTundy8jnoaMiL7KYWGEEEIIIYQQQoj/iHJrQRCfaOPYyQtYLBaXygGA0NBQIiMjATiXkMWpsxlcuGgscZ2qmkXiwfkcSCwmkO0ftu86j65Wb5oGXYs9uTlknFjOznOp2N0etFIIIYQQQgghhCjHFgQXL6UCFKgcuCw0NBSAuLg40jPMpGeYqRDmVei6VDWLi4cWsnr9r8Scg+5jB9KwiO1ajizn7ywPmjXrgr9SeBitxs6FtYv544eDHItXCWnakF7P3EXL6gaXcNYLJ9gwbQObNyZwIUXFp0oFGg/oQq/BtQj0cF1nzukDbJi5nX92JHI+BQKrhlKjU3O6DW5MZIDi3A8Lu15/j++XKzR583H6WNYx+5djnM30pFLL2+jzeBcaVMw7JKpq4vyfMaycc5ATx9O5lGTDK8KfiMZ16XRfJ1rX88kX16X8sPhTIusPpfcd99A0MhBNEfsvhBBCCCGEEEJcqdx78CuscuCy0NBQ9Dorp85cKHS+qmZx8fBCVq/9lZi4LEJq9Gb4mBG0qVb4tlQ1k33/rCej5LmlAAAIM0lEQVTL0IVWDQKKjJMhYTvTfjpIrEaD1aoSv/kffjycge6PETQNdISxn9/Jj/cvZley4ylbp4eU43H89emv7NrZm1c+bkGg8wHcdnIT3z28msNpeWET9p8lYf9Zdmy6xPPfdKXqFV9R2PetZ8rc/STrFKxWMydWbuKr03ZennYXVZyVD1kxi5j0/AFSNAYqtahK02Z20o7GcXLl3xzfFItx2iN0qe7YZmCb93jNezYr1/3OD9/8QWT9ofS6fSjNKgdJRYEQQgghhBBCiBKVewVBUZUDl/n7eReY5loxYKRC7QGMengYLWqEoyvuYTfzT7YeNhHQrAf19UUHO7sxiyHTnuO5+l5kH9nKL0+sZk/yMdYsv0TT4aGoqpl9369gV7KCoXkbxr91O3UqaMk6uo2Zz65k5/pVLPirAaO7eKOqds5uPoY1KoLbGrZi4H0NiQjWknV4M/+bsJa9e2JYtbEdD93p2jpi35/Z3DtrIu2jdCRvXMrXz+4h4ch2Nu++k3taKqiqnVMbDpOCQsSYEbw2thoaBVR7Ggd/3cihJLAkZkJ1PwAUTQCVox9iTJMhdN8zh5XrZjHl2z+IrD+EXrffQ7PK/6HvLYQQQgghhBBCuO1fGQNwz549hU5v0qRJodPT/n6JNxYfo1q9ATzY726aVglBW4q34Cl7l7HfHkr35i2LrUjw6t6OO+r7olHAr157uvWKYc+MHGJPX8KuhqJwiXMHLIBC9NDbqVfRUdvgV7ct3XrFsHNqNvv+ief/27u32KjKNYzj/zVMZ5i209rC2CIgY0GLLdqWFs0uVgqCBUEwkURjCyGes7P3Nm5RL4wxXnjWqIkH8JgKiYmiWI0FIqQnlFPJUEAbWqFIa1tK1NKaafd0ZpYXMy3t7oEyEST2+V2tWbOyvm+tu3nm/d6P/BkYhgV30RoeLRo4RuzM2WRl7OBgJfx66ndgYEAQvySXvBmhcGTCjTeQO6uGzw77aWvuBOIwDAs2RxTwP9oP/0jdTwlMm+zEERVP+qplwy6xMIx4pmTew90ZKymo+Yzt335B8VtbaHmw5OwvUERERERERMasCxIQnKugv4dglJO42ARioh2jCgdM8wTV+2oIJq4mZ9q4Ea+Ndo4fUHbvcI4HuvF5fQSBcQTwh3dg3PP4c+wZ4h6/e31nxg500vB1JdtLjtLQ0M6vHb2dAnt7DwzuHBjj7L/mwM742NCR3xfoOzt9xVxSS3ZwZPdOXl25E6zjSEhJYnpmCtm3/4PMlOgRlg84SbjUzSTXJGKbG/EHR3ghIiIiIiIiMuZdkIBguEqB4SRc9xT/tWxkS/mbvFa9gdTZhSyZt5yrJw5ejtDLbN7GrpOQsqiAKX/imntrTBT2ofIGW2jphGn6+OnDDbyyrg0/Bha7lZhwd8Qerw+fP/LJWKfn8Z9NU/Fsq6Xu+xaaG3+j9djPVNc1U/15Lcs/uJ+laQPXUphmD52NO6gsL2Z7bRNRSfNZdOfj5E2DrRHPRERERERERP7uLsoKAsOWTGruWq7KKaKueiNbyt/mNc9GUjMLWTxvBWmugUGBaQZp8JTSbJlFYZb7rPf3dnYTNOn7993bEdpi0R5rD+/7aMUa/oN/ztOPsSZ/hNfkP0ZVcRt+7OQ8eS+rl7uwG6E+CrseeYniynN//v6sLjdzitzMCX8Oek9S+eT7fFzxC+VbT7A0bQYQCipON2yjrPwjyupbsSct4Ja7niEvPQXHedvMUkRERERERP4uLsqAoNeZoGAVddUb2VqxjtcPbOa2Bz9hyZR+Fwb2s8/ThnX63X27EIyka9suypZNJv9qB11HdrOjtBswmOaeGGoEaE5g6iwbHO3hUMlOjl0zF3eiBd+pJjwlNZzogKSbFpGf6QBMggEAk0AgSNAEM+Dl1L49eOojrx4wzQ4Ort+KpxUuyVvI8gWJWAwwHAm4JlqBHrq7fH1Bx+l9j/HE5v1EJy1gWeGL5KVdoWBARERERERERu2iDgh6GbYkUnMfCVcUfMHp/yv59x3Zwm6vjezZ83CO4jf5jEXxVK95mc/D2xyCAYlXcVPBhNB4ho1Z9y0mq+pLPFUVvFBQgdUG/nDbAdvMHP59f7jpoPVyrl3o4LvSbjzPrsPzogVbMIBv0hxunRvFwU09ET61k+SJHRx4r4mu0nr2pl+GO9mKr6WV2sNeIIbchVf0VUEYsdmsKHxIwYCIiIiIiIhE5LwHBCeb6/uOW095AUh2Dd9LYCShoOCBAedMs5ND+8voss/n+rS40d3IncuaZ6188u731DdDYlY6Sx++mcx+1QeW5NncuyGOquIqvq1s4eRpA9dMF1fOz2bBykymOsNzMmLIXFvE6vhvKKtooa0risnZ6RT8cyHjPx1694ZRPathcOnthayN28k3m2upP9qE5xA4Jjm5PD+L6++4kRtyzuyMEJ+2ipsjHk1ERERERETGOsP0NQ5usX8WpXtbKd3bwhv/yhr2mpoffjnnyWSkTeCdg1POfmE/ZudXvPn88zTlvMozt103qh0PxqoHcs68HNPX+BfORERERERERC42562CYKgqgZEqCGKiI5vKbwe+5lDQxS1Z2QoHRERERERERCJ03gKCJJdj0LnegGCo7yKVmLeO9Xl/2u1ERERERERExiS1sxMRERERERERBQQiIiIiIiIiooBgTFlfbWL6GtWgUERERERERAZRQCAiIiIiIiIiCghERERERERERAGBiIiIiIiIiKCAQEREREREREQAo7293bxQgx0/fhyAjIyMCzWkiIiIiIiIiIyCKghEREREREREhD8A5NBV29EiPHIAAAAASUVORK5CYII=;" vertex="1" parent="1">
          <mxGeometry x="60" y="40" width="1032" height="241" as="geometry" />
        </mxCell>
        <mxCell id="MOPxv8yGljez2J6iDDAj-2" value="" style="shape=image;verticalLabelPosition=bottom;labelBackgroundColor=default;verticalAlign=top;aspect=fixed;imageAspect=0;image=data:image/png,iVBORw0KGgoAAAANSUhEUgAABHwAAAFGCAYAAAAYUYhDAAAgAElEQVR4nOzdd3hUVfoH8O+dPpNJJbQECBBCbxKaAoKgi8iyKmDDAggqtmWxoaiIrsoq6oqurgvKT9ayyq5lVVRUOkgn9BYgkARIb9PLvef3x00mmcwEAgSCs9/P8/g85s7ce8/cxpx3znlfSQghQEREREREREREEUPT2A0gIiIiIiIiIqKGxYAPEREREREREVGEYcCHiIiIiIiIiCjCMOBDRERERERERBRhGPAhIiIiIiIiIoowDPgQEREREREREUUYBnyIiIiIiIiIiCIMAz5ERERERERERBGGAR8iIiIiIiIiogjDgA8RERERERERUYRhwIeIiIiIiIiIKMIw4ENEREREREREFGEY8CEiIiIiIiIiijAM+BARERERERERRRgGfIiIiIiIiIiIIgwDPkREREREREREEYYBHyIiIiIiIiKiCKNr7AbQuanwCRy1ywCAVKsW0XqpkVtERERERERERJcKjvD5jVqb70X60mKkLy3GxkJfYzeHiIiIiIiIiC4hETvCx6MI3LG2Ascc6iiYAYk6/K1/TNB7Vud78dg2e+DvP3a24M72povaznMlAChC/f8Ht1Tg6R5RmNje3Kht2l/ux13rKwJ/39bOhEe6WBqxRXSujtll3LGuHB4FeKKbBTelqPeFIoA71pUj06beV73jdVh4uXpfPZVhxy+nvLi8qQ5v9Yupc9un82W2B3P3OKCTgE8Gx6J9tLZhPtAl7E9bbFhf6MPwFga80scaWP7Gfif+leUO/L14UAy6xurwRbYHf9njgF4CPh4Si/bWyD9GRERERER09iI24KMIYE+ZHwcq/BiZZMR1yUbY/QIv7nagxKNgTCsjFAFsLVZHx8zoYkGvePVwnHIpeHG3Az5FYEJbE4a1MDTa5/j5lBf/Pu6GRSfh2R5RaGIMHZQ1OsmI3vH6RmhdMIdfBI7n5A5mXJ4Yvk27y/x4+4ATgBpk6x4XsZfhb1acQcLdHcx4eY8D8/c78fMpL1KitHiqexT2lfuxs9SP4S0M+ENrIzyKwIu7HFhyzI2jdhmJxvpNL9xY6MOiI66gZfvLZRR7FDzdIwrx9dzOb921yUZk2mT8+7gbpV4FAPBYVwtyHDK2FvuQbNHgmR5WNDVq8PFRN/6R6cLWYh+MGgluWTRy68/fL6e8WHK8OrA1raMZfRLO/Dx7bZ8Thyr8uKKpAZNSzz1Qv7PUj3cOqs+jP3WxoGvspfU8WnTYhY1FPnSK0eHRrmcfQP/8mBvL87xobdHimR5RkOq4rd4/7MLmIh+6xOowo0ag/ttcD77N9QT+ntHFgi6xOmwu8uH9w+r9O7NbFFL/B4KzRERERL81l9Y32waS51Kw5LgbZZWdJyGAbIeC9w45sSDThVKPglMuBa0s1cETRQC/Fvrwa6EPeS4ZCzNd+H2yoc4vxxfLrlI/Fma6YNFJaGrUYEI7E9rV+kV/VLIxEKwq8wr8J9sNv/rR0SlWi6uaN0zA6ttcD044lTpfP145mgpQj+fOUjUwUNueMh8WZqodBaMGmNzBgj4JEXkphihwK/gyu7rz1DNehyuaNn6wrrY4gwZ3dzCj2KPgn0fdWJjpQnqCHk91jwq8p3ucDn2b6PHeIRcWZLrQK16H3yUZ0K0eHeZfC9Vr4JtcD8a3MeLrHA8K3Aq6xulwX0czpnRQR6stz/Mis0KucztROmB8iglm7elv1CKPgv8crz7u3eN0GNzs0jju1yYZ4FUE3jnoDNwXt7erDmAkGDSYmmbGf3M8+EemEyVegWkdzdBJEuINv/1ZuXvK/IHPDQASgCkdgP51BIyrfJvrwZp8L7wKzhjwWX7Ki0ybjGSLBmNaGYNeO+6QA/u/KcWErrHn9jnO1q+FPuwq9SPeKOGmNiZo6riENRKwt8yP1fk+ROnO/h+kJcfdWJnnRSuLBolGDcanGNHUFHrdaCRgd6kfawt8gfvp2iQDtpeo58eqkzA+xQQJwMYiHxYecgUCtpNSzQz4EBEREV2CIq6Xne9W8N0JD2ZstaF7nA4pVi32V/jx0yYPdBLQPV4HCIHvcj2IN0gYUNmp+L8jLlT4BJoYNegQrUWfBB2e72VFj/jwhyjPpQQFOM6FRSehe5wO9fkK7/QLPLPDjq5xupCAz4EKP2IN6lZyHAr+uNmGdpWJnH/fythgAZ8fT3qxrTh8vqACt4IsuwwJamf6QLkfB8pDgz1Vqo77lmI/0pv4/mcCPscdMu7fVD3tbUYXyyUZ8KnyeLcoSJKE/xx3o3NM8DnKcyn4JteNRyvvtSe6R+HqFgaUewU2FanXSacYHeIMoVf45iIf9pf7MbKlAe/0j8GO0hIUuBUMaabHzG7VQaUPj7jw8VE3YvQSutQIJJ1wKsh1qh34kUnGMwZ8SrwCHx5xYU+ZHw6/wIOdLJdMwAcA/tDKiGidhHKvOmKnZhJ2pyywuciH2TvscMkC93U0Y2a3KAioHfRsh4yWZg3aRP32OtxHbTKOO2RE66XAyJr/HPfApwCxBg06xZzbZ6p6HlWZt8+BZSe96NdEj2a1gh2HagQUD5T7EVMrAX7XOB2iwwRajtplFLrrDoCfyTsHnfg0y4320Vq0smjQK14Pa5j9TEo1o9Qr8MhWGx7aXIHucTqYznC911b1vF181IWrWujDBnzuTjXDIAEv7XEGnlFfD4sLvJ5g1OC1dCsK3QreOejCDyc8ge2GazcRERERNb6I6mXLQh2+/qctNkTrJSy5MhadYnR4da8DM7fbEWfQ4Msr4/DHLTZ8f9KDq1oY8MVQ9Qvt1b+UYvkpL0YmGfDJ4DP/xPvvbLWjez66x+qw+bom0J3nj/SPbrWFjERaMDAGgxq4Q/tO/+iwy2UBLMx04f5NFdBW5l6pK1D2v04CoK9xvs+y33bByaI6N1SV6Z0tmN5ZneLhU9T8UYA6cmDJcTesOgn/GhKHDtFa+BRgbaEPY1aUQqcB/ntVHK5LCh5RAahTZ/50Fvmd0pvoseKa+MDfL+524Nkd9tOsEaxjtBYbRyUgfWkJtpc0fpJzIQB/reM8uJkBa0cmBP5WhDrN6YhNxqAfSwAA7w6IwdQOZvgUNU/ZrWvLcajCj0e7WvBKn/D356Xs+V12/POoG0ObG7Dqd+r5vWVNOf551KUGFK+Kg06jHish1FEo9blnvspx4+HN6vPZX+Oa3Vrsw5BlJUHvrXm9P1L5LFWEei8AwLprEzAoTFB27m4HFh91hSyvqWrfWglhR/DoNUCOQ8ZVP5Vi3ciEM45qsuolfDks7oLlbbqjvRktzVqMWlEKILjNAur9/9AWG1bleXFbOxM+GqT+W+kX6mv1PT9EREREdHFEVK/8hV12vF85teTjwbFoW+tLcZlXwXUrynDSJWNaRwue6HbuCYUntDVh2HmOnDFpJWgbYEbGO/1jcHmt4M7FTOQ6d48d7x06fceHVN3idNg2ukng78QwOZka0/wDTnx4uO5zKQActgWPbHPKAjesKkPVR7H51ZFyS4bEot8ZOrD/q9YXevHAptMHjE+5QkePvLTbjr9X5ptRoI4yebG3FRNTGzdhe0Oal25Fc7MGHx5x4XfLS7HkyljM3unAunwvrkky4vV06xm3cVMbE65oaoBXFrh5TTmOVo726Z+oDyQZr7Iq34s/VgaH3hkQg8ub6vHjCQ+e2H76gOJzvaz442mCliUeBTevKUeBW8G0Thbcl3b6c5R6iSTfHtBUH3hGpURpsb1EHamZ51Iw/OdS5DhkTO8cHLCd/Gs5dpb4MbaNEXN6nfn8EBEREdHFEVEBn5FJRqRGa1HuFXh1rzOwfG+Z+ou+X6jTnwBgfYEXs33VP+3uK1OXbyj0YWJlpalne0ahQx15CZoYNWETKDeGtlYteoRJfPxxlhs/n/QixarBCxfwS/hJp4ITTgXtrFo83ysKrWpNLXHJArN32lHgUo93r3gdHjmH5KORwKyVwp6rS8XQ5oawSZdX5/uwqI5AkCKAQxV+PNjJHBihYNJKGNhUD0uYqR5/2ePA/vLgoNHRyiDSyjxv4P4D1DwnkaidVYvHwgScC1zqveKqIxnzCaeCTjE6TKyRs2ZwMwNami+NZ1F9yQJ4bocd6wt9GJlkwIwu1dP42kRpcU8HM/o20cGslRClk3DMLmN3mR+d6plQOcGoQYJRA7csYKwx5CTbIeO1Gv82AECOs/pa/M9xN9YX+ALVHQF1NFkzowZDm+txd4fqoE0riyYoD1xtBW4lMJqvuUlzSd73mTYZL+5ynPY9O0vVe9CnCOyvnKa7Ot+LIk/1NbrspBejkgwYGWY0HxERERE1nkvvG+h5uKKpHlc01SPLLuNIjfwNg5sbMLjGaJxvczzYWeqHzS8CCTxvbmvCunwvtpX4Ue7zYEJbExojLUGeS8Hnx6or1qwt8Aa9/l2uB9l2GXtr5Mf5KscT+CJe0xc5HqzNV5N1NjGoCZ/D5W44H58fc2NXZWJmvwBKPAL/rFV5ya0IfHjYjSKPgn6J+gafakYNJz1Bh/Ra+ZRW5Xnh8HvRzKTBrW1N+DRLPZe943UY2sIAnwJ8muWC3S9QWtkJtOiqp9HUZtVLgQpcxR4Fn2a5A9NqjFopqDpXBOQkDivZosVd7YNHfBy2yfjnERcEgPEpRhyxycgo8SPRqMFt7dSkvstPeeGRq48zAHjPPY1Mo8h3q+d80REXesTrcV9HM0YmBY+W7BGvO+9poXkuBR9nuVDiUXBtkhGdYsMH70u91ddb1bVZ6KleFq1Tl4ULXv7W6SSErYbn9gt8eswNmy/8XbytxA+7X+DaZPXfzwntTBjfxojLL+F8ZERERET/iyIq4FOlnVWLN9Kjsb3EB6cs0NqiDUp0nGWTcdQuo0ecDm/2rc578fg2G7aV+NHcpMG8dOtZJ8ZsCCXe4CpOAHBls+rO0OEKGYcrZBTX6OW9d8iJdlYtWluCOzRSjXW/zPbgumQjmp579eIgTr/A9hI/XtjlwL7KYFNZmLYDgF8I2CsTllzT0oB7zzC1AVDzlpxwhU+KHaPXoHeYzqBfAbaX+OCukZTDqJHQJ0EflDenys5SP8p91cdRAnBZgh4nnQry3MH77hKjg1sWyKqVqLttlBZtorRwywIZJX74RPW+o7QS+jTRB5Jyn3IpyLQFB+ZambVoX4/qNsfsMrKdwftOteqQfJoRBopA4B6oopck9EnQBY16OJ0dpX68ddCFDYVe/KGVEX/tG135676CK5sb8GbfaLhkgTKPgiybgtX5Thyzy4g3qBWBhjbXI6HWSLiHOlWPbNlT5sfnx6oDPlc01Qfdk3euV3Cg/NySo9c+vwAC12E4uU45MPWnNlPldVRXvq3DNhknw1yvyWZtvaoXHbPL+OyYC/P2OdEnQYene0Rh8RE3Mkr8aGnW4I2+0dBJwGv7HPg2x4sPj7qwo3KqzTNeBZNTzRd1Guf5yHbIeKQy/9nkDjo0MUpYUyuwDajVybqfx6iYY3YZj29Tp2Xd2d6ECe3CP/y+qVF2/P6OFlzT0oDPjrnxwwl12fQulrA5fCJBO6s26H4D1EqP6wq8+DrHg9YWLRx+geMOGUat+uzQSxKO2mW0jtJibJvqET3toyPy6wQRERHRb1rEfkPzKAJ3rqvAgQo//tTFgj/3rp7SVNXn84vgDqDvEvilvGusDqtHxgctkwUCUzxMWgk6SR3pM2ZlGQB1mtDDnS2YUSOngksWkAWgl1Dvzn19+RVgX7kfV/9SCg3UxKM+Ra3IVLvtAFDhE+iztBhHbPXruLtkgTf2O7Eg0wlTjayhHkXApwADm+qx4dqEoHVkAZxyybhpdTkKPAp0knp+E40arLs2Hq0s2pBkoo9ttWFjkQ8+AXhkAQnAupEJ+PshFz4/7oJOkgLH/bMhsTjhVPDMDnvQuZjT04qZ3S3Idyu4eU0ZTrkUyALQadTg0bqR8TBUfoYfT3oCuUKcsoAi1Cpdb/Q9fbJdlyzwt4NOzN/vDAQhXbLA3D5W/LGTJez5lQVQ6lVw+7oKZDtk6CR1mVknYd3IeKTF6OocweYXgLvyM07bWIEdpX5M7WDGW/2iYfer7TZqJRgrP5dZK+GTIWry1tf3OfHsDjtKvQrGri7Dd8PjMDo5/DQPv6IGDmvyKdX3pOUcr1ul8n55YFMFthX7odeo+W5q76smt6xW8Zqz0xFS8csvgGaV11FSmOvIJatTSD884gwcE0Ad2XZvmgWvpVvDVhETlW0SAN495MRf9znROU6HH0bEB+4pnQZBI0se6xqFx7pGYWuxD1f9VAqnLPDiLgdcfoHX0i/9pM0+BUHT1V7e7cC8vY7g4yYL+AVwXbIRS4fHhdvMWe/HLYs6g33uGu9zVb7PLQtoJPXabuwkxG5ZwKMIaCUgSifVWb69IfgUgbUFXly/sgwWnYQPLrdia4kfc3ba0dykwbdXxaGJUYNndjgwf78Do5aXBe6rN9KteKCO5xERERERNY6IDfjUtPiIG9+fqB55ctKpRnZW53mRvrQ4sPx8SuxeSFuKfZi4vhwA8Lf+MbimZfD0h3f6R+P6NsGd6im/VmBbiQ9j25gw97KGzd/z/UkP/rjFBq8s8PmVsfgq24N/1ZiGdr7u2WDD0hNujGllwl9qtP3ZnXYsqWM/m4t9uHNdOU65ZbzZLwZXtzBgZZ4XD22uwIifS7F4UGzIr/SLroiBSwa+yHZjVoYdAsCEdeUo9Sq4ta0Zo5INmLC2PPD+SakmxBkkTNmg5piZ3zca41PU455k1mLV7xJw+7pybCry4bokI97qHw19jd7Z2DYmDGpqgF8AN6wqRWZF/QJgD2+24ascD65uacT8fmqn/o515Zi314kSjwh7fneV+nHLmjIcdyiYe5kVv29lxK+FXkzdUIHRK8qwcGAMRrQMn3T8x5OeQAW6HIeCmd0seKCTBfsr/LhxVRmyHQrm9IzClA6hI7UmVx6jqRsqQl6rbekJD6ZvscFf47b7ItuNdQVe6CUJXw07t85+tkPGjavKcLBCxuPdLLizvVlt+8qyOqeZzcqw46OjbgxM1GPRFcFV+pbneTF9SwWu+rkUHw2KDZm2MunXCvx00oMb25jw5xq5sp7MsOPTLBfKvQIfDw5OFAwAxW4FN6wqQ6FHQZFHYERLI/4+IBpWnYS71lfg+xNu/D7ZiDf7RYcEHbrH6bDhugTcuLIsJIn2pezLbHdIMuQJ7cyY1b06h88ft9iw7GToSMGz8Z9sF2Zur85N8/QOO17ZGz5XTc1A0IObbLDoAJtPICVKi6+HxSHtHEvDN5TZO+348IgbfZvo8cngWCSbL1x7Fh9x4/ldDsQaNPh6WCzSm+ixtSR0uvCfuphxV3sTjtr8uHF1OdyywF/2OlHsEXixgf+9ISIiIqJz9z8R8BnSTB80nH/eXie2lfjQOVaHx8IkD47RS0Ed9cbm9AscqgwOhPuVOtmiRUKtZCc5ThmHKuRAPqCGCvp8fNSFdw65ICvAPwfFYHhlYAVQKwbdWiNAUsWvAPlhKg7VJdcpo8wrEKOX0LFGZytWH/6cfJfrwev7nch3K3ijbzSub2VEskUDq84IGdF4crsdz2TYMaOrBX9oVR0Ya12ZXLp5jbxGxx0ypnU04540C1pbNPiscuTK5U3VqUnXJRvxj4ExeCrDho+zXEg0aTC2jRFlXgUv73Egyy7jzvZmPNDRjJRayatj9RJi9WrpcmM9rq9Sr8CT2234/oQHv2tpwMOdLYHjYdZKKHQryAtzXH866cG8fU4ccyj4y2VRGJ9iRJsoLWL1Rrw3MAZPbbdjzi47Sr0WjE+pvi9e2u3A7jI/sh0y7H7gL5dFwaBRp6U1N2mQ65QDQaqvcjxoadaEVIdKMGqQbKlfh7TCp04VqalfEz2GNTdg9k47pm+xYX9FaGfzdDYU+fDSLgf2lPnxTE8rJrQ1IS1Gi2YmDf41JBZPZdiRFWba1imXgiKPgst0uqBrDgD2l2vgU9RphjVHCZ1wyngqw4EVp7wY28aEaR3NQevO7GZBjE7C9yc9mPxrBeZeZkULswZf53jw2TE33LI6LfKPnS24LEGHVjWmnuY6ZZR6BXaU+vHOARfm9rEGBX1MWglp0drA6LHfir5N9Hi1jxWyAJ7KsCPbISPeEHyfWxsgV06/JgbM61O9nbcPOrG+wIfucTo80yMq6L1bS/x4rTIYdFeqCXtK/fgm14NOMTp0iNaGHZ11MeW5FBS6FXSL1dVreuDZ8ioCT2U4cMIp40C5H/EGCW/1j0a/Jnq8e8iJ/xxXg02ze0bBWvkMTjRqkGgEWpg1+GhQDJ7eYcehChn5l+iPJkRERET/qyIy4HPCqeDDIy4UexWMaWXEfR0tuC65ejTDp1lubCsBki0a3NI2NK9DsUfB/P1O+IXANS0NuCyh8fI3bCn24bNjbpi0EiammtDxDF/4S7wCi4+4kOtUcHVLA/ok6NGigSr4fHbMjYWHXajwCszoYsGtbU3Q1ehwGjQICXIAaoeirtwn4dzW1gS7X2BPmR+vVnXE2quJXeMNGrSJCt7YgQoZq/K8sOgknHAq+CSrOml0mU+dgrQq34tRyYaggE84k1LNmNLBjD6ViYtrXx8tzBrc0NqIF3bZsbbAh2taqqWIHX6Br7LdKPUK9I7XYWAD5PxwyQL/zfEg362gZ7wOV9TY5m3tTBjYVI++TUJv4cM2Gb+c8kKnkXDSpeCzGqOinH51usy6Ah9GtPBjfEr1es1NGlREaZESpcW4ygTNdQU+E40S4utRpe6L4x4kGDQho2JW5Hmx9IQHiUYNJqWa8UmWC6dcClKjtbirvQkVlclia+ctOpMch4yllaP5hrcwBEZnxBkk3NLWhFf3OpGF0G2OaaUGxdKitXDJAh8eccNWOcdzX1n4NlT4BP59XA3cpCfo0K9J8GcckKjHxkIfFh914YtsN56uDDTE6KXAfdIpRodJHUzoHBP+UWzVSWhp0eBMIYeq58StYZ5nl5LUaDWnkV+o1doulA7R2qAKi9/kerAePjQ3aXB9ayM+POJGReX5rTmys8CtoLzy2ivxKvjrficmpZpPmyvrtyqjxIefT3nhU4CPjrowMFGPkUlGpEVrcWNr9Tm5rsCHPWV+dI3T4YRTgVLr94YYvYTxKSb8db8Th8LcV0RERETUuCIy4HPcIeOZHeq0ge7xOhg0wC+nqpOCVn3BL3QrQcurZDtkPJVhh1cRsPaPbtSAz5p8HxZmuhBv0ODJblFoe5rErPkuBT+c9GJWhh3d43R4sJMFN7RuuDK520v8MGgk3NneGLaseiuLFq/0CR1JVOET+DbXgzJv/ToE93U0Q4HAl9kefJXtwaYiH6J0EjrF6DA51YTOdZRm9inAugJvSLLtqmDD6Y4doCZtnt7Zgt4Jp78tDBoJQ5oZ8EueF0cqgyt5LgU+BUhvog8b9Gpo0zqeOfG1IgQ2FPpCqgtVBYlqJ4uemmZGpk3G8coRMKvzg0uiH6qRcLprrA4WrRT2/sko8cGgkTAgUY+cykTINQM+24p9ePegE78W+nBjGyPm9rFiTYEXpypHK7WOqr6OTrpk7C07u1E+52JCOxOuaCrjsE3G9yc8eG6nHclmDRJNmgaf6jm8hQE943WBpMu5DgW5juDjWFqZlL2lWS3nvSIv9Dh7hYDDL9A9TgeDRsL2Ej9ubdugTb2o/ALYVORDQQMc71ynjAPlMjSSGnirqeo5UTUapajG/rYX+5FglHB15XTHVfle3NDGiGREXsAnx6Hg58r7t1e8DjO6WHBVi/DTPAvdCtYWeDGhnQmnm1F2wqlgU5Ev5JgTERERUeOIyICPTgM0qRx9sOCQCwsOueBTRGDUQJWtxf6wU5BkIeCr/VNmI7D7BZx+Ab1GrVhT1+yNCp9AsUfBd7ke3LepArEGDd7uH42BDfyl+9UwwZya/EIdHVWbzacmkK6vCp/AzSkm3NnejON2GcN/LsVzOx2w+wUmtDXir/1iwk7vitZL+HhwbFDARRFAuU/9ZbqhyirHGST8a0gsxqwsw+KjLiw+Wj2iaF4fa52dpobmqEwuq5MkxBpCP5tBI+GDy2OCAmRCVI16EmGPxydZbvztgDPs/vw1KpC9d8iFvx9yweFXk13HGiRoperttbdqseTK2KDRZYoAynwKpm+xI6PUh4ntTXh3QGhum3B8SvC1dboEzOfC7lOTNr+8x4GYypJuc/tE49okA/6b48ENq8oadH87SsI/e6pUjT5ZU+DDluIylHnVzxulk0ICmq+lV+eSaih2v4Cn8qZVz6/mgiYv9inqFLk71pXjmF2GWSshuo4pnPXx8ykvZmyxwa0AK6+Jh6fG87zqOVHlm1wPrq9MgP+XPlZc09IAjyJg9wUnfW6Mqo0X0h9aG3FdsjGokl3t57e38rj1baLDW/2i4VMEij2h955fUa/NzcU+zMqwY/k1ocn7iYiIiOjii8iAT684HbaNDq7itK7AhzvWBXewhrbQY+HA0A7nYZuM0SvKAh2exvJMhh3/POpGvyZ6fHZlLFrW8dPqg5srYNZKcPgF2kRp8f3wuKAy9BfLvjI/0peWhCxXoFbQqq97NlRgU5EP41LUhNNbrkuAgJrz4z/ZHpT6yvHV0Pol9M1zyxi9XE3E/GR3C6Z1DB2Z9Fs1b68THx5xoUusFkuHx9erek+ZT8HoFWU46VQwvYsZM7oE5zOZ3tmCyanhpwXtLvNjzAq1YzynVxTsfoE5Ox2w6CR8PSweba3VwR2tBDQ1BY+KOOFU76tMm5pM+Y+d638uthb7gq6t2uXWz9dTGXZ8kqVOa/moMhjQzHThRnUMaqYPeUbVdMsaNfn375MNuLejBaOXl8IvgGd6ROG2WuXFE+sxte5svbDLEUiQbtZJF/yZsr3Eh5vWlAeeE1PSzHi2Vq6dszG+jQnxeg3Gri7D+NVlgWla9fXTSS8erqyoBwAv9I7CXe3PPKrut9v8WF8AACAASURBVGZnmR/jThPMrBrdtjrPF/bZXiXPreCZ7hbcmWr+zeWVIiIiIopkERnwMWqloFEeX+W48feDTsToJbyeHo0FmS5sKfbBUut9gDqFau4eB/yKwF8us2JUmJLSbx1wBhIVN4R56dFB+Sb8QuDRrXZ8le3Blc31eKxrFFrXSoTbt4ke718eg0e22gJTIAY30+O5nlakxegapZRwmygN5oUpDe30Czy6zRY2wXA4+W4Fxx0yij0KDBqgTeU5suok2HwiZDvXtzbC6Rd4abcD922swPO9rBiQqMeWYh+e3WHHvnI/nuoRhREtGnYUxNM9omDRSVhyzI1mJg1e7xuNHnENd0slGCT83xUxeHqHAx8fdUOvkQJJxp/JsOOz426kRmvxeLco1Bhcg1HJRvzlMoGnd9jx8BYbZvewYkhzPXaW+jErw44dJX78qYsFo5JCj0e8QUK8IbRj/8spL17f54QkAa+nR2NcGyN8CqDXSHhuhx0v7bbjuV7WkEpoNTUxajC3jxU+Ra0ydTaBirRoLV7oXT3C7N/H3fg0K7Ri26CmerzTPwaPbrPh6Qw7Zna3YHSyEVl2GY9uteFomITNAFDkUVDqVUdxnG5K3nM77fjbQQ2ubG7A1A5mfH5lLJ7YZsOCTBckCbi/RkDxrQNOfHDYha5xOrxymRUta4x2Mtexn3yXgke32XDEJuPuDmry77QYHf4zNA6PbbPh8+NuxBsk3HeBA5fFHiWQUNuik9DA8bUQqdFavNWv+tmxq9SP+zZWIN6gwRt9o/Fsjyjcm2ZGUj3zkUXrJbQwayAAnKzxvNhVplaaq6nm8+T5nXa8e1CDE04FfgG8nm6FUSuhZ3xE/lOJdlEavNkv9JldZe4eBzYX+dA9XoepHcx4dJsNNp/AxPYm3NAmOPDYK153UaazEhEREVH9Rea3WKjTixYecqHIo2BdZX6Qp7pH4aYUI77NDS35+3GWG1k2GbvK/FhemdfgyuaGsL9qt7Jo0aMBOwC1B+5IANJitJjUwYRBTfUY3Cy4E70234dV+V5UVE6Vur2dCe2jtegepwvknmgMcQZN2JxBFT6B2TvtYdY4vZ2lfvx5V3Vi1+0lfqQ30eHuWpWh0qK1uKO9CTafgoWZLsw/4ESXGB0OVvixodCHhzubcWc7U0iFmw+PuJDjULC9pDpXzcJMF1qYNeiXqMe1Sac/lgMT9ehUmRTYopMwOtmI+DBTq2q2f2muB7JAIEi3qciHP+9ywKgF7kmzBK1v0koYlWxEkUfgH5nqaB5X5VSmT7Lc6BSrxX1pFgyvNYWsnVWLCe1MKPcJLMx04e2DTqzK1+GIXcbKPC/uSVNLKteVC6m2H0568Y9DThws9+PZHlG4ra0pMFXr9nZqguWFh5x464ATK06plYQmtAsdJVR1jM7GDa2NaGdVq1fVvLbiDRJSo7WI0UuIqjE1LdmixS1tjSjxKliY6cS7B13YXuxHnlvB1zmeQFn2rcU+/N8RFyZXXktj2xhR6FFw1C4HXXMAcKBGpbD1hb7AZ5nRRa36lu9SsCDThQ8Ou1Hkrh5J8mWOB2adhPvSzPj9GZKFA8D+cj8WZrrwRbYHN6cYMbWDGemViaCvb21EnkvBgkwnPjjsRoFbQCsB93Q0o+kFGOEzppURJ50yfjzZcIHt00k0akLO74FyP/6T7UZTkwb3pJlDEn+fSbJFg6e6R2FhpvrvwOVN9WGfj0atjI1F6nlta9WifbQWPeLVNo1tY2y0io2KUJ9Hu0r9GJCox13tGz4hd4Ix/DPbJavPjgqfwNDmBtybZsboZAOKPeq1fsqlQACB5M5EREREdGmKuIDPMbua5NWjCLy8x4GmJglJFrUD+mT3uqcIHCj3419Zbhy1y7DqJAxpbqiz8z62jRFj21y4L7paScJDnYJ/wfcpAmsLfHD5BT475sZPp7zol6jHsBYGPNo1CpedIdFwY8iyy9hX5odTFmeVc+XypvpA+d9NxdXBmBZmDa5LMuCetNCpFe2tWszuaUWxR6DAowTWG9vGhNk9rYgJkw9kX5kf+yrLjI+u7JAfd8o47pTRrJ4jCTrG6DC6lRHNTRroz7BKgbu6Xf1q5FfaVKwmpb5LEUCYekx3tjdBCGBJtjuwfrd4He5LM2NMHYGE1lFazOkVhVKvQI5TDqx3Q2sjnukRFTLdqja7X2BtvheKAP5+yIXdZX7cnGLC872C8zilRGkxp2cUSipzSC055kZ6gi4ox1LHWB3SzrGc9Lg2JoxrE7p8aHMDhjYPH5BrYtTgmR5RsPkU7C2v/uzX1TpW+2okg74pxQSNBPzfEXfQNVdldK11a95v96SZ4RfA0hOeoHWTLRpc38qIuzucfirQ5iIfCt0K1hf68I9MF4Y2N+DxblHoXmu02H0dzfAJgQWHXJi90w69JCHeKKFN5ei/JiZNg+Xtam/Voq1Vi3ijhKuaG4OCahfD0OYGOPwC/zrmxqt7HRjWXB80CrI+rHoN+jXR4eMsCfCoCbAHNNFDr5UwpJk+UG79m1wPPq+cvjYx1Yxr6hk031nqR66j7qmqZT41xxYAHKpQg72nM6iZAXE1/s2RBfC3g07sKfNjRhcLJp/hOmooRR41mfOLux1IidLivo5m3FZZ/e3J7upUzs+OuTF/vxNVzb2iWd3/XhIRERFR47n0ogTnocwr8OkxN57f6UCiUf3yObtndL0qVb3Y2wqjRk1Gmxajw1dDY2FspCSdAmrlmJppJ8q9Cib9WgGHT8CkBa5NNmLxFfVLeHshFXkUOPxqAuDaIw1+OeXFnJ12KAiuhHMmcy87fXLoukTrJSw6i2PyapjpZ2frjnYm3BFmNEs41yYZzjhqqC53pZpwVx25depi0Ej4+4Cz+4wVPgG7X+BwhR9jV5fDqpNg0KhVrMJN1wPUkUgLBsZg2kYbvs1145RLwb0bKwKvP9E9CtPPkK8n0ahBklkTNvn0uXqlz9l9djW4dG6jKO7vaMb99aicVsUjCxRXJmKelWHH5mIfonXq1KF/D41FdB0Bloc6WRCr1+DJ7Wp+mRdrjEYa1MyAJVfGhl3vbBS6Fczd48C3uR5c3dKAL4ae/zbDaWrSwFKZe+xkmOmeJWESwLtlgZLK4+Y9TWJ9h19gfYEX41aXo6lJvbY2FvqwOt8HWQDLro5Dq8pAWc39FHuUsG0BAItWCgrILD7iCgSK6mLUSEgyS1hxyosVYSra1fTd8PhAINGnCJxyCfgVdeRkuIB1Qyv1KnDJwNp8L+5YV46mRg1e7G3FyFrPrBd7W2HSSnhjnxO/r0x2/d+r4tC3cjSaXoMLMuqMiIiIiM6eJIRo3MzEDejRrTa8f9iFTjE6fHOVmtQ3zhBa1eb6lWVqZZbWRnw9rDr5r82nljmuqvLVWL9X+hSBa34pw8EaU0mUygpYCy+PxagkA4xa6ZL4RfX3K8qwMt+LsW2MeLNvdKA6GqDm7qnwCdj8Ar/7pRTH7DJm9YjCS73PLaBDF96fdzvw7kEn/JVVsb6p7MhZdNIZO51l3uoRDTVZ9RKsZxghUuxRy9rXZz+RYEWeF7dXJpEv9QrM6GLB9M4WaDVq8Ot0R6DqvqrNoFWr+Z2va34pxfoCH25ra8K8dCsSLlDnvcij4IFNFVh6whv2nHtkgdLK4M73w+MwKtmI73I9uKcymFjiEfAqAhNTzfiwVqB38VEXHt1qh90v8PPVcUiLVgMpawu9uHVNOZoYq6uO1dxPvEEDYx0DiSa0NeH1vtVBxHKfCEyxbAhNjNWjBDNKfBi1vAzFHgV/7RuDiamm86paVh8PbK7AV9keeCoHLf18dRy6x+nC/vBh8wl8fNSNBzar5yLBqEHVpdczXo9lI+qXVJ+IiIiILqyICvjsLlOH2McZNKfN97Ct2IcCt4JmZg3SExq2dHlDUISaK8QeJlNqnyZ6NL+A1YPO1oZCH8q8ClpHaUOmoFTxC2B9gRdOv0BqtA4dY5jY81J1oEJGlq060DiwKadqXAiFbgVba0z/6hijC8kx1VjWF/hQ4VOQEqVF1wZMQh7OrlI/TjjPXMGvbxM9mpo0yHMp+P6EBw9tscHlF7gvzYwHOlmCkiq/dcCJBZkuyAJ4s280BjXTBwKOxR4Fm4tCp+zVR6sobYMmZT+dzUU+DPhBrYr1z0GxuPMC5O8B1LxRj25T86vtLPXh8qYGTEk1Qa+RMKjGtLdwTjoV7CwNPZYxBs1pk7cTERER0cUTUQEfIiKKbKVegfcPO+GVgWtaGtC/Vt6i7094kFHiR7JFg0mpv81S6iedCv7viAsA8IfWxgsWaMp1KlhcuR8AGNhUjxEtGi/xPxERERE1LAZ8iIiIiIiIiIgizKUzN4iIiIiIiIiIiBoEAz5ERERERERERBGGAR8iIiIiIiIiogjDgA8RERERERERUYRhwIeIiIiIiIiIKMIw4ENEREREREREFGEY8CEiIiIiIiIiijAM+BARERERERERRRgGfIiIiIiIiIiIIgwDPkREREREREREEYYBHyIiIiIiIiKiCMOADxERERERERFRhGHAh4iIiIiIiIgowjDgQ0REREREREQUYRjwISIiIiIiIiKKMAz4EBERERERERFFGAZ8iIiIiIiIiIgiDAM+REREREREREQRhgEfIiIiIiIiIqIIw4APEREREREREVGEYcCHiIiIiIiIiCjCMOBDRERERERERBRhGPAhIiIiIiIiIoowDPgQEREREREREUUYBnyIiIiIiIiIiCIMAz5ERERERERERBGGAR8iIiIiIiIiogjDgA8RERERERERUYRhwIeIiIiIiIiIKMIw4ENEREREREREFGEY8CEiIiIiIiIiijAM+BARERERERERRRgGfIiIiIiIiIiIIgwDPkREREREREREEYYBHyIiIiIiIiKiCMOADxERERERERFRhNE1dgOIiH4r8vPz4XK5AAB6vR5JSUmQJKmRW0VERERERBRKEkKIxm4EEdFvwY033og1a9YAADp27IhVq1bBaDQ2cquIiIiIiIhCcYQPEdEZ5Ofn4/7778eaNWswfvx43HzzzbBYLNDr9Y3dNCIiIiIiorAY8Gkk27Ztw+effx60bODAgRg7dmwjtahxLFq0CAcOHAhaNm3aNLRv3z7sMbr88stx4403XswmnpPt27fjs88+q9d7U1NTcd99913gFtH5cLvdWL16NUpKSpCWloYRI0Y0dpOIiIiIiIhOiwGfRuJ0OpGTkwMA+Omnn1BSUoJp06b9zwV8CgsLsXTpUuzbtw9WqxUjR46Ex+MBADgcDuzevRvLli2DEAL9+vVD586dG7nF9eN0OrFnzx4sW7YMiqKgb9++6NChQ9B7Nm7ciGPHjmHYsGEM+BAREREREVGDYsCnkQwZMgRDhgwBAPTv3x8lJSWN3KLGMXPmTFRUVGDfvn1o3rw5Fi1ahJiYGADAlVdeibi4OPz888+QZRn33HMP7r777kZucf0MHjwY8+bNw/Lly+H1ejFlyhRMmzYt6D0zZ87Ehx9+CKfTicOHDyMlJaVRpwjl5ubC4XAgJiYGLVu2bLR2EBERERER0fljWXaiRvLCCy/gkUcewbZt23DllVciNze3Udtz//33Iz09HbNmzWrUdhAREREREdH54wgfoovM7/djypQpyMrKwqBBg7By5UrodLpGH1XjdrvhcDgCU+qIiIiIiIjot4sBH6KLTAiB7du3Y8+ePejbt29gah8RERERERFRQ2HAp4GsWrUKx48fD1o2YsQItGrVqkH3s3LlSmRnZ4d9rW3bthg6dGid63777bd15grq3r070tPTQ5ZnZ2dj5cqVdW7zuuuuQ9OmTc/Q6gtr79692Lp1a9jXoqKiMGbMGBiNxpDXfvjhBxQUFAQtGzNmDBISEkLeu3r1ahw7dixo2YgRI1BYWIhdu3YFLe/bty+6desWtGzjxo0wm80AAFmWUVZWdtrPlJubi+XLl9f5+rXXXovmzZuHfe3AgQPYtGlT0LJu3bqhb9++Ie/NycnBihUrAACnTp0CAGRlZWHx4sUAgFGjRqFZs2Z1tiM/Px8//vhjyHKTyYQxY8bAYrEEltntdnz77bfwer2BZXFxcRgzZgx++OEHFBUVBZZrNBqMGTMGcXFxpz2/tZ3pHiAiIiIiIvpfwYDPeVIUBZmZmZg7dy527NiBFi1awOfzITMzE/Pnz8f48eNP22GuL1mWkZmZiZdeegm7d+9GixYtgl4/deoU+vTpgxYtWiAtLQ0aTXV6JpfLhczMTDzxxBOw2+2BgEZV2z0eD2bOnBkS8MnPz8dXX32FJ554Ah06dIBOp14upaWlgQpjGzZsaNSAT3Z2NhYtWoQFCxagffv2geX5+fnIz89H69atMWzYsKCAj8fjQWZmJmbNmoWCggIkJibC5XLh8OHD+Pzzz3H11VcjPj4+aD9Lly7FsmXLYLPZkJWVBQB4++23sWfPHvzrX/9CUlISMjMzIcsyXn/99ZCAzy+//IKMjAwA6gifmsGN2goKCvDf//4XM2bMQFpaWuC412z7+++/jzFjxiAxMTFo3dzcXHz00Ud48803A1XBsrOzccMNN2D27Nlo165d0PuPHDmCN954AwACAcsDBw4ElvXq1avO67eoqAg//PADpkyZgrS0tMAxttlsqKioQGJiIvr374/o6GgAQHl5Od555x3YbDacPHkSRUVF6NChA1q3bo0nn3wSpaWlAIATJ07AYDBg+/btiIuLw7Zt2/DCCy/g6NGjAICUlBTExsYCQOBe8/v9aNGiBe64444GDfhUXUenTp2CLMto3759owc4iYiIiIiI6kXQeamoqBCdOnUSkiSJmTNnCp/PJ3JyckTLli2FVqsVL7/88hm30a9fPwFATJs2rc73lJSUiNTUVCFJknj66aeFz+cL+u/xxx8XkiSJLl26CLvdHrRuRkaG0Ol0QpIksXDhwsA65eXlomPHjgKAmDlzZsg+58yZI7RarUhJSRH5+fmB9RYvXiwACABiw4YNZ3/Qapk1a5YAIFJTU0V5eXnQazt37hRarVYAEAsWLAhZ98477xQajUYMHz486Hg899xzAoBo3bq1KCwsDFrn4MGDIiYmRkiSJObPny98Pp/YvHmzACC0Wq348MMPQ/bj9/uFz+cTS5cuDXx2rVYrNBqNuOGGG8Thw4dFfHy8ACBef/11IYQQe/bsEQaDQQAQ77zzTqBtTqdTdOvWTQAQM2bMCNnXyy+/LLRarUhKShK5ublBn+vAgQMiOjpaaLVa8fbbb4ese++99wqNRiMGDhwYWOfWW28VGo1GjBw5MuT9iqIE3jdixAgBQNx6662BZYqi1Hne3n77baHVaoXVahX79+8PrPPdd98JAEKn04mlS5eG3df06dMFACFJUuDafPfdd8W7774rAAiDwSD27NkjhBBClmXx888/B477kiVLAts5duyYaNasmQAgXnrpJeH3++ts77l4/vnnhU6nC1yDy5YtE7IsN+g+iIiIiIiILgRW6ToPGRkZuOqqq3D8+HG89NJLeOihh6DT6QIjMmRZhqIoDbY/WZYhhIBGownsp+o/jUYDIQRkWQ5ZTwgBv98fdl1Jkurcn6Ioge3VXEer1TbYZzpfVcdYkqSQ4xHOTz/9hPHjx8Nut2PBggW45ZZboNPp0LVrV2zatAmpqal4/vnn8frrrwetp9VqQz57Van4V199Fa1atcIvv/yCTZs2YcKECSH7bYjjXnP/4a6tiRMn4quvvsLYsWPxwQcfBO2r5jZrqnncqtoUblltL7zwAubNm4cePXpg1apVaNu2bWCdwYMH44cffkB8fDxmzJiBRYsWhWy36vxUXZuLFi3CuHHjMG7cOGzatAnr168PjNjSaDTo378/li9fjqSkJMyaNQsffPABNm7ciBtuuAGlpaWYP38+Jk+e3ODX5pQpU7B+/Xp8+eWXiImJwfTp0/Hpp5826D6IiIiIiIguBE7pOg82mw3btm0DAHTo0CGQrycmJgavvPIKnE4n+vXr1yD7slgseOmll2Cz2dCnTx/s3r0b77zzTuD12jlbamrdujXee+89vPTSS/joo4+wefNmpKamYsaMGXj++edRVlaG3r17h6w3ZswYFBQU4JNPPsGjjz4Ko9GI8ePHo3///njvvfcAIGSK0MV29913w+PxYOPGjZg2bRoAYNq0aRg9ejSaN28Oq9UKq9UaeH9JSQl2794NAPjuu+9CcsMUFxejuLg4JB9TOA8++CAmT56MtLQ0AECfPn3q1WatVovZs2ejpKQEPXv2DHl91KhRSExMhMViQUxMDN5++23s3bsXAFBRUQG32x12u3v37kVhYSGaNWuGrl27BpZPmTIFQ4cORXJycr3aVx9ZWVnIzs5GSkpKyFTA2NhYXHbZZdDr9Th06BBOnjxZ53aSkpLw9NNP47rrrgtMHQs3hSwmJgZ9+vSB0WjE4cOHkZubi+TkZOzYsQMA0KlTpwtS5Sw5ORnJyck4fvw4dDodDhw4gLy8vAbfDxERERERUUNjwOcCsFgsuPPOOxt0m0ajERMmTMBPP/2EjIwM7Nq1Cx9//DHGjRsHk8l02nUTExNx3333oaioCNnZ2dizZw9++eWXQB6Uq6++GqmpqSHr9e3bFzqdLjCS5Ntvv0VxcTGuueYaJCQkYOzYsY0+2mfEiBGQZRlNmjSB2+3GF198AY1Gg969e6Nt27YYOXLkadcXQgT9PW7cOADAoEGDzrjva6+9Nmyi6zPRaDS46aab6ny9T58+SExMxI8//oiPPvoI//jHPxAVFYXevXuHtLc+RowYgREjRpz1ehdDQkIC7rnnHuj1+rNab/v27SgtLUVUVBTGjh3b4MnRiYiIiIiIfusY8LmAMjMzUVZWhoSEhLABlbPh9/uxb98+zJ07F4cOHUJycjKGDh2KN998E/Hx8XjyyScDox1qczqd2Lt3L373u9+hXbt2WLFiBV577TUsWLAAe/fuxbPPPou77rorpNN84sQJ+Hw+PPjgg+jatSu0Wi22bt2KV155BUIIJCcno2fPnkEjaC62o0ePIj4+Ho888ghatmyJkpISbN26Fd988w3at2+PFi1aoFu3bkGJj6s8/vjjIYGdvXv3wul01lkB62I4deoUvvzySzzxxBPo1q0bLBYL7r//fkyaNAmHDx/G0qVL4fP5zmqbeXl5yMnJgU6nQ7du3WAwGC5Q6y8crVaLnj17oqysDN9//z0AdQTOa6+91iCJ0YmIiIiIiCIJc/icB0mSAiNcFEUJyqkiyzKmT5+OgQMH4qmnnjrvfdlsNlx//fVYtWoVpkyZgs2bN2Pp0qUh1aSq9l2V7wcADh48iP79+6N///745ptvcPPNN2Pz5s1Ys2YNUlJS8PTTT+Nvf/tbyHYWLFiA/v374w9/+AMqKirw7rvvYvPmzXjhhReQlZWFQYMGYc+ePef92TQaTSCnS812CyECx1Sj0YTNJ/Pss8+if//+ePDBBxETE4NvvvkGmzdvxr333ou1a9dizJgxQSXQa5+zmvvy+/24/fbbMXDgwECVqsawaNEizJgxA02bNsWPP/6IzZs3Y9KkSSHvq8rLU/sY1TxuVe9bvHgxBgwYgGuvvbbeU5JqX0c1VZ2zcHmjai6r67ydi+joaHz99de46qqrAASfSyIiIiIiIgrGgM956NOnD9auXYvWrVtj5syZgZw6RUVFGDlyJNavX48HHngA8+bNu2htOn78OAYPHoz09HR89tlnF22/5+PBBx/Eq6++ipycHFx55ZXYvn07AHUK2S233AJFUfDxxx9j7Nix572vkSNH4osvvoDJZMLdd9+Nzz//HIBaijw9PR2HDh3Cc889h8cff/y893Whvfbaa0hPT8ett94KRVHwySef4MYbb8SSJUuCAkSzZs3C/PnzMWDAAKxYsaJeuW6ysrJwxRVXID09HUuWLAl5fc6cOXjssceQkZGBwYMHIzs7O/Dar7/+imuuuQaFhYWYP38+pk6d2jAfuJYhQ4bghx9+QEJCwgXZPhERERER0W8Zp3Sdh6ioKPTt2xd//etf8corr+D999/H9u3b4XK58Ouvv2LatGmYNGkSUlJSQtZdv3493n//fQBq5xoAVq5cicmTJ0On02HOnDlBSXajoqIwb948zJ07F9988w1ycnKCtleVPNrj8QSSEhcVFYXsd9GiRVi7di0AdZpYXl4epk2bdtqcMsXFxXjooYdgNBoBqNOokpKSMGfOnPOeqgYALVq0wLhx4yDLMubMmYNnnnkGLVq0wOHDh+FyufD+++8H8gbVZd++fZg8eXLg7507d6J3796YNWtW0JSzuLg4DBs2DAsXLsQLL7yAN998E8uWLUNxcTF2796NOXPm4LbbbgtJcPz3v/8dmzdvxokTJwLL5s+fjy+++ALp6el46KGHgt6/YcMGvPrqq/D7/QCAf/7znzCbzZg4ceIZj8eYMWNQVFSEBQsW4E9/+lNQjiabzRZI2nzixImg9qSlpeGRRx5BVFQUli1bFjgea9asQe/evTF9+nR069atzv0+9thj0Ov12LRpEx599FFs27YNTz75JHr16hXy3tatW2PixInQarV47bXXMGPGDMTExATalZubi1dffRU33HBDYHpcYWEh5syZA6fTiS1btgTeO3XqVGg0GkycOBHDhg074/GpEhMTE5ScmoiIiIiIiKox4HOe9Ho9xo0bh4qKCmRkZABQp55MnToVU6dOrbNDqtfrER0dDQC47bbbgl4LV1bcYDBg/PjxKCsrw65du0K2N2zYsJDOclVHvWnTpnj44YfDtuOuu+7CpEmTwlaYGjBgQNj1evXqhZEjRwaCUw2hbdu2uPvuu1FUVBQIaFx22WUYPXo0Jk2aVGeZ9ZEjR6JJkyYhywcPHozu3buHDWTFxsbijjvuQFFREY4ePQpAPWcPP/wwpkyZEraay7pmBQAAIABJREFUldlsRnR0NDp37ozOnTsHvRYuabZOp0Pr1q3x4IMPBpZVBczOpGfPnpg6dWrYMurR0dGBamRVkpOTA9OmBg0aBEVREBcXF3h99OjRGDFixBkTWI8cORJutxvLly8HADzwwAOYMmVKnZXYunbtiilTpsButwct79y5M/r164fJkycHEoMD6vQuq9UKrVaL4cOHY/jw4UHrnW3iZiIiIiIiIqqbJM6l7A8R0UVUXl4eGLn2zDPP4OjRo7jtttvwyiuvXJT95+Xl4e6778aGDRtw++2349Zbb4XFYkHv3r3rDEYSERERERE1JgZ8iOiSt2bNGowaNSrw98yZMzF79uyL3o7Ro0dj1apVAIBOnTrh119/DTvCi4iIiIiIqLEx4ENElzyn0xmUGDoxMRGJiYkXvR05OTlwOBwA1Cl6bdu2bbAqZERERERERA2JAR8iIiIiIiIiogjD5BNERERERERERBGGAR8iIiIiIiIiogjDgA8RERERERERUYRhwIeIiIiIiIiIKMIw4ENEREREREREFGEY8CEiIiIiIiIiijAM+BARERERERERRRhdYzeAiIiILg5RWgbh90MymyBZrdXLK2wQHg8kvR5SXGzjNVCWoZSWAUIAACSTEVJ0dOO1h4iIiOg3jCN8iIiI/kfYH34UFaOuh/udfwQtd77yOipGXQ/H07MbqWUqJS8ftpsmoGLU9agYdT1cr735/+zdd3gUVdvA4d/M9k3vHULvXUAQRFABQREQBAQ7vmLv5cOG+lpee6/YULCgYgOUItKb9A4JJCGV9Lp1Zr4/NixZsgkBQhHPfV25yJ4p5+zszIR59pznnNH2CIIgCIIg/JOJHj6CIAiCcI5TMzKpnPYs7o2bMI0ZhXHkFT7LTROuBocD58LFVNx5HwHPPIEUHn5a2+jesBHbS6+jpGVgefBe9G1bI8fGntY2CIIgCIIgnEtEwEdoNGpuHo6vvva+1vfohmHggAZtq+zdh/OXuT5lug7tMV42+JjbutdvxLV0mfe1ceQV6Fq2aGCrhZOhZmbh+Ga297W+d08M/S84gy0CtbgEx4yZ4HJ5y6ToKMzXXgOShPOPRSjbtvtsY7z8MnRt25zupp4Q95atuBb+6X+h2Yz5umuQgoNPb6P+JdRDh3DMmFXncuMVw9C1aX0aW9RwWkUFrsV/gaqia9emVjv1HdvjbtkC7dvvcS1bgWa3I53mNqqH8nGtWuNpT/euGPr0Ps0tEARBEARBOLeIgI/QaDS7HWX3Hlyr1qCVV2CefEODAz5aeQXKnr0AuNb9jVZU7PkWuiEBn42bsL35rve1rlMHEfA5TdTsbJ9jb7ljyhkP+OB0ouxNwbV8BVpxCXJCPMZhQ7yL1dxcnAsXo+zcDTodhr69MVzY7ww2+PhoxSW41q7HvWYdAPrOHZHj41ALi1B27EIOC8VwySDkmOgz3NJzj2Z3oOzei2v1GrSycnRNm6Br1wbNreBetQbNbsd09VXoWrc60031oWZlewIpmoa+T2/kxAS/6+maJaM/rwfK7t24li7HcPEg5Oio09xaQRAEQRAEobGIHD5Co9ElNyXww3eQE/w/TNRH36MbgR+/R+DH7x33w5IUGIicEO/9kSzm467/rKQoqDm5qFnZaOXlp7w6taDQU1dRccM3Mhl9j/1Z0LNEjokm8N3X0bVqCYDhgj5Yn5wKkqe/gvn6SZiuGQeAZDBgffYp9L3OO2PtPV6Giy7EOvUh72vz5BsJ/Pg9rFMfRgoNofKxabgWLUErO/XnzLlAs9tRs7I9577DUe+6uiZJBH78LnJSIgCGQRd57lvvvYG+cyccM2Zh/2ImakHh6Wh6g7lWraHq6edA07A+8WidQVnDkEuw3H83WkUllQ8/jnvzltPcUkEQBEEQBKExiR4+wj+e8aqRPj04pMCAM9iaxqMWFVN+zQ2ohYVY7r4D8+QbTml9VVOfwrVmLcbLhhDwv/82aBt9hw6EzP/5SIHZdIpaJxyLvmtngr/7irKrJ1H17AtopSWYb7/1TDfrrOdes46Kux8AIPCjdzCcf/zDiCSzmcBP3qPy/kdxfvcDWmERgR+81dhNFQRBEARBEITjInr4CP94ktmEFBbq/cFgONNNahyqilZa6plG2W4/5dVpFRWeuiorG76RXu9z7CWL5dQ1UKifXu+ZTluW0Sor0Wyn/pw5J7hcnvO+uARc7hPbhyR5ercZDWh2O1pFReO28SQ4ZszE/sF05KZJBM38DF2z5HrX13dqT+BH7yBFRGB79S0cP/x0mloqCIIgCIIgNDYR8BEEQThHSGYzljtuRdemFa4Vq3DM/vFMN+lfxThqBIaLLkTZfwDbm++ilZ/5wI+SegBl7z6kgAAM/foiBQbWu74UGorh/N5IJhPKzl2oGQdPU0sFQRAEQRCExiaGdJ3j1IyDuDdvrXcdfY9uyAnxPmXudX+j5uYBIFktGAb0B4MBZeculJT93vUM/S/w9KrxQ9l/oPbMW61bNupsSO6Nm1Ezs3zK9L16NGgqX9eKVb75aiQwXNgfKaTx89C4t25DTcvwu0yOjEDf93zva2VvCsruPWilZd6cIsquPTh/met5aBvQD/T+L133lq2o6f4f0OSoSPRHzXqj5ubhXve35/f8As+/Wdnez83Qvy9SWJjf/Sn7D6Bs3+lTpmvVEl27Y3++yo6dKKkHfMr0XTohN21yzG1Pl5rXwNHkxHj03bvVKtdKSnEtW+FTJkWEY7igT+11HQ7cS1f49N6SAqwYBvTHtfZvtELfPDCGC/t5evDUx2TCNGkCrqXLcf6+ECk0FNPY0d7Fyq7dKPtS/W4qhQR7rvM6uDdsQs3KrlWua9u60ZMUK/tSUHbtqXcdwwV9kCJ8pw13LVuBVlJao3Gy55oOqh3kcK//GzUnz2fGNvfqtd5E3/oetT/fYzFeejHq3hRcfy3D8fmXmMaN8dat5uTiXr+h7vdT37009QDKjp21yuWYaPS9ex53OwVBEARBEIR/BxHwOce5t++g6vmXfB7UpOBg5MhwUDWUrGysUx/GNPpKpPAjD/aOOb/gnDvf8/CTmEDI/J+RQkNw/rUcxyefox7KByD459now7r6rdv151Lcq9Yix3uCL2pePqbRIzDffQdybEyjvD/n3N9xLVqMZrOj5uQCEDj9PYz1BXxcLpSsbKqeewk1Jxc5JAjN4UTNziFo+vvo+/T2+4B4otTsHOwffopryVLkqIgj5YcK0CoqMPTpTVCNgI9rzTocn3yG5lbQKqs8ZStWomzfjpyQgL5vbyQ/AR81Kxv7B9NxLVuBHBnhu6ykDF2zpgS8+Qq6hHhvwEhJ2Y/t1Tc86+R4ghvK7j3eMl2LZHR1BHzcGzdjf/s973mEy4XljilYjhHwUXNysX86A+e8P5CjI6vbnoP5rtswTRxfq+2nnaKgZmVT9dpbKDs9s14dpubkodlsGEdeQeBRAR+tvBzX6rVU3HEvcmI8ktGIWlqGnJhA4Duve457jeGGWmUVtvc/RisqRC0qQSspQY6PJ3D6e1S9+DLqwUwkWfYG4oJ/+xF9aKcTfltqbi72z7/C+ctvtWZe0sorkEJDCZz+vqedJmONhRpqZha2t97DvXETco37hJp7CNP4sZhv/0+jzQqm5h3C8fV3OGZ+43OfOHyMMOjRJSSga5KE7nDAx+n0XNPPvIBWWIQUHIhmd6AVFBI4/X30PXvUyu3l/OlXT9C3+hoDcHw/B8lixjBo4AkFfOqiFRfj/GMRVU8/5zm+uiOdazWnCzUrm8D33/IEfYKDfI9Hfj7O2T9i/+Rz770UQC0uRde2NYGvvOAJ2Ot0jdbe003NzUOrsqHmHQK9Hl1CPJL5HEm+LwiCIAiCcAaJgM85zjj4EuToaMpGjfOWmUYMx/L4o2h2G+Ujx2F78RXU0hKsD9zrXcc67THkkGBs737osz/L5BuQw8OofGhqg+rXdepA0JefAlB5z4PYv/ketaCQwI/ePcaWDWN5+D4s99/tedC+8T8N2kbJzKJ81DjU4hKsjz2CaeJ43Dt3UT56PBV33ov1xf9iGn1lo7QPoPLeh3Ct34DpqpFYn37CW171yGM4fv6t1vrmCWMxXTUS9VA+5aPHoRYUYr7+Wsy33gyyVOeDUOVdD+DatBnTuKuwPuH7+Tg++Zyq196ifNwkgn/8Fjk+DgBDn14Ez/MkXa646VZcq9ZgGNCfgFf/B1DvjGemK6/AeNkQtKpKykeNR0n334PpaFWPPI5zxSpMw4Zg/d9zAJRfPRH7W++hFRVjffrxBu3nVNHKyim/bjJKWjqW2/+D+Y4p3mUVN/4H1+q1frdz/r6QqqlPgSwT+O6b6Nq0xjFjJlX/e4XyqyYQ9OM36Gr0YJLDQgma+RloGvY33sb2wXTUnBzKx1yD5nBgffh+CAmh6tHGOR5Vj03DuWQZxksHEfDaSz7LHD/8RNUTT1M27EqCf/wWXfu2R46H3U7FLXfg3rMX843XYqlxn6i47W7sX85CKywk4J3XG6WdtudewjF3HoY+vQn88Mh9wv7629g+nI4cH0fQD7OQI44EBpUD6ZSNGodWWYn16ccxjb0K95YtlI+7jopb7yTgtf9hvPwyn3osT07F4lZwLfmLitvuAcD63NMY+p4P+sYNnthnzML+9vvIsTEEzZ7pM5udkpJK2ahxVN77ENZnn8Q0fqzvtq+8gf37nzB07UzgjE+OlH/wMba336d80o0EzfnW53j801Q99SyupcvBrSDHxRL0/SzkqMgz3SxBEARBEIR/PJHD51yn1/s8tJtv/w/mWycjBViRw8IIeOd19Od1x/ndj1Q9+4J3Pclk8p/82Gj0LGsA4+WXEfDcNKQAK1KAFcsjD2AaO8oTnJl8O2pxyUm/Pclk8uy/gd8Gu1auovLO+1GLSwh49kmMV17u2b76GGk2O7hPMHFrHTR79T71eu+xkAKsdQ7LwmDwrGO1eKcSx1hdZqlR1sB6pAArGI2gKGhVNtC0IxvpdEfWOdxDoMb2yPXcIgzV61mtIPtvU01q3iHKr5uMa8NGzBPHY77vLp96NKcTzek85n5OOU1Ds9lAUY58Fkcfo6PYP/7M80CfEEfw7Jno2rZGCrBiHDWCgGmPoxYWUXnHvb7BIklCslo8+z18rWkaWlUVAU9NxTj6SoxDLib4+1kEfz8LXcvmJ/e27A5wufyeH5LJ6EkSXlkFqurdRtm9h/KJN6Kk7sdy122Yb7zOZzvr449gGnkFzmUrqbjt7uNL+F1XOx0OcLp8zk2fYyRJnnOu+rNw/bWcyvseQquoIOCFZzAOG4oUYEXfuRNBX3+BFBGO7ZU3sM+Y5VOP995R434mmWuXNQqXy/O+qtvuc+wP33vsR917FIXK+x7BuWAxxiGXYP3vUz7bmcaPxfrwAyhZ2VTcNAX3pn/uFOqW++8h6IvpmO++DfVQPhVT7sa9u/4hfYIgCIIgCMKxiR4+/zK65s2Qk6t7Gcgy+i6dkCLCUVeuRtm9t1HrkmNj0LU70lNA16oFcmIiWkkp7k2bPQ+fp5lWWIR76zZPe9q38w5DkeNisU7z9KTQd+vSqHWaJ9+I/bMZuDdspGraf0HWYZ4yGeOoEeg6dUSOO3a+oQbVc+vNqAWF6Nq1QT2Yif2Tz73L3Nt2NEodJ8XhwL1hI1pZOXKTJHQtjgQwzLfchJpfgK5t6zPYQA/JasVy313Yp3+O669laKWlSCEhmKdMxnTdRAyXDELXopnPNkpaOsqBNOTICJzzfod5v3uXqbl5oCi4t2xDKyqqv+6wMCxTJmO4bLB3OJMc2Tg9HUzXXoNh0EXomiejFhZi/+ATcHkCbMreFL/baOUV3rwzupYtkJMSfZbrWrdCTohHKy725Apr5GBpQ6gFBd7z27VqDcrefd5lmqKgVVSgZmad0eTDhoEDkMLCkIICkcxmHF98hXIgzdPG4hJPcPFomoZ723bUgsJa91IAOSEeXZtW4HTh3rgZrbS09j7+IXRtPDmg1KIin/uEIAiCIAiCcHJEwEcQADkiAvPN15+SfRtHDPck6F21BuVAOq6ly5HCQ5FjY9Gf1x19lxPPy+JTz5WX496wCeVAGu5Va7B//hXGSwYiBQXBWT5Ft3HE8DPdhCPMJkzjx6JVVKLs2Il71x6UXbuRI8LBasXQv2+dSYo1RUErLfMpkywWTGNGASAnJtRbtRQchOnaa048h5TTiXPREtSsbHTt2vokizYOvRT3th0oe/bi/u4HHJ9+gb7v+ciREZ4eTWcJfZ9eKBkZqLl5OL6f4y1Xdu9BTkzAOHRwnb3jtIoKtKN6JhovGeTZb+eOp67R1dxr1+HevgM5JgbjsMGeHnlUJ8aPjcG1ei2OX+di/+IrJIsVXeuWZ9UU7oIgCIIgCMK5RQR8BKEGJS0d7A6ksNDGS0KbnoG+U0cM/S9AKymlIjsb58+/oebkYrx4EPIDdyM3STr5etLSsX/4Ca41az2z93Roh/XJqchNkrB/MB13jdmIzkZqbh5aSSmSxXxmZ+tSFJS0dAz9+mIceQXKnn1UTXsW+5ezUA9mYpo4HvPNN3jzINWkS0ok4HXf/Dhalc3bu0ROqL1NY9JsNqqefQE1MwvLvXdinnyDd5l6MBPHF1/hnP8HcnwccvNkrI88gK5jexzffo/7742ntG0NZbz0YpT9aThn/4D9w+m+y4YNwfrYI3Vua7n/bvSdawRQNc1zTTucPknpTxX7FzNx/jYfw4D+WJ950luuFhTgnL+AqudfQpfcFHQ6TDdei2nMKJS9+3AuWeYzlK4xyTHRyHGxaA4Hyp69yM2S6x0Cq1VWoexLAZcLOSH+zCdRFwRBEARBEE6YCPgIwmGaRsWd96Ls2I35hklYn3qsUXZbce9DuDdvxXTNOAL++xQh8z1JkivvfwTHT7+gHjpE0NdfnHw9dz+Ae8s2TBPHEXD4YfMfNHOP7e33ccz6Fn2XzgT/9O0Za4dWWkb5dZNRs3Ow3Hsnlrtv935m5ZNuwj79c9TCIgLfeLlB+1O276Bs3LUABL77OsZhQ09Z2+tT+dg0XEuXYxw2lMC3X/UUnoXnR9VzL+GcOx/DgH4EfeqbNL6u/FV10ZxOKm69E2VfKuZbbsI69aFGbGnDOWbMwvbWe8hxsQTPnokUElx/fqxGZL51MlJ4GJUPP0bpsFEE//o9+o4d6lzfvWkL5dfeBIpC4IdvYxxy6WlppyAIgiAIgtD4RNLmfxnbW+9h/9Az04vmcFAx5W5cy1divGok1meeOMbWYP9sBrZX32xQXc6f51I59ci33LYXX8Hx5Sz0PboT9MV05Dqm+z6VDP37Efj+m0gmI5UPP4ZzrifXipK6n7IRY1H3pmK541bMN99wjD0dB0Xx5DZRFM8Dq17v+ZFlz7f6/vJ3+OFasZqyEWMoGzEGZcfO2iu4Fc/+ZPlIHUc9IGvl5ZTfPIWyEWNwzPquzrrUzCzKx1xD2Ygx3mN0suTYGIK+noG+Uwfsn3yO7fW3vcsqH3gU59zfMV4yiICX/tso9QW8+CzGy4fhXLSEinse9Cartr39PvYPpqNr18YzG5C/YVZut+dHVX0/M0ny+5lZbrsFy523eWZcunIsalo6AM5f5lL56BNIBgOB777hmQHqFHFv3Ub5hBtQD+VjmfowpmvG+a6gHD4/pDrPD/AEKMtGjMH+4Sfo2rclaPZM5IR4bC+/jv2Lr3zWrXr2RRzfzMbQpxdB099HCjzBoWg1WB66zzNz3oZNlI0e7/szahzlt97hMwTNOOgiAt96FWSZyvsfwfnHIs/b3bOH8qsmoB5I8/R2un5Sg+q3f/4lZSPGUHHbPWiOhiUR1+x2KqbchWv5KoxjRtWeae7wOXP09X8U23sfUTZiDJUPPAo6HYHvvIZx4ACcP//mmQGuBsd3P1D1zPPI4WEEfTkdffc6ppHXyZ7AnqZ5zumaSdv9vpka6+l0py0wJQiCIAiCIDQ+3bRp06ad6UYIp5aWn4/jq288v5eWoeYdQtm9B9fiv3At+hPjZUMwXzsBfft2PttJAQEgyyibtqDm5OJaugzXwsUoKalH9l1S6hkycPihWdNwfPUNWkEhWlUVWt4hlLR0XIuX4FywGF2rllim3Iy+d0/Pg0g19/Yd2N54B9fiJSgbNnlm+7E7UPbtw7V4Cfq2rX2mMj7M8e0POGZ9g2vZStT9BzxNKCvD/fcG1OycWvlxJIsZOTYGOTER15p1KPtScG/ZimvxElwrVmGZMhnj6Cs9wy4aiePr7zyJe+12lD17PXUtXoJ73Qb07dthnnyDTwJjL52MHBuDeiAN9eBBlK3bUVNSMV03EX23Lp7Pp+Z7CwtDzctDTd1f/fkuOVLXqrWoObmgamj5Bai5eeg7dcDQp7d3ezkkBK24GGXvPpR9qZ7eICOGY+jX1++wDteqNdjf/wjXn0txb9kGTifYqnDv3IWydj36Lp19ZzvS6TznSnQUaloa7vUbvZ+va+FijP37Yr7h2kbLaSRHhHuG5ZWX4/prGWpGJq4/l+Ba+Ce62BjMd07BcEEfpKPzwdjsOGZ+g1ZeAVVVuLfvOHIcN2zC0L8vponj0dUYhicFByPHRoPJjPPXuaiH8nGtWo1r4RK0ygqsD9/vyacUEuLdRquowP7qmzjn/4F7zTrUQ/mgKqjZubj+WopkNvvUcZh77XrsH33qvQ618grcGzfhWrQEZfNWLPfcgWnEcOSEeN/jEXr4801BSUnxOT9cK1ejZmZ59ldYiJqbh655M4xDLkUXG4McE4OyfQfurTtQdu46st3Cxejat8P8n5vQ9+xxUsEBze7A/sY7uFauQtm2E8lswnzNePQd2nt/0DRcC/9EzcpG36oFUlgoksXiSWqclIRrxWqU1FTcm7fgWrQE99r1mG+fgmnkCOQmiX7rlUwmpMgIlM1bPAmg16xDQsI0fgz6Nq193pOanUPVCy97ks7b7Gh225FrbeESjMOHYp7k715qBUn21JGTi+uvZUeO4V/LUfbs88zQVlaGmpuHZDBgumYccmSk53opKMS1fKX3Xuqp70/QNCwP3Ith0EW17gc+9ZtNyEHBuNf/jVZc7LkHHnV+ALiWrcT+2Qy03Fws99+Nsd8Fnt5Ip4mSkorz13kAmMaORpfk/zMTBEEQBEEQGkYM6fqX0Z/fC13zZqB4ei4YLx+G6Zpxfh+y9V06gV53JLeEoqLv2gV916Nmsar5jbEkYRw2BLV71yNlimd7Q7++GAcNwDDootoN02qsd/HAWttS15fSqgqKihwd5dujQVHrzIkhBQdjmnA1WnEJSnoGKCpSSAima8ZhmjTBb26Wk2EccsmRGXaUI23Sn98LQ7++GC692H87q5P9amVlngdCQN+lM6ZJE/xOG20cNgTNZsO97m+fegB0bVvXmgFL38k3ia3hkoFoTieupcsBMI0bg3nShLrz6Wiapx5ZxnjFsCPlioqm1J2PxHDpxWgOB67lq4585oMvwTT6Sk8gsBHpe/bw9Kowmbzng77XeRj69K57qIrJhHHkFWglpd734237wAEYhw/F0K9vrc10LVtgnjQerbjYu52udUuMzS7BNH5s7Xo0PMdJUdF16oiu5uehqHX3xNA0pLCwWue7HOW5BsyTJiCFhdbazHBx9ef71/La50ezZHTNkn3K9Od1r/5Fj/HKy9EqKz2BvZrH48J+GC+9GMOA/v7bejxcLhw//erJedWhPaaJ4zFdO8FnFWnu7zhmfYvjm9mYrhqJXN1mKSwUU/WxVzKzPNd0eLjnmr52AnJ0VJ3VyokJmCdNQCsqQqusQo6ORt+lM8YRl9deWdNAVT2Jow9TVJA814Bp4jjfHELV9F06g05/5DOtcQyloKBa50fNQIf+gj6YVM89quZ2uvbt0LVrg+mqkXW+N++6LZpjvPwybO9+gHPeHxguutBzbRxF2bkL16I/Pcdz9JXI8bWDQoIgCIIgCMI/h6Rpx+rfLfyTaUXFuJYtp+KuBwCw3HsnpvFXn/LksYIgCMdDq6ry5KFasx7j0EsxXTex1jruFauoevVNdK1bEvjS8+g61Z2LRvCl7k+j4p4HUPbsw3zLjZ4eRDV6+agZB7F/8gWO735A16UTgW+/ihxVd6DsVHCtWk3VU/9F2ZeK9blp6Dt1RA4LRRY9fQRBEARBEE6ICPic4xzf/UDlQ1N9yszXT2pQvh5BEITTrWLK3Tjn/1Hncjk5iZC5PzVKvqB/o7Lho3Fv34H5umuwPnskL1DFXQ/g/OU3DP36EDTz8zPWPjXjIKXDR6GVlQNgGn1lrZnvBEEQBEEQhIYRAZ9znFZSgpqd41MmhYchx8aeoRYJgiDUTT2YhVZeVvcKRqNnWKpIJnxClP0HwG5HCgtDjjvyd0DNzEIrK0MKCKh7GOfp4HR52qh6EqNLISF+8w0JgiAIgiAIxyYCPoIgCIIgCIIgCIIgCOcY8RWpIAiCIAiCIAiCIAjCOUYEfARBEARBEARBEARBEM4xIuAjCIIgCIIgCIIgCIJwjhEBH0EQBEEQBEEQBEEQhHOMCPgIgiAIgiAIgiAIgiCcY0TARxAEQRAEQRAEQRAE4RyjP9MNEARBEARBEITTYVvJPircNgCC9FY6hrZs0HZO1cXWkn24VDdNA+KIt0T5Xa/SbWNryT4AWgQmEW0OO+a+d5elUews8ynrENKcYENgg9omCIIgCHWRNE3TznQjBEEQBEEQBOFUG7nsPraVpGCUDfSK6MgXfZ7xLnOqLuyK0+92efZCxq98lBJnOY+0v4H/tLzK73o7SlMZsfReAP7X9R7GNLkEAA2odFeh+vlv990bXmJdwXZMOoO37KNeT9AzosOJvk1BEARBAEQPH0EQBEEQBOFfZlj8BTzc/kafsh8P/skH+773u76iKZS5Kk+4PrviYMq658isOlRrWYGjmInNhnFds+HesmgpqjXtAAAgAElEQVRT+AnXJQiCIAiHiYCPIAiCIAiCcNazKQ5e3PkZBfYSb1mIMZBH299IsCGg3m2zbId4ccdnZFTmArCxaDfPbPvIu/yG5iPoHdGRUGMglS47L+78lCJnGcPi+zE8oR/FjnJe2PkpldXDwY6Xpmnk2Ao4WJXL4Lg+XJk4wGd5q6CmJFljT2jfgiAIglAXEfARBEEQBEEQznqyJJNkjSFYH8CGol2sLdxGtDmc+9pOBOoP+JS7qvg9ZxWqpnJR9HmoqPyesxKdJHN1k8EE6i00C0zAIBv4LmMBbk3hsvgLmJA8lL6RXcixFfDq7i+ppOEBnz/z1nPIUUScJYohsX285c0DExgad8GJHgZBEARBaDAR8BEEQRAEQRDOeibZwOQWowB4b+93rC3c1qDt8uyFbCjaiYZG9/B29InsxEHbIYINAfSK6MDtra/2JmHOqMzh3b3fAtAyKAmX6mZ7aSoRxpB660gpzyDLlk96ZY637I+cVWwvSeGyhH4+AR9BEARBOF1EwEcQBEEQBEE4Z63M38yTW98H4O7WE5iTuYSfM5fQKaQlz3W5C4ACh2eYWKmrAkmSCDUE8XXa73yS8hM9ItrzULvrUTWNYEMgFp2pVh1zMpfwfcYi3JriLQvUW7ky8SIeaHctVW77aXingiAIguBLBHwEQRAEQRCEf4X7N72KrTr4srs8zTuj1mFO1UWQPoBPz3+KGHMEn6T+zFdpc7l5zTTK3RW81v1BBsX0rLXfKS3HcF2zy9lTls6Na54C4J42Exjb5NJT/6YEQRAEoQ4i4CMIgiAIgvAv9FvWMn7OXEqYKZgnOk4mSF9/Hpx/om/S/2Bm2jzv69tajmVZ/kaWH9pIkjWWB9tdx7PbPyLHVuBdxyDreXnXDMyyiQOVWTgUJ4rOzKvdHuCCqK4E6C216gkyBLClZB/v7fvOW/bjwT+x6iyMTx7is+787JXsLcs4ZtuvbnIpl8adfyJvWxAEQRAAEfARBEEQhHNevqOYWWnz0dBOel/9o7rTI7yd32WH7EXMSp8PwODYPrQPae53vfTKHOZk/gnAlQkDaRYYf1xtyLUV8k3G7wAMjetL2+BmPst/y1pGSsVBmgckMCLxouPa99lgXeF2VhVsIUBn4Zrky/wGGPz5Ov138uyFdA5txaCYXn7XsStOZqXPp8xVwbrCHawt2EasJRKX6j7udm4u3stfh9b7lJ0X3oEka4z38z2sZWASF0b3YFbafOyqo979xpgjmNB06HG3x594SxSJ1hh2lu4HoGdEB1IqDgIQYgjkopjzeG33lwD0CG9H04B4fjy4mFX5W7z7aB6YyDXJQxkcdz5mP8O5Dsu25bO+cIf39a6yA3yXsQCdLDM8vr+3PNocRufQVt7XP2f9xYGKLFoGJXF5/IXe8khz6Em+e0EQBOHfTgR8BEEQBOEcV+Ao4Z2936BqnoBPkjWmVpCkLvmOYjYX7wGge3g72ge3qHPdQ/Yi3t7zTXUdsfUGfA6v1yW0zXEFfDKr8pifvdK7fXJAfK33Mi97BX/krGZQTM9/XMBna8k+vkn/g5X5mxkQ3QO3qhxzmwp3FWsKtjE95UcsegvRpvA611VRSSk/SJGjlAJ78Um1tdhZxpqCbd4gR6fQVjS1xhNuCmZr8T7WFGzDoTppEZjI6KSLcalu9pans/zQRoqcZcRZIkkOiGdt4XZUTaVdcDOQJGxuG1GmMM6P7ESg3npSbbwwujsFjmIW5KwGYG3hNrKqDgGefD2Lc9d5p1qPMIXQxBqLQdZzfkQndpelke8oJtBgJdEaw/L8TQC0CmpCckDDztktJXupTLVj0ZmpUjxDyXqEt+euNuN91jlQkUWLwESfckEQBEE4WSLgI5y1qhQ7Jc5yv8skJKJMYehl3Wlula9yVyXl7irv6whTKCbZcAZbdOYUO8uwKb7f2oYbQzDrjGeoRSenyFmG/aj3c/jztSkOip1lPsusejOhhqCTqtOtKRTYi1Fr9MIwyHqiTGEntV+hYQodpThUp09ZpCkU4zl4TQ+IOY+nO01p0LqLctdy67r/AnBvm2u4IKrrcdXlVF3ehLjAST/ALzu0kRd3fuZ9XeIsJ9uW77PO4WvXrjhrLQPQSzqizGFISCfVllPho5QfmJ+9kgHRPXip273H3gDIqjrE7etfQNEUnutyJ+ObDqlzXavOzPNd7gTg7b3f8MbumSfc1oEx5xFhCuH29c+Tby/mqqSLuTi2FyadgQfbX8dNq6ehaJ5eSjc0HwHAa90fYNKqx1hdsJVeER25rdVYRiy9F6emck3yZciSzGNb3uH29S/w64A3aBOcfMLt82d6yhwqFU+AJ7Mqj+d3TCff4Ql8LchZw4KcNQQbArin7UTe3D2T/Pxithbv5Y71LxBlCkOWZG5rNbZWwKfUVVHr/yyhxiCsOjNVbhsv7vyUIkdpo74XQRAEQTgWEfARzlp/5q5n2rYP/C4zygZm9n2OZoEJp7lVvmamzWd66hzv6/d7PUbP8PZnsEVnzv92fs6i3LU+ZW/0eJB+Ud3OUItOzn+3T2fZoQ0+Ze/3nErPiA4szdvA41vf9Vk2Mmkgj3eYfFJ15toKmbRqKhXV3zaDZ1rgmX2fQyed2eDmv8FTW99jTeF2n7JPej9Fl7DWZ6hF54YdJancsu5Z7+sbm4+gU43hLCfrtd1f8U71NNqHVVYH4tcX7aiVlBegiTWWmX2fx6Kve3iO0DDtQ5ozu9/LXLNqKi/v+oISZzk9Iztwx/oXKHNV8Gr3+xl8Fk1J/mr3B/gxczE/HVxCm+BkPuj1GJNWPcaBiizvOuWuKm5eM83bIwc8wd+v+j5HqDEIi85ca78fpnzPVwfm+ZTd3XoCIxIHAGBzO5i4aioZVbmn6J0JgiAIQm0i4COclWalzefLA3MJ1Ft4pvPtyJLEp/t/YWne34An4KNo6hluJbV6erhPIAfCueKG5iO4PKE/20pSeGXXDIATyglxtpjcYiQS8FPmEiJMITzT6XZaBTUBPHkeHm53PU9ufR+X5ua6Zpczvknd36g3VKQphBe63o2iKcxKm88fOaspc1We9H6FhpnSaizjk4eytmAb7+2bDeAzxfK5ZHHuWtIqshu0bpHz5HoluDXFe5+8o/U4hif0J6Py5B969ZKOZzrfRoI1utayt/d8zd9Fu+gQ0oL72k6stdyiM2HUnV09t2yKg6e2vu+TA6YhVuZv5o3dM1HP0N9EvaQjxhzOK93u49XdM/j+4CIW5a1BUVVe7f4A/aK61pv35nQLNgRgkj09T/WSjjBjMDpJ9i5vH9KcR9rfAMCbu79mY/EuuoW15ZH2N5BojcEg+/+vc5Xb7h0adliA3kKYMRgAk2xHrlGPIAiCIJwOIuAjnHW+Tv+d7zIWYJT13NRiHP2juyEhoWgaRlnPwpw19W4/5+Cf7Cs/SMsgT86AU6lfVDesNb4hbhIQd0rrO5u1DU4Gkr05Qv7p2oc0p0lALAAm2cj5kZ0INXqGbEWZw+ge3g5ZkkCDFkFJtAxKOuk6zToTfSI7A/BX3oZjrC00to6hLQHqHEp6Lom1RNI3qrPfZTa3gy8O/HpcwcaFuWvZVLSbAseRnDDzsleQWp5Jjv3I7Edtg5NJDoivFfBZnr+J1flbva/HNx3ivf5qWpCzmgU5q4mzRHJ98ysYHNeHVflb2FG6n6YBsYxMHMjnB36lsDrAFG4M/sf0MlQ0lb+LdlLgKKFPZGfGNLmkQdsdshexsXg3ANc2u/yM9EiTJZke4e2IMoWxtmA7mVV5hBtD6BXRkXBjyGlvT31mHPiNXdUJnLNt+by260sKq4da9YroyMTky7znzOEeO+GmENoGJ/NByvfY3J7hgu1CmnFFgifB8sy0eWws2k3n0FZ0C2/LF/t/Pd1vSxAEQRD8EgEf4azzS+ZStpWkMDppEGObXOotHxDdHZ0kYZQM6GVdnXkg/shZzcLcNVwc2+uUB3x6RrSnZ8S/cwjXv0HroCb0CG/P/opMFuauYWBMTyJNoWTb8ll6aAOqptI3qgtN/8WBPuGfqUNIC65uMphVBVtqLat029FJOs4Lb0+MOcJnWaTJ/6xBK/I38dWBuT5lf+X9zV/VvTIP21i0Gw2NXaUHvGXrC3eQVpnNluK93tm/js6ldNiyQxtZnr+JpgFxJFpi0Mt6ipxlLMvfiJLnRifp+CR1DskB8RiC9RyyFzE3e7l3+7ZBzWgRlFjPkTk7dAtry7D4fse93eikQZ7Ex6eZoqksz99Eti2fFoGJRJhC2Vm6n8W567g0tjfR5rqTSJ9uh+yF3mGzTtVFpu2QtzdqkMGKJEnecybPXuj995espXyc8iMdQ1oQaQojpsZ7yrcXkxwQT5/ITnQOa10r4FPkLGVp3gYq3Ta6hbet/oJEEARBEE49EfAR/lH6RXX7x3xbK/zzXRbfD72sZ8q653h081t82ee/REaF8nfhTp7f8QkA97edRLewtme4pWe3HFtBnQ/wR4s2hWPV186PITS+bFsBr+36yqfMpji8D7m3tBzNJbG9qVLsHLIXARB7VACoPpGmUFRNo8hZiixJxFmiWJK3niV5630SvM/J/BOrzsylcb2ZVk8i6RxbgTdJfnplDvdtfIVfB7zJtc2G41RdPL/jE/5vy9vEWyK5q80E0iuy+Wz/L7y88wuybfkomspD7a6nRdCYBr+H08WuOMmozMWtuokyhRFmbFgC+CJnGQWOEoyygThL5BmZNMChODlQmc1TW9/HoTi5ucUouoW34cGNr/P0tg/RSRJD4y846aT2jeXBdtfzdfrvfJueS3JAPK91f4ARS+8hpbyKvwt3klqe6V338Hm/vzyTT1N/JsoUxgPtrvMGJg+7t8awwR2lqbXq3F+eyYObXgfgiU7/YfgJBPMEQRAE4USIgI8gCIJwSj206XW2luxr0LqvdbufS+LOP8UtEsAzvOqXAW/4lK0p2Mp/qmfkOmxtwXbu2fASAB/1epzzI/0PBTvaPW2vocJl4387P8OsM/NBr8doavX0hluZv5nb1j8PwJMdb+XC6G7HTEz+4MbX2FC8q951AvRmPu79JM0DEzk/ohOjkgZxyF7E1SsfpshRVu+2Z9KO0hRuXDMNm2Ln5a73MSyhYQGB6Slz+Hz/LzQNiOO7fv876RnQTsTOsv1cv/pJbIqdF7vcwxWJF6KTdHzV979cveJhnt3+MaWuCm5tefYF2o42KmkQ97ed5H1974aX+TNvPb0iO/JWj4cBzqp8RIIgCIJwLCLgI5x1nuz0H97d+y3LDm1kwsr/A+C5LnfQPLDubvjbS1N5bvt0APaVZwCwoWiXd/upHW7yOyvMZ/t/YUHOap+yKS3HYFMdtbpkX5k4gPFNh3pfv7zzC2/ehMMe7ziZDiEt/LZxcd46pqfM8bvssPvaTqRXREe/y9YUbOPNPbPq3f6WlqMZFNOz3nUaItuWz/9tfgtnjaTLzQISeL7rnSe975oOVuXxf1veQlH9Jxu9o/XVdfbo2lS8m5d2flHnvqd1utXvdL4fpfzAkqOGmRzWKbQlUzvc3ICWH9v7+2az7NBGv8u6hrXmkfY3Nko97+79lhX5mwEI1Ft4vstdRJnD+PHgn8zOWOhd7/863ERnP9fA5/t/4Y+jroFbW17FRTHnNUr7AKZ2uJmK6p4Zx9KyOjH2ydpXnsGTW9/3KesY2oLHTnImtaPtKUtj2rYP61z+UPvr6V5HD7AV+Zt4d+93fpfpJJkXut5NkjWm1rLXd89k3VGziR12fmQn7mlzTb1t/k/L0YxrOpTU8kye2uZ7jMpcFd7fX901g09Sf6LEWeZNRusvWf5T295nYY5nyOOlsb2ZuuUdwJP7yil77iESnunAA/QWwPeh2awzesvrY1Mcx0wELyFh1ZnRSzqQwCDrserNxz39+uH7RJvgpvX2OmosiqZ6j7FJZ8TYwJ46TtWFQ3UiSzIBestpTwr8R85q3t77jbftH6X+gFN10SG0Bc9u/4hiZzlO1cXMtPlUuu1cmzycqVve9vaCWZG/mf0VWd7P9ZPUn5CqPypVU3lk85s80PZa+kd3B6BKsTN189vk2YvItuUDUOws47Z1z2OQ9YxvOoQrEy864fdjkPU+5+LhIKRO0jXoHPXn95xVvLPnG8w6Iy90vYs+kZ1OuH2CIAiCcLxEwEc467QLbsa1zS6nR3g78uxFfJI6h7f2fE2kKYwe4e24LP6CWtuEG4MZXN0roNRZTrGzjGhTmLcswuQ/aaQn14FGrq3QO726UTbg0tzk2AqYkDyU6alzKHKU0j3c96GtW3hbIs2h7ClLY3bGIoB6k5wmWqLpGNqCT1N/9pb1juzIpbHn41CcfJw6h49TfqRKsXNRtO/D9pK89cxMm8e+8gxuaTHKO7vMluJ9/Jq1FICbW4wk0VJ7tprjtaM0lc/3/8Kagm1MajaMRGsMm4v3sChvLQE7zExuMdond8GJ2laSwucHfmFtwTaubz6CBEuUd5miqUxPmcMnqT9hV5xcEtvbZ9vl+ZuYeWAuu0oPMLnlSO9/xHeWHuDHg4sBKPfzWUxPncOcg38SbAhkaHxfb/mcg0vYUZqKsY7ZV46HpmlMT53DT5lLCDeGeM/Bw1bmb2Fe9gpMspHJLUed9DfynUJbsrVkH4ty1xJiCMShugBoHphAs8B4vk1fAEBpjQf5w77Y/yvfH1yESTZyeUJ/wNNj4LP9P+NQnQyJ61trmxPRPqR5o+ynoTYU7WLGgV/ZWLSLyS1GEWkOZU3BNn7PXoVZZ2Jyi1GEGAJPup71RTuYsf83NhfvZnLL0YRXz8YDnjw401Pm8OG+75nUbDj9jwpcLspdy8y0eRyoyGJyy1HeWYI2Fu1mXvYK9JIOW40poQHvfeLXrGUkWWO4KKaHd9nXab+TWpFZZ46dmpoFJpAcEMfGot3ewNGopIF0CGnBgYosdpelAdA1rA2tg5uytyydvdWBdH96RXQkOSCe1kFNfY7rr1lLcSpumgTEcnPzkSecvDffUczHKT+SbctnWHw/NDTmZ6/0u65dcfLO3m99rqsqxUal2+53/bp0CGmBQdafltwz6wq3M+PAb5hkAze3HEW7kIbl4PnywG+sK9xOp9BW3ND8ijMyA1QTayxXJQ2CpEHeslbBTYgwhTAsvp9PHqKmAXFY9CYuiulJ36guPvu5snrqcn/iavxt0Et6+kV383t/B8+5fbQFOav5JWsp0eZwbmkxijhLJMPj+1PqqmBj4S5e3PEZBY6SBr/n4/Fr1jJcmpsKxcaj7W/iouieBBsCTkldgiAIguCPCPgIZ6XeER3pHdGRHFsBRY5SVFSW5K1nT1kaVr2ZAdE9fNaPt0RxY/MrAc/wgz3l6SQFxHrL6nJ+ZCfOj+zEjtJUb8BnRf4mWgQmMrbJJdzYfAQlzjLyHcW1eu4cDkIsyFntDfjUp01wMlckXOgN+PQIb8/4pkMZkTCAclcl36Qv4M+89bQLaV4r4LOhaBdL8v6maUAck5oN9wY4fji42BvwGZEwgNbBTY/ZjvpsL03lu/QFLMxZw7D4flzb7HKSA+L5LmMBv2Ut57P9vzA66eJGCfikVhzkp4NLALgi4UK6hB6ZWcaluvkhYxHLDm2kVVCTWgGfLcV7WZi7lhhzBBOaDiWi+iF3bvYKb8DHn18yl7K3PINrmw33OTe2FO/1m3cBIM4SyZC4vizJW8+K/M3k2YvYVLybIEMAA2N61nqI1dD4KXMJKeUHuaF5t1rnoF1xsiRvPd+k/8E1yZeddMDnwuge7C3PYFHuWp/yrmFtKHKWegM+NVW4q/gzbz1fHphLkCGAcU0Hc3WTwQAUO8v5LWsZs9LmY9GZubD6m/V/ik3Fu/km/Q9W5W9lVNIgrmt+BTHmcBRNZVHuWmalzWd80yGNEvDZWbqfedkrsOrNXJV0MckB8d5lhY5SZqXNZ1HuWjqFtqwV8FlXuN17fl/f7ArvVM9mnYl52Sv81udUXXyfsYiDVblcntDf59xadmgjqRWZfrdrCKvOQqghmED9kVm2AvRWQg3BBBzjHB0e39/7+/aSFO/vlW47TQNiaRuSTIDeyuLcdd5le8rTvL+vLthaa2a0/tHdvMErRVMocZbTL7orY5IuYX9FVp0BHw2NMlcFbu1ITyCb4kTj+KYsvyCqKxdEdT2ubU7UztL9zM9eSaDewpikSxqcBH5+9kp2lKYyKmkQIxMHnuJW+tcupFmdAaq6/v5OTL7shOszynrGJDVs9rLDbIqDSFMonZJacWPzK5EkicioUCQJbG47Mw54evOeF96ejnX00D1RVYrnGrggqivXNhte53p9IjsTagykU0jtXpiCIAiCcDJEwEc4q8VZInmp270AvLlnFt+k/8HLO78g3hJF04C4Bnd7Px4x5ghGJw1iSquxAI029OZoE6qDPWeTuVnLmJk2jxaBibzQ9W7MOiMAIYZAWgc1RZI8wzQaQ7AhgNZBngCVWWciz15Eqcvz0OdWFW9PFX/CTSEkWKKxq05SKzIpdJYSaQojSG/17tPiJ89Ck4A4MqvyKHGWs7c8HRmZJgGxxFkiaR3UlERr7R5SHUNa8njHyawt3MaHKd97y1sGJfFi17v9JkltGhCHqmlEmcOwKXYOVuV5l52qb5KPR769mKmb38amOLit1Vi6hrVhb3k6AJcn9GdfeQYLclZjU5yNEvDJqMrFXiNJb33iLVEnFQSbnbGIHw8upltYW17sere3PMwYTOugpgQZrN7gyskKNQbROqgpZr0Rg6yvTirs6XlQ4qzArSl1bhtlCiPWEolTdbGvPAO9rCPGHOG91nSSXOvckiWZZoEJFDvLKHKUsrc8Hb2ko2lAHAnWaFoHNSXOEnnMdufZC9lbnk6+o9h7vawv3MH6wh1UKTbven/krGJl9XDBZoEJZFTmkFl1iGJnGWE1ejPVZXzTIVyVdDHbS1J4aJNvrqDKGvX8nr2S5UcNf2wRmOgN+MSaj/wdANhfkVVnnSbZwISmQ4mxHEkuXegoZU3BFhxK3feUMyXXXki+vRiLzkzLoKQGnZsu1U16ZQ42xU6UOey4Emn/G12ZeJHfYV59I7sQZgwmx1YAwJRWYxl41FDWeEsUrYOaEl+jl9GxmHRG73V1S4vRtXp5+nNzi5EN3r8gCIIgHA8R8BH+Me5sPY4wYzDPbPuIq5Y/yJz+r52S6XXvaTOBMTWmgxfg0tjzGRTTCwC9XH9i1Ya6KPo8+kd19+5z2tYP+DbjSG8Ut1r3w/K4JoOJMoVy27rnuG71EwDc3/ZaJrcY5U1C66+db/R4kMc2v82PmUv4PcczvGdO/1d5sN113N/2WiTp+PJ8+CNLMm+d9wiapiFLMhuLdnHt6se9y1U/OVDOpI9SfvD2bjvMX56Wk/HQxtfZUrK3Qeu+1eMhBjfSULKaRiUO9AZYG+scviL+QobF9fPu8/4NrzE/50jvHHc9+WZuajGScFMwj2x6i9HLHwBgWqcpXN3kUi6NPd9vOwP0Fj7u9Th3/v0S32Ys4PuDi4g2h/Nj/1eZ1mlK9Tl37HP47T3f8u7e7+ga1rpW0uZVBVu4ac00AB7rOJmLq6/7bFs+Vy1/gCe3vkeFu+q4HlA7hLaoVc/y/E3csvYZwDNr0UVH9do80c+owm3jlnXP1io/Vu6fM+WN3bP48eAiuoe348s+/23Q+861FTJ+5aOUOMt5tMON3Nh8xGlo6bmpZuJyf0nDp3a8GU3TjutvQ4vAxBr7PP3D7ARBEAShJhHwEc46T2x9j52l+7ko5jzuaj3eW66TdOgkGQ0Nl+pGQzsl9R+u52wyMXkYVr2Zd/Z8w6RVj3lzNRQ5S0kOiOflbvfR/BQEvw6TJbnR80PIkkym7RAPbnoNRVU5WJXHwJie3NryKtyqwkObXiOjRs+YmnSSTO+Ijnzf/xUAnt3+MTMO/MYfOauIs0TySrf7Mfi5veklHXe2Gc+E5MvYXZbGE1vf466//4dJZ2Rk4sB6u9wfD72k4+193/BX3t9UuKvQSzpe6XYfsZZIfjz4JzPT5jVKPY3hhuZXMsxPXizghJOUHu3ZLrdT1cAcKjWHRTWmU3UO7ylP5/Et7wKQVpnN5QkXMil5GKWuCh7c+DpFzlK/2+okmUExvfi+/8sAPLr5LT7YN5vZGQtpFdTEp3dSTXpZzyPtb2BKq6vYULSLl3d9wc1rnkYv65iYPIzRNXKp1OXWVqNxKW5mpf/O+JWP+iwrdx1Jrv3Krhl8nPIj4BlOVu6qwq0pxx20lJBq9VzR13i41ku6Rut1FaC38Eq3+3xy7xQ5S3lw4+t+81idaYqmoGiq32NUl5p/A3WSfMzZzY5W4bbx4KbXyLcXk2svBKDQUcKNa6ahl3RMajacUWdoiNjpdqzjfjj5d2PuUxAEQRBOJ/EXSTjrpJQfZHPxHpr7Sb74b7WjNJV1BdsJ0Fu5ImEAJt2RoR5hxmC6hbc93v+THrdsWz4f7PMMaRqVNIhuYW1Oan9bSvbySepPbCrazeQWoxmdNIhWQU3oGtYGl+qud+rbpYc2sDh3HcGGAG5rNZY7Wo8jx5bP9tJU5mev5JntH3Fry6tq5cJ4f99scmwF9I7syMWxvVCqh9zMzljIdxkLUFG5vtkVJ/W+NE3j/X2z+SXTkyR0dNIgDJKeC6K6EWSwsrpg60ntv7ElWqPpetRn+VPmEjYW7aZJQBytGmHWrMPDG860/RWZfF49+96E5KHVSdtP3JrCbXyx/1d2lu7ntlZjGW0aRIeQFnQNa0Oho7Teh77fc1axKn8L0eYwbmt1Nfe2nUiho4S/i3byZ956nt72Ibe1GusTuLArTt7fN5tiZxkDonswNP4C77DLGQd+Y2baPNyqm6ubDq633UnWWJyKi0q3je2lqdzWaixR1cOnUsszSa04CMCB6qFTbYOTGZ7Qn7TKbNzuunvenVwGpbsAACAASURBVA10kkz7kOYk1pjdLM9e2Gi9uhqLqml8sG82m4v3HNd2O0tTmZ76Ew7VecJ1G2U9Q+P6emfWOlqbs+R6FQRBEATh5ImAj3DWSqvM5o+cVQyO64OExPqinWwo2kWEKZQhcX0aNNNFldvOgtzVOBQXXcJa0fYkH/DOFFVTPd8CS56hDnrpyKVb7qriu/QFDI47v0F5NerTJaw1fSI7k1J+kO8PLmJoXF8iTaHsr8jkp8y/mJk2jyFxfdAaYcjPgYos5mYtB2BofF+fpM017SlL59v0BRhlPYPj+hCgt7CtJIWZafOIMUdwY/MR3qno52av4Lv0BXyb/gejEwfWCvgcTnIqSxLD4/szMXkY4Mlf8mvWMv7MXec34GPVmxmVOJB52SvIsxfRNCCOy+Iv8NsTTENjbvZy9ldkcmF0d28dR7MrDn7JXEqQIYBOoS0bfSarHaWpLD+0ye+yIEMAVyVdwu85q9hYtJt2wc3oGdEB8CQh/zrtd0pdFST4yWl0tusZ3p6U8gzy7cV8n7GIwdX3ij1lafxwcDGzMxYyOK4PmnbyPQT3lKWxIGc1Vr2ZEYkD6uydtL0khW/TFxCgtzA4rg9GWc/Gol3MTJtHq6Am3NpyDEOrh7HJkswvmUuZlTafCclDfQI+LtXFz5l/cbAql1BjEBfH9vKeX4ty17Ls0EbiLVG1Aj4HKrP5I2c1GjA49nyaByayu/SAd7leOnJP0fkJjEiSdNy9SM4Up+rmt6zlPvfCMlcFDuXEAySnQs37ROugpt572LFkVObyc+ZfAAyM6XlCwVSjbDhjSZ4FQRAEQTi9RMBHOGttLNrNS44viLNEIUsSn6b+xN+FOxkY05NnO99e53ZNAmKJNodT7qpkXeF2nt72IeHGEO5ofXWtgE+OrYBCZwn7y4/MbpNVdYjtpSlYdZZ6exmlV+ZQ7q4kozLXW3agIpsgg5VQQ5DPN8wARc4yn1l0MqvyyLUVEGQIYFfZAZzVSYrz7cWkV+Z4gxXplTnEW6PoF92Vv4t2MjtjITJHAg121UFK+UHMOiMXRnc/qaDP0LgLsOosPL/jE57e9gFm2UjbkGQW5qzh09Sf6BTakofa30AzPw+2B6tyKXVVkFaZ7XOMtpf+P3tnHSdV2f7h65wzPdtLdyydgkhKKKiYiFjYInagYnfXK9ivivqqqCC2P8FAlBIRKenuhs3pOfX74+zO7uzMwgJL+lzvx8/LPCee5zwnds537vt7ryHNlkIDb6249TMcqeSk1i+OKNgSJ55ohk64+AVt5u4FzNy9gDS7ly7ZbeLSjFRDY0XRBtIdKbExOGQ7Oan18ewlHSkvUsiSwtJqQoWqn2rOjApf2DPsqTzcdjgrfRvZGc6jQ2ZzRrS4rML956TWZ0c4l9xy/YAVbQDg04I8t+wDAO5ueQWt05sQNVTW+jajY5BbbO4c1qPFIpVMXXeNpOe3mjODxil12B0uYJVvIwVqEZ9v/IXPNvwYW2dDYBut0hpRzZlJNWcGT7S/kagRZcrOOYT0MG6bFVH10vKPiBgqlzc6k+tzLqjwGI9Wzq9/Ci7FyagVn/DIojfx2tzU99bk281T+WLTL3TOasVDbYdRw5lYaW5DYBt+LRhnsr3OvxWnYifTnpYggGU702mSUpdtod2s8m3Cr5WmQxVG/THfmMk7/mLyjr+o56lJ7xqdcJSJ/IkUn9+SCJRtod24FRfNUxvEoneSsTucH3dt+bUgNV3Z1PfUSlh3ft5yXl85DoBbml9M24ycmOCjmzo/bJ0eZ8beNj0n9u9dkTyWF65neRmB6FBRpPrZFLSep429dQ8opbBEFCtr6K+aWux5Ulm2BneRrxbt8+9AVdCjegeG5wze7+2G5wyma3bbQzAigUAgEAgExwtC8BEcdUjF/wNLMBg8/e7YsssaDeSJ9jftdfsH2wwj1ebh1ZXj+DvXMgV9/cT76FWuLDLAO2u+4pP1E2P9Ary+ajyvrxrPiVmtGd/r+Qr7eWbJGH7bOTdu20cXvQXAoHp9+E+nu+PW/3n7LB75563Yuq+u/IwizU//ml25bNZDsf18sWkyeyJ5jOn6GABPLH6HabvmAZa/yfiez8e9CC0vWs+50+7grvkv82yH27h4H+kc+6J3jU7U9dTgvGkjuH/ha7H2tuk5fNt7VIXbvbTsIyYVl0ouOcanl7wHwOm1u/Nmlwfi1u9b40TquKtz7rQR3Ds/3tC1BKlMoppULmlNQiI/WsRVfz4a197IW4fPe76Ax+ZKuj8JiUnb/oiNtYThOYO5r/XVFR5f2e33lj4nSzKvdr6Xexe8wtebf+OHrdP3elxl2RHKZegfD+IrFg4kJDYFtjN4+kgAnu5wC5c0PD1hu0H1+lHTlc0Vsx7m+r9KDWvL9vPEoncIaiFuyBkSa3uu4+08sfgdxq6fGFcy+7mOt3HhMWxcPrBOT2q5s7lwxr3cNveFWHuP6h34uHuioW8Jjy96m5nFValK5u6B4nvgogb9ebacr87ZdXpTy1WNS2bez81znk26z31dw5uDOxky45649g4Zzfmq938q3F/Jc+KLTZPjlt3d6gpuKq4uWBazzLblcch23uzyAE1TknuAvbZyHK+u/CzpssqSzG+tbJtZ/HnWnkXc8vdzSEh80uMZulVrt999eW1uxnR9JCGl65xpd5AbKUzou6J78Y1V45mwaTKds1oxodeL+z2OfVEyhv1Nxd3buRQIBAKBQCAojxB8BEcdz3a8tUKD18pGr1zS6AxOrdU19rl8ak8JN+ZcwEUVvNgmEwzK8nC76xnR8vKky9LtKQltZ9ROTFvKdqaTavMkVLBJsSeWpe5V/QQeaTs8abnxqqaepyZfnPxSXNrL3jx1AO5tfXWslH15UitIv2vorc03vV+mMtk1iiRTs7j88MUNT6swBcIh2yuMjBjdeWSF5cGziz1M9sZT7W8moIWSnt/y3NHyMq6uZPWckrSdWu5sxvV6vkJT3L2V3G6f0SzhOqqon7LckHNBgrizPyWIj1bKVt8pYV8RI0+0v6lCX5MMR2rS9tbpTfY57yXYZVtsDMOaDqowraaie9xrc/Nu14crrDiV7PyOWfMVH6+fSGNvXV7pfA85h9DcPRnfb5nOmLVfJbT7y8zzU4vfYfQKDz41QE1XNq92vqfKUxxL+Gj9/zFx24zY5xc63nHI+qqINb7N3Dn/P2wIbOOOlpdVWlwdu2Ei7635hlrubF7tfC+t0w7vuAUCgUAgEBx7SGZVGBkIBIJDxoxdC/ho/fes8W2mW7X2CcsLVB+/bp/Nrc0v4dx6fYXZtUAgiLEwfyWrfZvIsKfSv3Y3JOCrTVMYv/EncqOF3Nr8YgbU6lahKLuscB1fbJrMx+t/AOC6puczuP4ptEhrlHT9/GgRv+74C4Au2W1QDW2/jIm9NjcDanWr0PD6m82/8dnGn5iftxxZkhlQqytp9hRW+TbyT/4q7LKNAbW6xYl7IT3C5B2zYz4+7TOaM7TRGYDlg1OtnNj7+spxfLd1GrVc2QxrOoh+lfTXqSzl56iylemWFK5heeH6fc6RQCAQCAQCQQlC8BEIjgGm7JjDjN3z97rO9TkXHBeRGQKB4NDy/ZZpzM9fTn1PTYY1PX+f668s2sC4jT8BcGXjs2lSQfrX4eD/tk5nXt6yg9pHm/QcLmzQv8Ll76z+iu3h3ZyU3ZYz6/Q6qL4EAoFAIBAIjiRC8BEIBAKBQCAQCAQCgUAgOM5IrCksEAgEAoFAIBAIBAKBQCA4phGCj0AgEAgEAoFAIBAIBALBcYYQfAQCgUAgEAgEAoFAIBAIjjOE4CMQCAQCgUAgEAgEAoFAcJwhBB+BQCAQCAQCgUAgEAgEguMMIfgIBAKBQCAQCAQCgUAgEBxnCMFHIBAIBAKBQCAQCAQCgeA4Qwg+AoFAIBAIBAKBQCAQCATHGULwEQgEAoFAIBAIBAKBQCA4zhCCj0AgEAgEAoFAIBAIBALBcYYQfAQCgUAgEAgEAoFAIBAIjjOE4CMQCAQCgUAgEAgEAoFAcJwhBB+BQCAQCAQCgUAgEAgEguMMIfgIBAKBQCAQCAQCgUAgEBxnCMFHIBAIBAKBQCAQCAQCgeA4Qwg+AoFAIBAIBAKBQCAQCATHGULwEQgEAoFAIBAIBAKBQCA4zhCCj0AgEAgEAoFAIBAIBALBcYYQfAQCgUAgEAgEAoFAIBAIjjNsR3oAAoFAIBAIBAKBQHCsopsweXsUn2rQIs1G+0zxiiUQCI4OxNNIIBAIBAJBlWPsycX0+5FcLuRaNY/0cATHCKbPj5GbC5KEUrs2OOxHekgHxOaATsSADIdENWflAuoDmsn2kAFAXY+MW5EO5RArpGTs6XaJ6q7Sse8MGfg0s9L7SbVL1HQlHntEN9kctI6zpksm1V6548yLGORFTewy1PcoyIdgeraFDILljrGeR8a1j3MR0U1G/O1jZZHGvW28tM9M2Xs/QYOgblY4R8kI6SZbi+cNINMhkV2Ja2tPxKAgauKUoZ5X4UCnTTOta0M3Idspkek49IkiJWN3yFB/P8e+I2TgLz6XNsna/gjdUgLBEUUIPgKBQCAQCKqc8KhXiXzzf9hO7ETq2PeP9HAExwjRH38h+NhTYFNI+2ocSvNmR3pI+40JXDqjkMUFGjc09/Bip72//JcwZUeUK2YWAvBDvwxOruk4hKOsmMtnFrEwX2V4Mw//6Vw69gcX+PlyU7jS+xnS0MX73dMS2pcXavT5JR+At7qmclljd6X29+aqEP9ZGqCRV2HG6VmkOar+7f3WOUVM2R6Na/vp1Ey6V69a4fHGv4qYtjPKhQ1dvJdkjpIxL1flrN8KYp/vbuPl0XbefW738rIgb60M0jrDxozTs7Ad4LTtCuv0/zWfPWGDxzukcGcrz4HtaD94ZXmQ11cEaZVuY/rpmTj2Q+W7Z56P77dEAKjllpl+WhY13cLNRPDvQwg+AoFAIBAIqg7DIHDfw6hTfsfeuyfu22850iMSHEPY+/TC89B9BB58lMBd9+G+507sfU4+0sOqNKuKNK6f7eOffI1bWnq4LqdyYsYHa0KMWh7Ea5N4t1s67TKPXGTTqBNTeewfP+M3hAjrBm+cZAkSI9t4uKKpK+k2f+xSeXihP/b5xuZubm+ZXBBommrj274ZDJ9dxNOLAry3Okz7TBuvdknd67giukmRauLXTCobZ6QaJtfP9rHBr3NhIyfdq9m5a66/wvUX5atc3MjF0Malx9k6o+pfl4KadSwhvfIRU7oJRWrp+u+vDhFQTV7Yh6AYLp63QCWisyZsCPPfVSFS7RJjuqfFRR8ZJvhUa19Ro/LjPhjCZc55ZQloJsP/LOLX7dHYfIV1ncHTCpIKRq90SaHDEbzfBIJDjRB8BEcd4Y8+wdi4Keky24mdcJx5Ruxz5Ovv0ZcsiVvHedEQlJbND+kYjyfMoiLC73yAGQrG2uRq2TivH4ZkE4+Iw4W+fAWRL76ucLnrumuQ69QGwNi6lfD7H8UtVxo3wnnF0EM6xmMFbe48opN+jmuzde+GY8Aph30skXET0FeviWtzXnkZSqOG6IuWEPn2+7hltk4n4Dh74OEc4iFBW7QYY/ce5Fq1UNq0qrL9Rn/4EW3+grg256BzUdq3rbI+DifRb/8PbdHiuDbnkMEorVuir1lL5LPP45YprVrivHDwQfVphsOE33kfs7Aw1ialpeIaPgzJe+h/sd8Xcs0aKO3agGmi/WNdR8cSfs1k2k4rQqRFmkJOqlKp7db7dZYWaDROUehVw05GmeiVHSGDl5cF0c3kL71DG7s5Mbvq/l53zrZR2y0zcavBN5sieG1+7m7toVW6jVbp1joBzWTUsiD5USvFaK1PJ9Mhc1drD16bxMk17LRKTz6mVLtE31oOHm+fwmsrgkzdGeVQ6Qcm8HeuytICDZ9m8PsOlb/2qNzd2kNWknSoc+s76VXdTpdqlRMAZu6K8vWmCJoBu8LWXPy2I8pdc32xdYbluGlzkKLR9J1R3lwZwqVI3NXaQzWnzK/bo0zYGMalwN2tvaRVMjWuLBsDOq8uL/3+Ny9PY/rOKC5F4qEF/rh9+rVS4eWHLRF2hoy4fQ1u4KRXjfiotPEbwszZo1ZqLGfUcXJanYOLalvj0xm9PMikrREKVZP+tR2cWdcZt87ELRGm7IhSzSlzd2tPpdLiBIJjGfE2JzhqMAMB1ClTiXw4FsnjRclpglFYhPrbVCj+kuOMROIEH9Pvx8zNw9i1B3XmHwDYunYRgs/+oBsY+fkQCKAtWYa+ajVKThOc114FQvA5LOhLlxOZ8CWRz7/CfkpfJLsNbdES9DVrY+s4zjsnJviYmoaZmweA+vc8jM1bsPfsLgQfQJu/kMhnE4hOmYqjrxUVoP49D33teiS3C3uvHod1PKbPjzpjFvqKlbE2e/9TUBo1xIxG0ddvtJ5xhoHthA4oLY7tZ5dZUEB0yu+YhUXYOnfC1qFd1e4/ELCe+Xn5qFOnA2Br2+aYFXzMQADtr7mW6GOz4Ti1L2a0OJ1EVTG2bUedMhUzHEZp0wq5Xr2D79QwMAsKMPPy0VasRF+2Arl2LVxXXAZHgeADIGVm4Dz/XKJTpqLNnY/SPAdb+6q9lg4Fa3w6k7ZG9nu733dEWVygJV223q/z+YYwrywPMqC2g2xX6Qu4YcKkrRGCOki46JxddVEK3arbCRerMHsiBlo5RcYEcqMGX22MsCWoU9+jcGVTFyNaeUipRM6QBFzexMWUHVH+zq2cIFCeyduj7AwZNE5V6FmJlKugBi4Frmzi4o6WHqpV0jtnbyzM1xi9PIhNgjPrOUmzSywrsNpK6FfLcdCCz4I8jS82hkmzS1zb1E3TVIWmKQqvrgjy6oog1V0y59d3sjtisiRfI8UucVZdJ/Z9HKJqwO6IJdz8sUtlvV8HrK/deVGDiFF6LoOaWfJ1nIBmsjtiUKSaTNoSQTOhSaqSIPj4itdLxvagwZQd1vOuXy0HvQ8yhXF5ocYn68O8tdKa+941HdzQzM2Qhi5CusnErRHCGnhsEg29CkMaOhnRysP0XSpTd6g0SVXoUcWpewLB0YB4mxMcFZg+P9q8+QTueRApOwvXbTfhHDwIY90GfFu3YWzYiBlOzBt3XTkUrhyKOvPPmOAj2D+kzAy8zz4BQPCZF9FXrT7CI/p3YWzdRnjsp0S/m4itS2e8Lz2L5PUQfutdwv/7GGPHzoRtlIYN8b76HwD8t99NdPOWwz3soxJj02bC776P+sef2Pv2js1R8NkXUadMJfrdD4dd8HFdfy1mURGhMoKPsWUrZn4BthM74XlgJIXTZoBh4LzoApwXDzms46tq9M1bCIy4FwD33XfgGHxele7fefEQnBcPQVvwT0zwOZZxXnYJZjiMtmgxksuF5+EHkBs1AKxoHs9Tj1L09zzMcBjHWQNxXXvlQfcpeTx4HnsIgNArbxBatuKg91nVKA3q4x31ItrA84h8Oh7J7TomBJ9pO6M8sjAAQNNUhYxKmtqOWh7khy0R0uwSzdLijWX/2KXywAIrBenxDl5OKhN5ohrQaWIu76wK4lGoUsFnWI6bYeXS0bYEdQqjpcLP8Bw3i/I1tgR1mqUpDM9xs7FYMCjBqUg0TVGQKtCA6npk2mTYaJSiYJiw1q8TrSDNaXdxBE3UMFlRqPHQAj+bgzpXN3VXSvAZWNfBy533njZ2oDgUiRc7pdAizcaLSwPMz6s4bawshVGTpWXEvtoemaxy183WoMGOkIHXJtEy3RZLSzq3vpNMp8RNf/l4e1WI9pk2ft4W5dnFAZqmKpxSy4F9H543OakKY3taYVuXzyyMCT4uReLm5h5ql/G82Rk2+H2nSlg36VvLwbCmbjYEDH7ZFkXTLcPxpQUabkWiSXFk2/AcN8MrSGv8ZVs0Jvjc1crD2fWcSdcDK51vWaGGvfhCynTK1Ckztq1BnY/WhnlhaSDWdn59J63SbSwt0NgTMbhpto89xeLT6XWcXNPUzVqfzkML/MzNVbmqqVsIPoLjEiH4CI4K1Jmz8N8yAlSV1Pf+i61HVwDkxg1Jn/g1RYMuRlu8ZB97EQiOPQKPPoU65XccA04l5a1XwG592XDdMAwpK5PAPQ8e4REeO/hvH4m2YCHOSy/G+9QjsXbPvXfByBEgHR1h24H7H8b0+XENu+pID0UgEBwCJOCzk9PpnLV/L4+n1HLwee/0/TKmPZw8tMDP5xvjI5jU4sifqTujdJ6Ul7BNizQbfw3MrLDK1ePtU3iknRdZkghoJoN+L2BtOdGohJIoo61Bgz6/5KOaJs93SuXOCryCjgV+3Bbh1x2lJtGvdUnl+mbxAslji/x8tCZE9+oOJg/IiLs+elZ3MO/MLADsssTP2+INpw+UQtXgrN8K4oQ60yw9368vD/LWyhCmSczP58UlAV5eFqRjpo3ZA7OqZBwlrPXpdJuUT0mZrmE5Lt48qdTs+tF//Hy8Nv6H4Xvn+5CLD6Ds2AEmb4/QeZI1V+ph8iMSCI4UQvARHHEin4wjPOZ/yNlZeEe/iNKxPSjFOe+SBA4H3lHPYwaDyNWrHdnBCgRVhFFQQHDEfWhz5+K89CJcw6+JiT0AKAr2AaeS9t0E62OzpkdopMcQqgqGAYocP5dHW2qiqoGe/IXmWEadPIXgi6NBlkkZ9QK2vr2P9JCOCRznnIVktxN49Cn8N96G+9EHsPfohjZvAcFHn8TIL8DzyAM4zj3rSA/18KLIpLz2H4LP/Yfo9xMxoyreZx4/0qOqNA5Z2u8S0LLEUSv2gBVRFNFNumTbYwbL9y3wMWOnSs8adl44wWq7428ff+eqDKjj4MVOqXs9JpsMtuK3+LBuiQcR3eTKJm5ubB4vfLy7OsSHa0PUdst81DMdr02iUYqCrYq1/P+uCjF2Xaj0c9c0OmTu/e9IWDe5ZEYhbkWKK50OcM88P88tCcS1LSuO6jFMrOPpkYZdLo2MKVl21axCft4WZXBDF4+28+IsN5eyZEVRHQyqYXLVH0VM3h7l0sYubmuRXEDbHTG46o8iCqIG1zd3c3ljN5sCBlfPKiSsm9zeysOQBi685VL6vtgYZvTyIC5F4sMe6TTwyoxdH+K5xaVpb/fM8/NsuTkCYhFjJhAxTN7rnkbrdFtCta0H2qZwXY6HBXkqt8yx/JOe6JBC3+I0sdyIwdWzisiNGNzY3M2VTUqvrZvn+FiYd2BphQLBscBR9i1Y8G/E2LYdfd165IYNsHVsj5SSWG1AadniCIxM8G9DX7OO8IcfV2pduXp1XLfccODG1qqGtngJZmERcp3aKE0aJ/aRnYWcXbW/kgkEhwpjT67lVSTLKK1aimu3ksg1qlulx3UdbekyzHyr7LJZVIS2yIpsVXKaIteqeSSHefiRpNh1pO7afdSnG0/YEObT9WHqexXub+OhnmffKoRPNXl+aYAlBRpn13MyvFli6stJ1ey8eZIlpDRKqZwB9IGyNWjw3JJAQgUsuwQPtC0t/53ukGJlyjOL04+yHHKsLb3YcLqaU6ZjOaFk1m6VT9cnpujnpCrc2sLD4x1SGLUsyJICjfl5Gre0KJ2TicX+SC5Foku2PdZPZZmyPRoTA/bG7N0q88sIAD513xEgNkni3HpOarpkJm+PsilQKur3q2WnXTkPn9dWhChUNbpk27mztYeeNRwJAqEJLMrX2B02WFGo8daqEMlIs0vc39ZL+gGYNoMlLP2Tb6U91XHLFZag3xLUY55ADbwK3avbyXLqlGhQjVOUpNu2TLPRvZqD11cGeGCBj7taedgWNFheaHkNPdDGG2dSXpavN0fYFopS2y1zf1svZxfPcXlyUi2D9EiZaJ3pO1W2FItvQa20ItrCPA1ZKr0Gd4WPvx9gBIKyCMFH8K/DLPIR/Xlyhb+w27p2QWncKOkyY/sO1GkzKty3vV8f5Jo1Etq1v+ehr12XdBu5RnXsp/StxMgrh756Ldq8+XFtSssW2Dq2r7I+APRVq9HmL0y6THK6sJ/RH8ld+kXN9AeseVf3/iuKnJWF/bRTS/tZuQptwT/7HI+tfTuU1i0rOfoKMA2IVDIceh/HcTSi/bMIffnKpMukjAwcZwyocFt11myMTZuTLpPr1U3qjWMWFRH9abIVdZOEvd1rlUVfvwHtr78BMPKsdAJ99Voi47+IrWPv3hW5YYOk2xtbt6HOSPT/klJTcZw+AGxlfm3Nz0f9+de49eTq1bD3OZnoz5MxfaWeDZLTif2MAXH3gOT14jh9AOofsywPmtlzkLMy93p82uw56Bs2Jl0m16mNvXev0nUXLUavhB+LrcuJKE0TBUYAY8fOBG8cuW4d7Cf33Od+9xczHEb9eTJmqPSLt+T1Wtehvep8FMxQCPWnyZiR5Ga6tk4dLcElCcaeXNRff6tw3/aTeyLXrZPQri1cFGfUXRY5KxP7af0rMfJ9oy1YiL4yuRAiZ2dhH3Bq0mX73c+8BXHV5hynD0DKzEBftSauapq9RzfkBvUTt1+8FH3psrg2W8f2h+zHHNPvt549mobthI4oLZKf36pk+i6V33dE6ZRl5+YKIiTKE9JNPlobYmvQYFiOmzPqJHqYNE9TaJ6WuL/dYYNvNkfIjxr0qemgayWrSu0NAyuKosSYd3mhxqzdKm5Fiou22RY0eH+NJT6UCBsbA3qsbVsw+TMfrNLikTIePdN3qawu0uhdw8GdrTxc1tiFTzV5f02It1cFyXRIDKrvxFMJI+h9oZuwwV9qrN2/toOG3kQRraQaWrpdYlADV0I0SUU4ZAmnIiVEHNmL2xt6FfrXtiJOvt4UYWURNEtTuLRRYqn7PRGrQlpesedMifBTtuLUP/kac3NVarllbm/pOSDBZ1fY4JtNYQqKq60tLtBi57E8+VGDcPG5+ztX5f01IXaEDDQDzq7npHUFVdnaZdq4sYWb3KjBt5vCpNok9hT351Ykrmrq1mFVZgAAIABJREFUZmmhxuaAHjdHAOv8OlO2R8lyytzY3L1fEXCqaUWLbQ7q/FKc6nZ6HQf1PErcNSgyugTHO0LwEfyrMAsLUf/8i+ADjyDXrYvkKfslykRfsw7XzdfjvORC5Nq14rY1du8h+suvBB9/BqVpE6TiFxKjqCj2Ipz6+dgEwUdfu57wex+izv4LpU7pi4G+ZStmQQH27l2rTPAxtm4j+uU3hD8cG4sY0bdswd7/FNwZt6A0alhF/Wwl8sXXRMZ+htI4/sXR9PsxCwrxZmVi69QRKdWK2DLz8gg++iRmkQ+5di3k7OzYNvradZihEFJWJo5+feIEH3X6TIJPPgeKgpLTBMlufREwfT70jZsAUBo1xH3bTQct+CjNcvC+9OxB7eNoRd+wkfBHn6L+MgWlfnylHyM/H1wu5Hp1UJo2RXKX+fJpGFbk01vvWNV8apZGGegbN2H6fDjOGJAg+JgFhaiz/iRw/yMo9evF7jUzFIqJn97RLx684LN2PZGPPrX2XVy5TF+5KtYGINeqmVTwMXbtJvrjzwSffcm6thTrT6JRWAimiVyrJkqrFqVjz8uL7VffahkvK21a401PI/jU8yDLEFUxdu5ErpZNWveu8YJPViaeJx/Bf/0tRH+YBA477ltuSH5gpvU8Cr89Bu2fxci1yj+PdiM3bIBcowZKThOw2dDnLyT07gcYxSbeSuNGmEVFGLl5SC4XSk4T9LXrcV1/Lc6hF8eqvsX2uSeX6OTfCD7yBEpOUyS7HWPXLpQmTawolJympem2B4np96Mt/IfgY08jpaQgpaZiFBVBNGr11bY1kte77x3tqx+fD23+QoKPPomUkZEQQaqvX4/zystwXXV5gnBj5Oah/jaVwH0PW898pzM29hIRLvWDtxO20zdsJPzhJ6hTfkMpU1VL37YdMy8PW/t2VSL46Os3EP7fx6i/z0CpVzd+7Hl5SGlpeOvUsa5tZ8VmqJVB+2su4Y8/wdi6DQBbuzYomRnoK1YS/u8Y9HXrAUh58xUc5QQffeMmIp+MI/rDJJQGDWJjdw69CNe1VyGXG3tVYBb5iIz7HIJh69o/xILPqiLrZTzbKdOygpfe8hSpJovzNVTDMniuVUlRoYT1fp0bZhcB8NwJbi5OIhrsL/U9MmO6lfqivLkyyKzdiT9ubA7qsUpIJSa/6/2lbZuDFUdMnFzDzsk1SsWpa2YVsboovkLZjc3d5EcNHlzg5665PvrWclSJ4HNaHQeXNnKxJaizolDnjDpOhjZ2xRkTr/HpPLs4wKaAQZ+adv7bNRV3JVKmNNPks/VWifSd4XjBa9LWCF9uDNMizUYtd+WukV1hg7dXBanhkgnqkBcxaJ5m473upefn2cUB5h5ghbMSdoYN3l0dopZbppZbZmmBznXbirBJFBtEl64bNYhFyfy5W2VersaG4vN/fxsvPWtULDo2S1X4b9dUCqMGEzZaQmWaXaJ9pg27bM3R5xvCtEqzUbt4jg4kUy3FJtEpy5rfB9p6aZNu44uN4Zjgc3Y9J0MauKjllonoJiuKdBbka+wIGeRFrKijluklSYYCwfGBEHwE/yrUaTPw33InAN6Xn8d2YqfShaZJ4cDzCI16DTO/AM+Tj8RtG/3iK4LP/Qc5O5vUTz6IhddHf/oF//BbKuwzcOc9aAv+wXnZJXiff6q0fcQ9RL76tgqPDkKvvklk3ARsnU8g7VvL+8V/211Ev/wGc8dOUsd9VDX9jHqNyISvsZ3UhbSvPotbpk6dju+KYfguv4bUD8dgPzVRzHINv9byrCmm6JwL0BYuwnHmGXifezJpn5LXS+r/3kUuFivUKb/ju/p6ADxPP4a9z8lVcmzHK8GHHkedPhPHuWeR8uYrccsin39JYOQDFA0cRPqP36G0bR1bZkYi+IffjL5uPa6br8fzwD2xZb5rbqgw+kH9fRr+2+8GLGHH1qkjANo/iyk6e3CVHZejfz8c/fsBUHTWYLRFi3GcPbBSXh+RT8cTGvUacp3apI0fi1QcbRP9/gf8t9xJ0aCLSPvm89hzQmnalLQfrXs2cPf9RCZ8hb50GUXnXwJAyluvYmzaTPD5/xz8gek6/ptuR1+5Ctfwa/A8Gm/eHXrtLUIvjcZ3+TWk/fQdcrVqOK++AqlaNfw33Q6A96VniU76mfAHHyE3aUTaxG8oOvsCQq++iVlQgOfp+DmKfvkNwWdeQMrMIPXjMch16hAa/TqhUa/hu3I46T99h5SZcfDHBmhz5+O7YhgAqS+/gP3UvkR//Bn/9bdSNGQoqRM+wd6968H3M2du7DmR+sbohOdE0QWXEv7vGMzcPLwvPx+3LPp/kwg+8gSS20XKmDdRmjYBQJ3xB76hV1fYZ/CBR1FnzsIx6BxSXh8Vaw889DiRjz+tcLv9JXDvQ2iz5+Accj7e0S/GLYuM/YzAg49RdO4Q0n/6DqVZzkH15bp5OFJ2JoGRD8S1O849C7l2LYoGX1LhtsHHn0H99TccZwwgZcxbAPguuZLwmP9h7Mkl5bWXD2psyZDr1Cbtq/FVvt+KuGZWEbN2qwzLcce9kO+NP3ernDElH4D3u2fstULR0UbXanYm97eel+dNLeD7zRH61nTwbV/r+TDg13x+3V415sFVzYnZdqaelkWnibmMnOejUDV4skOpEHzrnCJ+3hbl4kYuxp+cXun9uhSJr/umx6p03Te/NOJz9ImpzM1VeXJRgLN/K2D+WftOd22dbmPeWdYPY1fPKuKjtcmjbg6Wdhml/QC8vCzIyHk+0uwyP5ySERcBtSWo02liHrvDBre39NDQq3DpjMJK9+VWJL7pm8ElMwr5fEOYbtXt/HyqdR29cmIqaXaJpxYFOPt3a44yK1nlriwnZtvjjueZxQEeXlh6Lm6b48OnmjzQ1svmoMHJP+fFUvb+b0uEjQGd+WdlH5DYJBAcrQjBRyA4TgjcdjfRaTNwnDMQ98g7j/RwKoWxcSP+W+5CX7Ua9+0347ys4peGskTGTSD85jvI2dl43xhV5elqguOf4JPPEv3uB2zdTsL79GNIaaUvafY+J5My5k0Ct95J4O77cY8cgeOcMyvcl+Ry4X1jNPZuJ2FGo9j69EKy2eKi2Mrief4pQq+8gfrbVPTFS0DTkq53OAm+MIrol19jO6ED3heeQa5eHbDKhkspKQSfe4miiy/H+8Iz2E7ocFB9RT7/kvAbbyNnZOB9Y3RMDPw3o7RrQ9pX4/DfdifBZ18k/MbbmH4fcmam9Yw74dibI7OwCP+td6LNW4Dziktx3zg8tszz3JOEXnkT9bff8d94myWMVWEa3/HOV5siPLTAj02Gz3qlc2otx743qkL+2qPSeWIuQKyi1tSd0Vjbat/Be6Jc09TN6XWc2CWo7jw6Kiz+G7l7ro+pOy3xLmpYaV0Ar60IxqVXXftnEU929HJxw8pHms3erdL/13w+65VOjTK+PNuCBn1/ya+0eFoev2YydEYhW4M6O0IGvWo4eKS9l6EzCsmNGLyxMsiXG8NEDMvbZ0y3NDplW88ftwJHsW+6QHBACMFH8K/C1rF9LGVHbtSQ6Lffo/4xO7bc2La9wm3t/frg2p1LZOxnBJ9+HsntxnH6AGxt28T2WfILcFnct91E6N0P0GbPsUpsKwruEbfivORCbN1OQq5RvUqOTV+7DjM/HykrK84A2Dn0Yuw9uyf1FjpQnBcNwdblROTq1TAjEcKvvIGxx/qiZ2zfkXQbKSsLz5OPgqpiO6ED2rwFhN95D23xEty33Ihj8HkJKSYA9t69rPm125GyMol8/CmR8V+Cx4PnnjuxndgZyVU1v4zqq9cQfveDSq0r16yBa8StB27afJhxDb8GxzlnIjeoj7F7D+FX3sCMWl/i9HUbKtxOsttx33sX4bfHoP4+nUBePlKKF/eIW3FdcwWO0/snTcmwndAR98gRhF55g9AbbyNnZ2Hr2gX7KX1i94ut8wmH5mArgbFpM8au3Sgd2qO0aB63TEpPtyIiZBl93XqM3MRSwyXIjRvhvv1m7D26IaWmIME+qwkqjRshV8vGLChEL6jg11FZxn33HZiFhSgtmqOvXUf47fdii/Vlyyt9rJXB2LwFY8dOAMIfxEcCGlu3gaqiL1+J6U+sorLffe3eg75hI3K1aigtm8fSPm3t9v4sPRCUVi1L99m8GdEff0b9bVrpWNZXfO3be3bDfcsNhN55j9BLo5FSU7H37Y2t8wml+2zdKmE71/XXgqKgLfjHeuYD7ltvxHn+udjatUnq2yR5vVZKqsOBsWETJQkhcvXqKC1bxOaoLO4bh2NcMAilUUOMHTsIjX4j5pelr1lbuQk6lGga+spVVvrtwkWEXv9v3GJ92XLrHli9hphpzDHGjpDBk4sCrPXpDG3s4qqmiabLyfhxa4TXVoRItUs82j6F9vuoAFWWsetCvLM6RNQwebdbGv1rOw4oEuJgqO9RYj5Fb6wMsjBPo3FKaduoZUGWFR6ckF2SYnQo8Ngknj8hhReWBvhhS4TqTpkrmrh5cpGfpQUagxs4uSGJgXZZnlrkZ2PAiB1n1DB5eKGfdLvMovxDL+K/vSrEN5uT+5LtD+v8VgobwHVJjnlgXSetiw2n86PW9e4zTLpXtzOwnOdUeWPq8kQMkycXBfh7j5WGVqSaLCpOayxLml1iWI6bup79SyH+dXuU8RvCRA1LgLy8sZsdIZ25eRofrg0RLE5H2xY04nymmqcpsTQwgeB4RFzdgmOC6MSfMPfkIrdshr3rSQe8H7lBAxzpGUR/mIQ68SeiP0zCyM3F1qObVQ5BqljWV1q1xDn0IkzVeklWp0zF2LMHR98+kOrFefaZ4Ej8lc0+4FTMYAj177mYe3KJ/viLVX2pRg2U1i2xdel8wMdTGezdu0IVpEaUxda1C1JaKtqceZYAM24CSts2yI0agD35Y0VK8eK8YFDsc+Srb4n++Is1xtNOrfAFT2nRPO6FXJ05C23xEuyn9sNx3tlVeFSAJIOzkr+UHoZfo/W169Bm/ml1d9YZyNWSR4xUBnvf3mjzF6AvXoY2ew6RcROwn9oPqWZ1JNtevlTZbDjOOsPyXFm8BGPbdrT/m4SUlYWclobSsT22Du0SNpMbNcB56UUYefmga5b58Np1EAiCLOE4+8wqSw86ksjVq+Eccv5+b2c7sRP2ZStQZ86qYMcyjoGnoc6chb5oCfr6DUS+/tZ6zqSmVJmXTgKSlHAPyE0a4WxieS2V9zarSuR69XBecmHV7rNObRznnkX0hx9Rf5lC9Jdf0Tdtxt6n2OxaqviFUmmWg3PoxRh+Kx1AnfYHxtZtmHtyweW0rmFvopmuvV8fzEgUdeYfmAVFRH+YhJSehlK/PnLznCpJVQOwn9rXKgiwbAXq9JlExn+BY+BpSNWyjz4hWlESritb1xOxdT3R+tFDPjYjOApVgw/XhgjpJj2qx3vT7I1/8jV+2hahhkvm0kYu6laiohfAl5sivLs6REHE5Kbmbq6ppMBU1dTxyAzLsfr+fkuEhXkaDb1KrG38hjDLKp/pc9hxynBxIxeFxebQ764O4VNN3ltj/f8t2Xb67SNqqsSI+YQsOydk2dEMkwkbIzHz4/KcVM0y885ySAdVRj1qwISNYd5dHWJBnkoDr8LQxq4D9jiSAJsEEzZG0E1LhClLWQPlLUGdF5cG8akmXbLtDMtxUxA1mbAxjGaYTN0RZWfISDp320MG4zeEeW91iI6ZVln1P3erMePyoY1dsTnKdkpcl+Pe72NSikvUOxW4oomb+h6ZLUEdGXDKUoW+PN9ujpDhkPdLeBUIjiXElS044pSUpDaDQbSFi5KWZg+/9S7aosU4rxx6UIKPmZ+POmMWwceeQm7UEMmbgmPwINy33gimiTZvPnpeftJtjR07MX0+K7qlVQuCLhfa3/MJf/ARZiCAXK06thM6JPwSq69chVy/Lu4TOmBGIhjbd6LO/BNjw0ZsvbrjTk9HaX5w/gr7wti5C2PrVlBs2Fq1SCpM7df+Nm4iMuErIuO/RGneDLlhQ1w3Dcfeszvq1Omov/6+9+23bMXYsBHJ7UJp2RLJ67EiLvbsQfJ4UVo2T9xI19GWr8QsKECuXcsSiFQVbflK0FTkOnUOumyxktME79P79n6pEuw2bO3aos6di7FtO/q69Qml2bUF/xB42BpPWsf2ByX46KvXWqbNv09HadwIpV1b3HfdhtKqJZHPv0SdNTv5hoaBvnwlSrOm2Hv1wNi9m2BuPuqvv6OvXYfjzNORUlMSxm7m5WNs2YLzvLNQWjQnPHYc6o+/EP5kHPqq1UgpXmy9T/7Xlu52DDwdQuGKBR/TRF++kvC776MvXWFVQut6Eu4H70GuWZPQa29Vqnrd/pLsHjALCtHXWUbbe4tIlKtlo7Rsgb5qNfryFUg1a+z/+Y1E0VasAF1HrlcXucbBRSaahUWoc+YSeuo5pGrVkNLScJ57Fu57rLTXouUrMXbtSrqtsXsPxp49OIecj9KyBeGMd1Bn/EH4o7EYO3chZWRg79YFKT3e50NfvQa5RjVcw65Bstkwd+5E+3s+0a+/QzmhI3JmRpVUp9JXrSb84Vi0P/5EbtgQW8cOuO8egdKsKZGxn6HOnnPQfVQV9lP74R5xa1ybsWUrxq5dSC5XcgHTNNFXrMTIzSstXX8UsSdisDBP2+8KP6uL9LiS3ZUhqJksLtB47B8/Yc3khmZu7mnjjZXtDmomddwyDQ9x2fbDTUHUYHlh6Vxt3Uv1r2T4NZMFeSpBzSQnVUmoyHV9Mzc7QwaP/uPnoWKfl1bptkoJcPeXKVPvU03m5ar8tC1KdZdCRCfhHJ9V18lZdQ8+Glk1TL7bbJlDd69up2W6jXPrOVlWoNEqXaF+cbn0uh65Uj40jVMUXu2SyoxdKh+W8QnSTJifp8VFwuyOGLFonE0BnT93q2wKGNzxt4+mqQppdomz6zmTCj5rfTp3zfUBcG2Om6hpUhA1WV6o8dBCP+0zbZxdz8nZBzFH/Wo56JxtZ2mBFWH10AIfq3w6p9dxcn59J/+3JUJQS7xhRy8PYgK3tvDQNPX4uocEAhCCj+AowHn5pUiZmfhvvA3fpVeR9sWn2LoVizqmaZW/Nk2w2az/DgJ1xh+lps3PPx1v2lwWXYfidBfsdpAkol9/GzNtTvvpOzwP3w+Umjb7Lrua1M/HYu/RLW5XgXsejDNtTvvOMlMuMW02d+8hdcInB3VcsXHKMuiGNWclESiaZpmxvjgKqXo10r//Mmnq1P4Qeu3NCk2b49A0ax5lufTcqRrhMR8Q/vATlNatSPt6HNhsBO5/hMin47F17EDa/30Zvx/DwMzPxz/8ZowdO3HffjPuO2/D2LET/1XXYezJxXP/SFwVVTw6CpEzMkj58B18Vw0n8sk4zLx8Ut55vXQFXbfmT5Ji1+DBEHz86QpNm+NQ1eJzpoBNsUybb74jzrS55Br2XXMDkXETMPPzY2assd1MmxEzbU777gvcN16H+8brYqbN/ttH4h39Ynx0TMm9DvHXzKHAZrNeMo1y9wuUtoHVfqiiaWTZ2r+apMqKruO//e4KTZtjmCZEi8/ZwYyz7HxEo6XXnK6jzvoT/423g91O6sfvY+/ZLeku7ANOxVurJkVnno9/xD14R72A88IkBt2KYvVXMnbDsObCMDC2bME39GrMUAjPww/guvbKAz8mQJs7D/+11nMhmWlzjJLjhtJn/sSfYqbNaT9+h3vkHbhH3hEzbfZfdxOpH7ydUPo8+OhTcabNqV9YRs0lps2BHTtJm/h18nGUPMdL5sRR8b0feOjxCk2b41DLXB9VfS3revLrF6zQAUfJ36Xi51nZvwPvfUj4fx+jtGpB+vdfJv4QoRv4bx+JvmIlruuuxvPYQ1U79oPk1+3RmGGtXabSJq8PL/QzYWMYWbLKeO9rM92ElUUavX/Ox8TkrZPSYqk3mgGXzyxkSYHGna08jDox9SCOqJSoAaZpUvbdOGqYGKZ1nPYyeohdtqIq7LIVKK0Wr1e5fkxKqmMbppXyU3ZO5uSqnPu7Ncf7s98SlhZY8wYwtlc6lzeO95dRDSj//v9ip1QG1LajGvHHuTcWFWj0m2z1M+7kdDYF9DjT5qrEa5P4ondpdOzP2yL0/SUf1TD5pm8Gw3Pc3LiPdLRkOGQJWbLOgyxZ56K8IbNpWucB4N1VId5fE44tG9Mtje7Vk0e46SYxoaiknysauanpVDh9SvIfWQ8E3bT8pU77Nd+6jiQY2dpDl2w75/5eEIvK0oqvO6l4PKpp8sryIHsiJu93T92v0u8CwbHAsRlDK/jXYKzfSOFZg9FXr7Fe8g/TC33k+4kUDhxE0fmXYGzbdlj6PFhSXn8ZxxmnEf1hEv677ou1B18cRfj9D7F1bE/a52NjZqyHg8BjT1E4cBDBp18obbvvISLffI/j1H6kvP1apV5AtEWLKbrwMoydu/A8fD/OK4ceymEfFYTfeZ/Qy68iN2pI+g9fH/IosBL8t91F4cBBhP/77mHprwQzEMR37Y0UDhxE4cBBBB5NXq2tqvA8+iDOyy9F+2sOviuHYRYWxZap02bgH34LZiRCysvP49yLYfPBYD+lLylvv35QwpaRl49v6FUUDhxE5PMv971BBXjuuwvXsKvRFiyi6OIrMHbvBqxKZsEnnkWuXp20z8diO+HgDdKdFw/B+/RjGAUF+C6/Bm3OPADUP/7Ed80NmP4A3heewXn+uQfdV2WJ/jIldu0dKf8byeMh9f23sffqAVhpf6mffYh8MKmPqor/htuse3rM/6popKVEvp+Ev1zlrhKk9HRSP34fW9cuRMaOI/jUc7FlgQceIfL1d9j79bHugWPcsPl/PdK5aD/MasGKzvh1QAbVXXv/Kj5pa4QLpxeiGiYf90zngoaHvprX5TML6TwpjxeWWN4uEcPkgmmF/LQtwpVN3fy3a6mZ7qjOqcw7M4tRnVPZETLo90sBf+3Zd6lww4RLZxTyf1ssH5r5+Son/5zP5kBpREmP6g7mnZnFvDOz6FW96o2pR8738faqYFzbrXOK6DwpjwcWHBrBpqrpWd3BL/0zqOaUuf1vH++v2f9qXg5Z4os+6ZxZ7MnTJdsem/ey//14agYZxQbat7XyxC3rsJd0qPEbwgz7szBWpeu0OofmGv5sfZjrZxeRYpP4vl8G887MwilL3P63j2pOmV/6W23XFqce1vfKzDg9k05Z1vPnhy0RLplRuN/CokBwtCMifARHBbaO7fE88gChl0YTev2/yOOsCAKjsAh95Srcd9+O49xzEsL7wx9/hj5vPsauPaVt732IOulnlLatcQ2/Nr6fTh3xPHSv1c8rbySkGxhbLXHHLChALyhA8ngwo/FfXEy/n+CjTyG5rS93+rbtSNlZeEbeudfSt9qs2QTuGFn6ee587H17J4zxQJEb1Md1wzAkj4fob1Njfal/z0Np1xbX8GuS+uSY+QUEXxoNgQDakmWAlQIWGPkAkqLgGHI+9pN7xm3jHHoxpqajTp8Zd0wl28b+XTyfStMmmLm5BF96BXXqdMz8AvSVqwiPeq10PipIT1GnTiP87v/Q11gpJdGffkFftNgaeyiM6Ts2vpRVhOuGYUg2Be2fRfHXx6IlyA3q477peivFrcyv/PrGjYRHWdFA2tz5VtuqNbHtncOuxta+bXw/Nw0Hhx1t/sKEc6Zv3JTwb2PX7oSxqr/+TqDY2BdAX7oMx8DT9xmFERr9esyo1sgvAFm2DLdPOrF0JcNAX78Bo7h/uV6dve6zBG3OXCKfWuWX9c2brbaZs6xjtNtxj7wTuVZiWpBcpzauyy5BctiJfDKewP0PIxVHGOhbtmIGQ3hfeBZ7715IGemx9vBLo60+5i2w2tatL533q69IqGAVfvcDoj//CoCZm0fggUdw33kbSrMcpLRUlEYNkkdwKAqe+0cSeusd1KnTCZQzjtZWrCr+h4a+dr3V18efIaWUphmEXnsrdg8aW7cRGHEv+uYtAKgzZhF65Y1Ymo1cuxbOi4eAzUb4vf8RfPgJJLcbbflK5OwsXLfdbF1T+0gHVerXw/vKi4ReeoXIp59bz5DB58XPfVYm9v6n4NE061k8+jXkWjXRt23HKPLhffYJ7H17J/V4inz+Jdqs2ZY3VMkcjx2HOm0GSrMcXLfeGD+eNq3wPPkIoZdGE/7vGKJffxe3XF9nzZ1ZVIReZIl+ZiTeCNWMqgSfeRG5OF3X2LUbyevFfc+dKG3bVDgX2rwF8ff0wkXYunfDfdN1yTeQZZTGjWJpwZLXm5AqWRb3bTcRdjnR5sxNvKdLjNhNE33DRmvcu62/k2YwSOil0Zh5+WgrVlptBYUEHnocyenAcc5Z2Pv3S+jP1u0kPPfcSfCl0QRfGo2cno6+dj1G8TUFEP7oE5DAcc5ZoCgoTRrjHnEbkQ8+IvrTZMxik3J1xizsfXrhuvIylEYNE/rSN20m/J9XMLZtx3nZJTj2U/wz9uwh9NJoCEdwDD6v4siuKqJxikLWflaSSrFJtEjb99fwwqjJ2uKqVx+vDTNxa+n1aZiWr0pVsSmg88hCP1N2RMmLGPSv7eDFTm6ihskj/wQoVE3+2qMyfkOY+9pYz5oGZdKkAprJiFZuIrr1Qt2oghSz9X6dRxf6+X1HlAsbuuhdw8GKIo0Xlwa4/e8iUu0S59RzclFDF22KjYAf7+Bla9Dab4pd2qe/y287ory0NIhNkniqo5eexdEnyws1ni0WsqbtVOlR3c4FDUrFuheXBVicr+HXTHaGrbl9pF0KzdOSH8vk7VFeXhbEoUg83cFLt2r2/U7ZOxhS7NZ1ZJOt87cnvH9pbwC6afLe6hBLiw2oNwZ0nl9qzdGIll46Z1vnID2oUzLtNV1y7NzsjTFrQoxZFcIuwwc90uhVw06a/dBE0JyYbeOpDilopsnXm8IEdZMl+RqZDolRJ6ZwUjU7b64I8efZjXMrAAAgAElEQVRu63u9Q5ZomW7jmRNSGLUswM/bokzdEeXKPwqRJBjW1E3fw1wBTyA4FAjBR3BUINetg/PC8zHz8jGjpV9mlOwslCZX47zwgqRpSFJKClJ2lrVeq3KVdlITQ5vlevVwXDgYM78AM0kYevn0A8nuQEq3fsmydWiPa/g1CdvYsrOwn9wTx5BBlhdBORznnZ00dcx+en9sXU/C3rtnwrIDxdapI+g6Umapp4TjjAHYenSL/WqcgCIjZ2ZiupzY+/QqNTMtJtkx2Tp3wqXpSf05lOwsq9pM2baWLUFWkDMzcAw6J+kw7P37YQfkOvEv+pLLhdKyeVJfHwli0T62DsdmaXZ7j24QjiDP/CO+vV9vbO3bJX3xkmw2pOK5d5wxIHF5MvPwXj0wIxG0P/5MWGbLzkoojW3rUizG2Gw4L7oAIzc3YTvH2QOtqkXdEn21lJymSe8XJTsLpVkOjosGxwu4DjvOi4dg5ufHtq8UTmdsLsqbJ0slaUoVoLRqkdQk2JadhXxKXxwXDEIqY0Iu2ZRYX/bTTqV8TEKyeZdSU7Cf3AP7yWXuvzLRDFJmBq5rrwJDR2lVxtdFkrD372eZZRcLnGWx9+xWYWpVWbFPadEM+yl9Yp+dF5bOkZQW/4xUmudYok+xMT2AvVd3lBbNcQw8LWlf5ZEyMnCefx7hdz9AmzcfrUO7BMEHrCp3ziHnY+bmYRabIseepRecX2HlPcnrLX3mN4u/RsofD4Bcq5bVT14+ZiCxwliyKKISryxbm1YVXsO2zifgvPB8pLTEssGOM0+PP5fF2E/ti63TCdj79UlYFr9eP8vbbh/3gL13L8xQGO2vRK8eW3YWti7xf3dsXbtY/5BlpIwM6xrr2R17z+5x65X8mFEepWEDpIsuwCgoiO/npHKFBzzxRtb2Hl0hGkGePjPW5hh0No4Bp1ZYtMDMLyDyzfdWHyd2wtY+0Rh+b5j+ANHvJ2L6Ayjt21W54DNjl8qkrREyHTKXN3FRpxLVpFQDPlkfYlWRRpdqdgY3qFxEUKt0G3e2SjQHL6HEuLlPzYN/MbXJEtVcMlc1scbWq4aDwQ2cqIbJrojBrpDB3FyVD9aEKpX2sjtisNanc1kTV0woWFKg8b81IT5dH+ayJi6GN3PTJdvOOr8e81eZuDXK9qBRoWfP7ohVHayEVukKZ5SJGvl1e5R3VodYmK8yopWHq5u6WZin8u3mCGuKNL7cGOayxm6GNHByWh1H3LZB3WRFocaqIp1P1lkpS5kOmcYpCm3SbZxWx5rnT9eH2RU2mLkryuJ8lTtberiqqZu5uSozdlnfL92KxGVNXDQpFr7W+nS+L45o2h9R6PQ6Djb6dTYHdUYvDyYs96kmgXK5aQVRk0/Xh4galhdPRWwPGXyyLsSHa0N0yrYzqL41F2HD5NN1YeyyFKu+VRA1CBX3M3OXikNOHAtADZfMZcXpc6k2iV417DROUbikUfw13zBFiV3bTcqIg0WqySfrwkQMk3m5la94FtKtay6sm3y1KUL36na8Nom8qMmmgMHbq0J8sCbE8iKN5mk2rmriwiHDabUdBDWT1unxr8WugzDXFgiOJiTTPEZrYQoEAoFAIDj6MAwC9z2MOuV3bF064779FpQ2ieXLBYJkGDt3oU7+jcCDj2Jr3xb3PXful2Bj5uYRnT6T4H0PITdpjPv2W3CceXqVjvGdVSHGbwhT36swpnsqzkqIHyHdZPjsIrYGDIY2toSOY5HxG8K8s6ryaUMNiueoRCCauDXCf5YGkSTL9yWZSe7j/wSYtjOa0F4RA+o4eLCMifLLywL8sCVKXY8c8zt6dnGA5YUaOak2Uuwwplv6Xsu+/74jyv0L/MzLVdFNyElVuC7HzX3F/Vw/u4jVRZZo0zZD4fWTLPH3qUUBPlwbYp1fp5pTZv7ZWdQvLi8+c5fKPfN8zM1T0QxomqpwdVM3D7fzJh9EGb7aGOaNlfue92E5bi5v4mJb0GD47EJm7VYpiJrUdMmcWc/JmG5pMb+pbSGDbzdHuG1OEf/f3n2HR1G1fwP/Ttmd3TQg9BaUJlIDqIgoUkRERUQUUETEAiKgiB19LT/7I/gERFDBR0RAWhBEioAiKoIoTXqRLiGQBEiyddr7x4RNlt0k9E2W7+e6vC4zM2fOndndCXPvOfdpmWjDu83jAqtyZasGBqzKQfo5jBiqmyBhwvWhyfAzdcRj4PHV2fjtqD8Qe5fqCj6/Ph62Qj5r209qGLvDg6l7PUguZ32p8mazOBxw6fhitycveaTCb1gj8h6q7cQbzYq/7kTRgAkfIiIiuuDcI16D79v5Vi2ar7+IdDhUSvhmzoH79bcAWUJC6jdnvTqX/4elcA17AQAQ//UXhS/OQFHvr0wVHZfmT/8c0iAG7yTHFdEi2O4cHTf9kAW3ZuI/LeIxsP6ZJelStrnx+sZclFdE/HpbOVR35ie1Drp13PTDcRz3GXgrOR5PNbi4ib/bfzqBlUf9uP8KBz49LQnzxW4Phv+VA0US8EvncmhwBlMML6Wuy0/gl3Q/etZyYELrohNIT6zOxjf7vLixkh0LOoROBz7iMdB2SRbSPQZebxqH4Q0LHzVHFG2Y8CEiIqILzsjIhJmbC8HhgFilcqTDoVLCzMm1ppAKAqSqVa2Vvs6mvcsdKDouVqlS6PRAin5e3cShAtPCytoFVDiLWkuqYSVoDBOoqIgoYz+zKT7H/QYyfSYkAagZK6FguSEt75y6CVRQRJQ9w3Oeq3/dBjy6iXibgMqnFQg/qZo45jUgwCpgXNJWpzrsNuAuJPbTpXsN5KgmnJKA6jGhx2omcMilQzOB8oqAcnauW0SXDyZ8iIiIiIiIiIiiDNObRERERERERERRhgkfIiIiIiIiIqIow4QPEREREREREVGUYcKHiIiIiIiIiCjKMOFDRERERERERBRlmPAhIiIiIiIiIooyTPgQEREREREREUUZJnyIiIiIiIiIiKIMEz5ERERERERERFGGCR8iIiIiIiIioijDhA8RERERERERUZRhwoeIiIiIiIiIKMow4UNEREREREREFGWY8CEiIiIiIiIiijJM+BARERERERERRRk50gEQUcmib94K37fzAACO/n0h1qgR4YgIALxfTIJxOA1yyxaw39450uEQ0UWk/vY71OUrIMTGwTGgP4S4OACAvm07fLO/BQA4HuoDsVZSJMMkIiKiEo4JHyIK0DZvhX/6LPjmzIWtfTuYqhbpkCiPefwE1KU/Qtu6HUJMDGztbop0SER0EWhr/oRv6nRof66D/bZOgGEG9pk+P4x9B+Bf/jMEhwP27t0g1a0dwWiJiIioJGPCh4gC/PO+h/erKZDq1kbsqPcgOBwAAPNkNoyjR4OOFcqWhVixAmAYMA4chKmq+TslCVJSTUAuHbcY40g6zJycsPuEuFiIVate4ohCOZ8bBiMjA76pM+BxuS96wsc8cRLGsWNB24Ry5SBWKH9R+6VzZ2Zmwsg6HnafoCgQk2pe4ojoXHj/Nxn+BYtha38zYt5+PWifnNwUMa+9DHXVanjGjINQrhwTPkRERFSo0vE0RkQR5f9hGdwjXgvapvR7EDH/7yWYHg9yHhsEY9+BwD6hfHkkzJ8NsVLFSx3qOXF/MBLq/EVh99k6dUDc+DGXOKLI881fAM+b7wZtUwY+ipjnn4lQRFQc76Qp8I6fEHafePVVKDNvFiCydB8RERHR5UJ644033oh0EEQUee7X34b/uwWQWyQj9v23IFapDAgCAECsXAlS7SvhX/gDoOtwPjkQjr73QyiTAEGWYWvZAvruf6Dv3Qe5WRPEfvQBpKQagCRF+Lc6M9JV9QG/H9q69RBiYxA7ZiQc/R4ENA3q8hXQ12+ErcPNEOz2iMYp16sLwW6HunwF1BW/wta6FYQyCRelL7FqFdhvvQX2u+6A+stKmCdOQG7ZHLab2lyU/uj8SbWSYO9yK2w33gB1yY8wvV44+vdFzCsvQunSudQkYC9XpscD11PPQv19NZQ7u8D53DCI5RNDjhOcDthuvhHa35uhrV4DM9cF2/XXRSBiIiIiKuk4wocuK/qmzfDNSAUAOAY8wikOBei7dsNIT4d8/bWQGjUM2idWKA/p6gb5P19RC2LNvGLOogipcUMI5coCAISEBMjNmlyyuC8E6corINaobv0gy5CbNIZYraqVsJJk+OfNh/v/3oVj4GOQ6kRu+oRYKwliUk2YLhe0dRtgerwXr69KFSFWqgjT44HgUC5aP3ThiNWrQaxeDfq+/YGRPGLNGpBbNo9wZMHUFb9BXfojhLg4OAYPgBAfH+mQSgZdh7Z5C8zjJyBWqQKpXp3wxykK5ORmEOLjoG/ZCmPf/ksbJxEREZUaHNtNlxV97z54v5oC71dTYBw9VnyDy4DpdsP37XdWsqdZE9hat4p0SCWGnNwUtg43w3S54PtmFoy0I5EOCVLdOrB16gAYBvyLlsDYf6D4RkQliLZpM7xfTYFvxmyYbk+kwykRjKPH4EudCzM3F7Y2rSE1bVxsG1uHdpCuqgd93374Fy8FTLPYNkRERHR5YcKH6DJnnjgJ9+tvQ9+5G/Y7u0Dp0zvSIZUoQkI8pPr1AEmCsW8/jIzMiMYjt24F59BBgKbBM/K/0NZtiGg8RHT+jD174X71TZgZWVD6PgB7l1uLbeMc9DhsN7WB9tc6eEaNBgzjEkRKREREpQkTPkRERbC1boX4ryZAiI+Ha8Tr8Kd+G+mQiIiIiIiIisUaPhQRRtZxuJ4aDrPAEsJC1aqI+3gU3G++C33T5qDjY0ePhFSvbuBn06/C9dRwGAcO5h8UH4e4jz+CWKlSSH/uV9+Atm4DjJMnA9tcz70MIcYJW+dOcD49OKSNvmUrXM+PCPxsv68HHP37wjh5Eq4hw2FmWiM95BtaI+bVFwPHeSd+Cf+ceUHncgwZBAiA9+PxQdvtd98Fx4BHYLrdyB0yHOaRwqcMyTe1QczLzxe6v6QzjqQjd+hwwOUKu98xdBDsXTqHbPd/Ow/eCV8GbVPu7wml7wMhx6q/rITn/Q+Dttk6dYTS7U6r7wJTHqSGVyN25HtnFnxe8epwUyZcw1+Cvn172Gb2bl3hGPho2H3G8RNwDR0OMysrZF/sB+9AatLozGI7Q+5X34S2bn1wPyPfg9Tw6gvbz8uvQdv4d9h9tttuhfOpJ4O2+efOh/fzL4o9r9LvQSi97g387Hrx1ZD7RAi7HXFjPoKYVKP4wIvgHf85/PMXFn6Aw4G4sR9BrFYt7G7f19Pg+2ZmcJPH+sN+T7egbZ6xn0JduPisYhMSExE79iOIZcueVTsA0LftgOvZF4s8RulzP5Q+vcLuMw4esj5Xfn/Y/Y7hT8F+SwcAeQWJhw6HcTgNxrEMq/2JE8h58BEINhnKQ32g9L4vfD/7DyB3yHBA18Ludz73DGwdbg7a5n7nA2grVxX6e4nVqyH2448gOBxh93tGfwL1h6XB/bz4LGw331ToOY2jx6zrkZOT309STcSOGRXxgu8Fmbm51t+bo0ehPNALyoP3RzokIiIiukiY8KGIEJxOKD26w/R64V+8FOpPP0PYux/uV96A+stvkK+/DoLTCd+M2QCsh4VTjAMH4Rk9Dupvv8N++22QmzeDvusfeL+aAveb78Lx5ADIpxUdtnVsD6lRQ2gb/oZv2gxrW+dOkK5IglT7yvAxVqoEe6974U0ZCyMjE/JNN1rbHQ4oPe6GZ9xn0LftgFi9elA7uWVzCLGxMNLT4Un5BNB1eCdaCQvjxEk4nxwIz+ixMI6kQ25lrawi2GxQuneFd/wEaJu2WNsS4uF8egiE+Dj4Fy+B//tFECQJjqcHQ1BKVxFdbfMWeMdNgLZuPRz9+0GqY11z40g6PCljAcMISv6d4ps+C75vZsJ0ewKJE9/kqfBNmwFT0+Ho3zfoeOmKpEAiyDN+Aoy9+2C63NC3bof292Y4nhoMbdUf0P78CzjPa2gcPQZvylioy3+G7aY2kE+rfeSbmQrfrFTANOB44vGgffqOnfB88hm0NX9Buf8+SA2uAgCYmVnwjB4Lz6jRUB59GLabbjivGAHAPHkSntGfwP/DMsjNm8HWvi2MYxnwpoyF58MUKI/1h63N9effz/ET8KSMhX/pj5CvbQlb2xuD9vvmfAf/nHkQBMAxND/pY2RkQtu0BYJDsd7veasS6dt3wvu/rwAAjkf6hSTA9D17oW3aArll86BEkC91LrQ//oSYlATn009ekFXM5Ouugb5zN3yz80d3KT17QL6mhVUXbMKXcL/1PhxPPB5SsNz75dfwz7TuY8pDfaxtn30B76QpMP3+oCSHrdW1MHb/A1/qXEAU4Rw2BGKVylB/WQn/9wshOBxwDhsMITER/h9/hvrDUoiVKwFa+ERIcYSKFWDv3RPe0WMDNc2kenXgePwRAIBv0hT4pn4DaCqUfg8GtdU2bIT304nQNvwNxxOPQaqVBADQD/0L75hxAKz3RKAvmw32bl1h5ubC/9MKGIuXWPfSe7tb0yYLSXBq69bD+9kX0P7eBMfggZBqFkje6To8KWPh/XQCTLcb9ju75F/LtjdC37MP6pJlgW2Oxx6GVL8etI2b4P9uAdwjXodz6CCIV14R1Kd39CfwfzsPYuXKsN/dFaZfhXf0J/CO/xymywX77beFxrllG7zjP4f21zo4+j0IqV4daOs3wr9wMdwvvwbn009CTEoq9jW5FAS7Hco93WC6XJAaNyy+AREREZVaTPhQRAhOB+zd7wJgfUus/vQzzNxc+GZ/C3vnW6D06Q3B6QAU61tRsXx5AIC+Yxd8s+fAlzoH9ju6QOnTC3KzptD/2QszOxv+BYsgJMQDve+D3KxpoD9be+vbXyE2JpDwsXfqAPmaFoXGKFasAOW+e+D74iugQN0WQVFgv7srfPPmQ9+2I6Sd3DwZcvNk6Dt3wTNmvLXyyp9rIdWvC0ff+6E80BNGVpZVJPlU/zYb7F3vgP/7RcCmLRCrV4Nyd1coD/SEEBcH48BBqD+tgH/+QjgGDzzvZMWlZhw8BP/8BQAAW8d2gcLQ+o6d8IwZF1p7wjDg/34RfFOnWw/Ffe+Hcn9Pa59pwPfNLPimTocQHwf7nV0C39KLSTWh5K285pv9LYy9+6Dv2QvjxAkofR+Ao08vaHWuhHp1fUjn+fBlnsyGb2YqTJ8P8jUt8uPLo/25Fr5Zc+Bftjwo4aNt2gL/jNlQFy+xaiY90MtaFh6AmZUFIysL/u8WAFO/AUQBtjatzzlG49C/8M2dD9+0mZBbt4LyYO+8B+G98I79FP5lP0Fue+OFSfi4XFbR2ZMnITdvFno9Nm2Bb/Uf8P+wLCjhE2Czwd71doi1kqBt2gJ9yzYITmdeXaleVh2lMKQrrwj05V+wGDAMSFfVh3Jvdyg9e5z37wUAcssW0Hf9E0j4nHrd5JbNoa35C97xE+D/fpGVCMhL+Jheb+A9LDgdUO6/LxCn6XZbCcGp0yHExFiJClGEfG1L6Dt3BRI+9ts7Q7qqPsxcF/zfLwTs1n1CTKoJ41hGyAiUsyVWKA+lZw/4vpwMHD0GqdHVUHr2CMSpLlsO/5JlEKtWDUn4GPsPWNcbgL1Tx8BKYNqmzYGET/BFlGHvervVNjMLal7Cx353VytpVQh97374F/5g9XPrLZCT8+/rUFV4v/wa6qo/IDVpFJzwuakNtHUboC5ZBiHGaf29eKAXpHp1IcTFwTd1Onyz5kDpfV8g4WNmHYd/wSJ4p82AVCsJyoO9Ye96B0yPF74vJ0NduRpS0yYhCR9t4yb4ps+Cumw5lO53We/XOrUhNbwapssNX+pcCInloNzbPfBZjyi7Hfa77oh0FERERHQJMOFDJYeiQG5QH85hQwPfOsrNk4MO0f74E95PJ1rfFne+BTAMaOutorX2u+6EunwFfFOmQ6xQISjhE2lizRqw9+gOx6ABABAyreV00lX14XzpuUsR2iUhlC0DqdHV0LfvhL5rNwSHAjExEYLDAbl5M0DTIVYon99A1+EZ8wn0Hbtg79YVcovkwOssXd0AUqOG8E2dDs8Ho2Br17bQaRkAIJZPhNyuLWLfeQMQBNjv6RYyleacfieHA3JyU5h+FWKFCjAyM4OmGBqZoVO1AEBd8Su8X02BWLECnC89FzQFUUhMRMxrI6yk0ILFEJzO80r46Nt3wPPBKACAo3/fwKgbQVGs2L0+iBUrnPP5g9jtkJs2hpnrglipEsys49D35y8XbWRkhG0mVqoIuXkyhFgnoCjQ9+6Db9oM+L9bAPmGVnC+9nLY6UpSvbqAzw+xVhJMj9f6XUem5CUIH4DjiccuzO91OkGAc8ggSI2Kngpn5rrg+WAUjCPpUPr0hnR1g8B7WG6RDG3D3/DPnQ/P6E+sAr2nllGvUB7SVfWh7/4H+rYdMN1uGP/+a51U16Fv2Wa919LSIJRJgNS4ESBfmD/ltpvawPFIvzM6VihXDlLDBtZneucuQBQgli8PISYmcN8W80ZrnQ8xsVzgfEJMDIwDB2HkTaeFpsH0eouPNSEBzhEvBN9jwjDSjsD1yhuAacL5zFDYu+YlRUQRUsMGEBISIFYPnban/rgcvinfQKxYAfa77oCZnZ3/d6nzLVAX/QDvpxMh1axRMhI+REREdNlgwodKDLFKZcRPnwwhLq7YY01VRe7Tz+fXVinIZgMk6SJEeO6cTw64rOsk2Fpfj/gJ43Cyaw+433gH0HUo3e5E7Kj3kTDja+uBNdxrCcA/fwH84eqa2GzWf8X13bE9Yke9f+7BGwagqtb/y3L+g3nN6oifPc2aTmOa8M2YDdeI1/MfvnX93Pu8yMTq1RA/c8qFPWelioifNilwPfzzvkfu8BeLvR72u+4IGm2QO3Ao/AsXw9bhZsRPmlBof7Hvvhn4f33bDmR37wXoOmI/eBvKA+FrzkSKb/os+Gamhu6w2UKSNbbOnRBbuTKyu/aw6sEUYLrcyBmQX2/M1rEd4id9flFiLo6t7Y2Iq14N2V17WEkSXYdy3z2Ife//kJA6rcjP9Fn10/5m2Nq1DUxbc73yhjXV99Q9/hyns50NQbEjbtzoYo8zMjKR8/CA8DtttsC9g4iIiOhSYcKHSiXBbkPs+I8DdSNC9l+Ab5bpwhKrVEbC7GmAbsD76efwL/kJWhdrpE3c2BRIDcJ/863c0y2kBk6ALEEsd/bFas+GumoN3CNeg5mTg9j3/g/2zp2C9uc+8yL0bdtgnsyGVK8O4saNAQB4/vMR/AXqh1wuXC+/Bm39BpjZORCTaiL+048Bm82qI5Q3re9yo/R9AI7CEr6K/YKN0LnUxJo1kDBvFmCY8H78CfyLl0LbsBEQRcSP/xhinfD10c6Wsf8AcgYOBXQNRvpR2G+/Dc5hQwBNRc7Ap2AUGEkWSWLFioj7bAyE+PB1o8TKFS9xRERERHS5K53/yiQSBEhX1gpeucvttqZ0ZB2HrXMna5oEFUsoWxax77wBz+ixVu2YmBg48orLXija35vg+99kAIBjyBNQ+j8E+cY2MNOOwD0yBe53/wPnE49BviG0loxQrhykq4Lrt/iXLIO68AcIZcrA+dwwCPHFjwo7V2ZuLvQ9ewFYD7hCYjkAgJF+FJ4PU6D+8hvsHW6GfOMNEMuVDcR6IYoFh6OtXAXPZ18AsoyY54YFaqecC8+YT2Ds2Qe51bUhNXfOlpl1HO6RKVB/+hly61awtb8ZYkI8pIYNAFGEULZM0e29XnhGpkDb+DfsnTpCebQfzOwceD78L8ycHNjuvA32WzqGtNP+XAvPuM8Bw4Dz2acgt24F7bffrXo7sg3O54cVWSPmUrCmaZ32Hp43H+ryXyBUqYKY54eVuFGJxdHWrYdv8jQAgGPYECiP9Yfcvh2Mg4fg+WgMXG+/B+egAZCvu+b8+vlzLTzjP4e+bTuczwyFmFQTUu0rrOupqhCUS7f6lferqdDXb4B0VX04BoVJQttkSHXrQCgwBfHUfQKaCuXe7pBvDF+IXapbG7HvvwX3yBR4J30NALDfEVocuiDP2PFQV/wK+dqWcD45gCOIiIiIKAT/dUClinR1A2v6h67DN3su9H/2AACMw2nwffEVfLPmwMjOtgo+nwHt99XwTpwE/9z5ZxyD6fXC983M4CXhSzEhxmkVy61UCdqmLdDW/BX2OLFCeTgefRhCYiLUX36DtuoPa4eqwjcrFfrefZCbNYX9tk4hbY1/D8OXOhe+1LkwjmVAbtoESo+7YevUARAEqMtXQN+7r0BnIpQed0OqWwfa5i1BU7rUZT/BN2U61DVrraSKeP7TRgqjrdsAdelPEOJiofS9P2jZbTM7B/6538HMyrKKFPe4G7YO7UJ/9yPp8E6cBO/ESfnXqHMnmB4PfNNmwDh4KOicvslTYaQdgXz9dWGXgNb37IW6fAUgirB16ggxr0h1OGJSTSuR43DAv2gJtI2brH5OnrRWYJqRCv1wGoTYmPO5TNY53W74v1sA4+gxyE0b572+HUMeQo1jGfnXY9dua1vaEevzO3MOpAZXWcWl27S2Ch8vWAxf6lzo23eG9KmtXgPv5Kl5q789BKXnvZCuvAL6nr3wpc61Xp/s/CWyjcOHA317J06Ctm7Def/ehbEKNfeEWLMmtLXroS77KbDPv3AxvFNnQNu4CWJCfEhbsWIFOB7pB6GclVyUGzeC47GHoTzUB0K8dbyc3Az2W2+5aPEXxzh4KPCZNjOzICfnfQY6tgNME+qy5dD3Hzijc/mXLIN34iSoy5aH7NMPHIS69CfANGFrfzOUHneH1HYDrKLg3omT4Pt6Gsyc3HP6nYTyiXA8+jDE8uWh/roS2u+r806uwTf7W/imz7JqkMXFBrWTWyTD1qkDzFwXfF9/A+PwYSv2f/bA+7/J8Kd+C1NViyy2L1SoAHu3OyHExUJbvQb65q3Fxquu+A36rn8g1UqC7ZYOF2QKHREREUT0S9MAAA7HSURBVEUXjvChyFBVaJs2A34Vxr/WP47h9UH7cy0EpxPiFUkQq1QJaSZf2wLOMgkwjqTD9+VkCDYJthvbQNu0Be6PxkBu0giOJx6HrZBvlYXy5SE3axJYBUj9bSW0dRtg69ge9ru7hjYQRcjJTWFkZ8M4nAZt9RoY2dnwvD8SRt4y4mbWcWjrN0Ju0hiQJRj7D8BIOwL90CHANAEA+t590FavgRAXF34ZXF2HtmlzYGly88QJaOs2QG7SCPo/e2EcTrO2e73Q/lxrLf0eH/qgeD6kq6+CvnsPzMxMaBs3QW7SKOhhXaxaBTGvjYCZ64L603J4VRUOQbBGZnz4Xwhx8VD69oHSp+j6KfrW7RDyHkz0g9Y1kho3DCpeDEmyClxrGrwzUuH9eDzERGuanvfTidAP/Qt7t65wDn8q6NxmZlYgiWDmWA/6xrEMaKvXWKdt0ghCbPDDGgDou//JT+BpGrT1GyAeOAjfzFT4ly2HrV1bxIx4Iai+lOB0Qr7uGmjrN0Lfuz/QxynGMatIsbH/ANxvvgMAiKtaGfY7ukCIi4VxLAOeMeOtAsp5D7BG+lG43/kA4hW14Hi4b8g3/PrefdD37rPeR8lNITidRV5rqX49OF98FkZmJvzzF0IwTcDjgZ6WBvfb70OsWxuO/g+FHQ1nHEmHsW8/TL8/UBj31GcANpv1/rAXGF2hKJCvaQHtz7Uw9h8MvR7pRwPnOHU9Yv/7HwhxcVAXLYH7/ZEAADm5KYSYGOuzduJEfv2k0+hbt8M76Wv4FyyGWKsm7J1vsQr6HjgIfW/4KT76nn2BvgHA+cxQyC1Ckwch12Lf/sAoL8BaiUqoVNEqorx1W/75d+2GcfCQNRIsNhbO4U/B9PnhnzffKjaf9/7xfjweRk4ulF494HgytOaLWL0aYv7fS1BXroJ+/Djk1tdZn73sHKg//2KNeGrbJqRWkXHwEIx/D0M/kh6omWTsO2C9FrEx1j2qADMnF9r6jTA9HuvYtDTo23ZYS4pv2gLzeN796Pipe1z4AtH6lq2B1+nUdZKbNC60ILhYrSqkBvVhpqVDW7cB3s8mwDiaAeWebrDd0j742AoVIDdtbN2zN28FChZp1vVA7NqqP6Ct+gNCmQTY2rWFkZYG41BesWu/H9ra9bBdfy3M7JzAPQIA9K3bICbVhFilMsQqlRHz+giYLhfUH5fD6/fDIYow/X54PkyBEOuE/ZF+IfXYbO3aAjGx8GS8B/dHYwCHA3KTRlB/+x2+LydDapEM59ODC11pLkCSICc3hZqdC+PwYejbd4af6ur1Qdu82Zo2WSsJUp3aRZ/3dJoGbdMWwOeDWKM6xBrVz649ERERlRqCaeY9kRJdQsaxDOTc0zvwUHw654jni5xWZPr8yOnRG/ruPYFtQtkEJKROD7uKSkH63n3Iuac3TI/14KDc2x0xb79eZBvX8BfgX7ik0P1ijepImDMdQkI8PB+MgvfLr8MeJzdtHLZYrpmbi+zuvYNGe4iVKiJ+znS4X34N6q8rg46Pn/K/IpeUP1fud/4D76cTINWtjYRF8wpd/co94jX45nwXtC025cOwo3sAwL/0R7iGPltov/Ezp0Bu2jjsPu+kr+F5f1TQNseTA8KudOZftASuZ14ovJ/UbyCHWV3J9exLgSWmT2e/pT1ix/630HPm9O5n1S05A7GjPwzUADIyMpHTvTeMY8dC4/z6C8jXtgyN86VX4Zs6A3LzZCR8N+uM+jwl99FBUFeuCu5n2qRCEx7eqdPheSt8sWuhfDnrs1alcmg/Dw+AelqypzAx778F82Q2PO99WOyxjmeGwDkwf+WtnIcehbZmbZFtBEVB/JzpkPJqyair/kBu/4H55xzyBJxDnii2b8/b78E7ZUZw7O++aU0jffuD4DgHPBKSiPSMGQfvuODiys4Xn4Wjf9/CO9U0ZN/TG/rO3XA8/CCcLz0HMycX2fdY9wnHoMfhfHpwUBPPfz+G97Mvwp5OalAfCXOmByVxtQ0bkdM7eFUu2w2tEPvRf6z7UVpaYLtYtSoSvp0emJrnX7AIrmdfDh+7KCJhzvRC63IBgPrrSuQ+nh+/Y9hgOAup1aXv2o3s7r3PqECzUCYeCanT82po/Ri0L27iOGhr/oL38/8FbXe++mJIjSX3q29a0wILiP3o/ZAl2QsyDqch+57eME+cDGyT6l6J+NTpEIoY3XO63CeGwr9gMWztb0b85Imh/ew/gJNdusHMyUXM66/A8djDZ3xuwBrhd/K2bjAO/QvnsCFwPvv0WbUnIiKi0oMJH4oMXYfx72GYhazcI5ZPhJBQRA0U04RxOA2m3x/YJEgSxGpViy+AqqpWW8Ow2sXHF79c79FjMF2uQvcLsg1i9aqAKMLMOg7j5MnwxymKFWNIB4YVU4HRDIIsQ6xWFUZGBky3J+hwsWqVIpciP1dnmvAxMjJCpk2IlSqGHT0DWKsLGUePFtqvWK1qoQ9E5slsGFnBS5yLZctCCFOs2XS5YBwNTaAE2lWvBsEeWvPDOHYMZm7411eIjQkefXR627QjZ7Q0NHDaNdJ1GP+mwdRDH2ILe33PJ+FjHEkPjIbI76cqBEch1z07J3/569NYn7VqgBxadyZcP4URK1aw3vuFLGEfdGy5ckF1gM7kuguCYCWA81ZzMz1eGEeOFDhn2aB6K4UxM7NgZGefUexi2TKBqViB9sdPWKOVCh6XmFh0nacC9zixTAKExMSg+0S4z4B5/DiME4Xce+z2kGS46fMFRg8GjnM6IVaqaN2fCyRYBFm22ucljIr8rAkCpGpVg0eAnf7reTwwjqQHfj799Q3iV6EfPhwYMVkUQRQhVq8GI+t4yD1brFIZ8HpDrlG4vzdGRmZglGDguCLucQAATbNenwJ/1wS73brnn8V0KyZ8iIiI6EJhwoeIAvSt2+GbMRu+mamwtW0D54vPQqp9YVbaofPj+WAUfPMXQKpVC45Bj8NWSPFXIirdtLXr4P1yMrRVa2Dr1BExLz8fSA5q6zfAk/IJ1F9+g3PoINjvvgtS7SvO+Nz6jp3wjEyBuuI3KA89AOW+eyBdVfhILCIiIirdWMOHiAKkhg2g9OoB5I36uJQr4FDRxMqVYL+ji1Uglskeoqglt2wBxeeHWL26NaKowApuQkwMpAb1ITWoD+Xe7kUWbQ/L4YBY+0oota+0CuMXV1eIiIiISjWO8CEiIiIiIiIiijJclp2IiIiIiIiIKMow4UNEREREREREFGWY8CEiIiIiIiIiijJM+BARERERERERRRkmfIiIiIiIiIiIogwTPkREREREREREUYYJHyIiIiIiIiKiKMOEDxERERERERFRlGHCh4iIiIiIiIgoyjDhQ0REREREREQUZZjwISIiIiIiIiKKMkz4EBERERERERFFGTnSAdCZMV0uuF58FeaxDACA1LI5Yl4YHuGoiIiIiIiIiKgkYsKnlBBkGbYbroeZmwv1l5Xwf7cAgqLA8Xh/CDExkQ6PiIiIiIiIiEoQwTRNM9JB0NnxpIyFZ9RoiFWqIGHxPIjlEyMdEhERERERERGVIKzhQ0REREREREQUZZjwISIiIiIiIiKKMkz4EBERERERERFFGSZ8iIiIiIiIiIiiDBM+RERERERERERRhgmf0kzToO/YCTPXFelIiIiIiIiIiKgEYcKnFDMyMpBzfz9oa9dHOhQiIiIiIiIiKkEE0zTNSAdBZ8dIPwoj/SjMzEy4hg6HkJgI59AnYb+ve6RDIyIiIiIiIqISQI50AHT29E1b4F/6I0yPG6bPB3uHdpAaXR3psIiIiIiIiIiohGDCpxTSNm+Bb9oMCDExsHe9A0qf3pDq1Yl0WERERERERERUQjDhU4oJCQlwvvIixPKJkQ6FiIiIiIiIiEoQFm0mIiIiIiIiIooyTPgQEREREREREUUZJnyIiIiIiIiIiKIMEz5ERERERERERFGGCR8iIiIiIiIioijDVbpKC9OE6fUChgmoKiBJEJxOQBAiHRkRERERERERlTBM+JQSZm4uch4dBDM9HcbxE5BbXYu4D9+FWCYh0qERERERERERUQkjmKZpRjoIOgOqCnXFrzDdHgCAWKUy5OuuiXBQRERERERERFQSMeFDRERERERERBRlWLSZiIiIiIiIiCjKMOFDRERERERERBRlmPAhIiIiIiIiIooyTPgQEREREREREUUZJnyIiIiIiIiIiKIMEz5ERERERERERFGGCR8iIiIiIiIioijDhA8RERERERERUZSRIx1AabZ582a88MILgZ979eqFfv36RTAiIiIiIiIiIiKO8DkvCQkJaNOmDdq0aYODBw/i888/x+TJkyMdFhERERERERFd5gTTNM1IBxENevbsiVmzZqFLly5YuHBhpMMhIiIiIiIiossYR/gQEREREREREUUZJnyIiIiIiIiIiKIMEz5ERERERERERFGGCR8iIiIiIiIioijDhA8RERERERERUZRhwucCc7lc2L17NzRNi3QoRERERERERHSZYsLnAlu5ciVuvfVWZGRkRDoUIiIiIiIiIrpMCaZpmpEOIhps374dGRkZ+OOPPzBixAgkJycjJSUFrVu3jnRoRERERERERHSZkSMdQLRYtWoV1q9fj/3798PhcOCuu+5C1apVIx0WEREREREREV2GmPC5QBYtWoRZs2ahRo0a6N+/PwYPHoyyZctGOiwiIiIiIiIiugwx4XOBNWnSBCkpKZEOg4iIiIiIiIguYyzaTEREREREREQUZZjwISIiIiIiIiKKMkz4EBERERERERFFGSZ8iIiIiIiIiIiiDBM+RERERERERERRhqt0nQfTNKHreuD/RVGEJEkRjoqIiIiIiIiILndM+JyHdevW4ZFHHgEA7N+/H/3798crr7wS4aiIiIiIiIiI6HInmKZpRjqI0io9PR2LFy8O/NykSRO0aNEighERERERERERETHhQ0REREREREQUdVi0mYiIiIiIiIgoyjDhQ0REREREREQUZZjwISIiIiIiIiKKMkz4EBERERERERFFGSZ8iIiIiIiIiIiizP8HRAgTprXaiJEAAAAASUVORK5CYII=;" vertex="1" parent="1">
          <mxGeometry x="2" y="370" width="1148" height="326" as="geometry" />
        </mxCell>
      </root>
    </mxGraphModel>
  </diagram>
</mxfile>
